<?xml version="1.0" standalone="no"?>
<!DOCTYPE svg PUBLIC "-//W3C//DTD SVG 1.1//EN" "http://www.w3.org/Graphics/SVG/1.1/DTD/svg11.dtd" >
<svg xmlns="http://www.w3.org/2000/svg" xmlns:xlink="http://www.w3.org/1999/xlink" version="1.1">
<metadata>
Created by FontForge 20161013 at Wed Jun 12 03:35:41 2013
 By ,,,
Copyright (c) 2013 HOON DESIGN. All rights reserved.
www.hoondesign.co.kr / Tel 070-8278-1187
webmaster@hoondesign.co.kr
</metadata>
<defs>
<font id="HoonPinkpungR" horiz-adv-x="920" >
  <font-face 
    font-family="1HoonPinkpungcha R"
    font-weight="400"
    font-stretch="normal"
    units-per-em="1000"
    panose-1="2 2 6 3 2 1 1 2 1 1"
    ascent="800"
    descent="-200"
    x-height="450"
    cap-height="672"
    bbox="0 -200 940 800"
    underline-thickness="25"
    underline-position="-181"
    unicode-range="U+0020-FFE6"
  />
<missing-glyph horiz-adv-x="1024" 
d="M102 -101v820h820v-820h-820zM154 -49h716v716h-716v-716z" />
    <glyph glyph-name=".notdef" horiz-adv-x="1024" 
d="M102 -101v820h820v-820h-820zM154 -49h716v716h-716v-716z" />
    <glyph glyph-name="glyph1" horiz-adv-x="0" 
 />
    <glyph glyph-name="glyph2" horiz-adv-x="1024" 
 />
    <glyph glyph-name="space" unicode=" " horiz-adv-x="278" 
 />
    <glyph glyph-name="exclam" unicode="!" horiz-adv-x="262" 
d="M187 206h-112v541h112v-541zM186 -4h-112v118h112v-118z" />
    <glyph glyph-name="quotedbl" unicode="&#x22;" horiz-adv-x="445" 
d="M187 502h-111l-1 245h112v-245zM362 502h-111v245h111v-245z" />
    <glyph glyph-name="numbersign" unicode="#" horiz-adv-x="709" 
d="M194 515l15 162h111l-15 -162h132l14 162h111l-15 -162h113v-79h-120l-14 -161h105v-79h-112l-15 -177h-110l15 177h-132l-15 -177h-111l15 177h-120v79h127l14 161h-112v79h119zM284 275h132l14 161h-132z" />
    <glyph glyph-name="dollar" unicode="$" horiz-adv-x="479" 
d="M51 493q-7 71 30.5 118t109.5 64v92h102v-81q36 -1 70 -8t71 -23l-29 -84q-37 18 -71.5 23.5t-76.5 1.5q-52 -5 -76 -27t-24 -65q0 -23 12.5 -40.5t44.5 -37.5l115 -69q16 -9 32.5 -24t31 -34.5t24.5 -42.5t12 -49q3 -72 -32 -117t-104 -55v-84h-101l-1 85
q-40 7 -74.5 20.5t-62.5 31.5l29 83q42 -26 83 -40t89 -9q34 3 52 16.5t18 55.5q0 29 -17 48.5t-34 30.5l-136 86q-42 26 -62 61t-25 73z" />
    <glyph glyph-name="percent" unicode="%" horiz-adv-x="801" 
d="M264 -11h-109l366 688h110zM331 494q0 -28 -10.5 -52.5t-29 -42.5t-44 -28.5t-54.5 -10.5q-27 0 -52 10t-43.5 28t-30 42.5t-11.5 53.5q0 27 11 51.5t29.5 42.5t43.5 29t53 11q27 0 52 -10t44 -28t30.5 -42.5t11.5 -53.5zM243 496q0 22 -13 39t-36 17q-20 0 -34 -17
t-14 -39q0 -23 14 -40.5t34 -17.5q23 0 36 17.5t13 40.5zM741 176q0 -28 -10.5 -52t-29 -42t-43.5 -28.5t-54 -10.5q-27 0 -52 10t-44 27.5t-30.5 42t-11.5 53.5q0 27 11 51.5t29.5 43t43.5 29t54 10.5q27 0 52 -10t43.5 -28t30 -42.5t11.5 -53.5zM653 178q0 23 -13 40
t-36 17q-20 0 -33.5 -17t-13.5 -40q0 -22 13.5 -39.5t33.5 -17.5q23 0 36 17.5t13 39.5z" />
    <glyph glyph-name="ampersand" unicode="&#x26;" horiz-adv-x="579" 
d="M46 160q0 39 19 77t65 76q-34 43 -52 85.5t-18 86.5q0 48 16 85t43 63t62.5 40.5t75.5 16.5q93 5 147.5 -36.5t54.5 -127.5q0 -18 -5 -40t-20 -47t-42 -52t-70 -54l-45 -29q27 -24 57.5 -47t62.5 -45q17 31 31 63.5t28 63.5l88 -31q-15 -36 -32 -73.5t-37 -72.5
q23 -14 46 -27.5t46 -25.5l-44 -81q-27 14 -52 27.5t-49 27.5q-36 -44 -81.5 -70.5t-102.5 -26.5q-89 0 -140.5 46.5t-51.5 127.5zM165 486q0 -29 13 -58t36 -58l67 43q39 26 56 55t17 56t-9 44.5t-22 27.5t-27.5 14t-26.5 4q-56 0 -80 -33.5t-24 -94.5zM238 71
q31 0 57 16.5t49 43.5q-45 29 -82.5 58t-69.5 58q-25 -20 -34.5 -43.5t-9.5 -52.5q0 -32 21.5 -56t68.5 -24z" />
    <glyph glyph-name="quotesingle" unicode="'" horiz-adv-x="277" 
d="M195 502h-111v245h111v-245z" />
    <glyph glyph-name="parenleft" unicode="(" horiz-adv-x="391" 
d="M351 754q-63 -101 -93 -214.5t-30 -230.5q0 -118 30.5 -232.5t92.5 -217.5h-87q-41 48 -69.5 103.5t-46.5 114t-26 117.5t-8 115q0 121 36 228t104 217h97v0z" />
    <glyph glyph-name="parenright" unicode=")" horiz-adv-x="391" 
d="M39 754h97q68 -110 103.5 -217t35.5 -228q0 -56 -8 -115t-26 -117.5t-46.5 -114t-68.5 -103.5h-87q62 103 92.5 217.5t30.5 232.5q0 117 -30 230.5t-93 214.5z" />
    <glyph glyph-name="asterisk" unicode="*" horiz-adv-x="471" 
d="M283 322v-128h-92v128l-98 -77l-52 76l125 79l-125 79l52 75l98 -77v130h92v-131l100 78l52 -75l-125 -79l125 -79l-52 -76z" />
    <glyph glyph-name="plus" unicode="+" horiz-adv-x="510" 
d="M193 399v148h112v-148h159v-84h-159v-161h-112v161h-144v84h144z" />
    <glyph glyph-name="comma" unicode="," horiz-adv-x="270" 
d="M65 -116l52 112h-56v127h145v-129l-61 -137z" />
    <glyph glyph-name="hyphen" unicode="-" horiz-adv-x="469" 
d="M415 399v-84h-366v84h366z" />
    <glyph glyph-name="period" unicode="." horiz-adv-x="270" 
d="M65 -4v136h136v-136h-136z" />
    <glyph glyph-name="slash" unicode="/" horiz-adv-x="510" 
d="M134 -40h-109l344 747h110z" />
    <glyph glyph-name="zero" unicode="0" horiz-adv-x="569" 
d="M522 335q0 -65 -15 -123.5t-44.5 -103t-74 -71t-103.5 -26.5q-57 0 -101.5 25t-75.5 69t-47.5 103t-16.5 127q0 75 15.5 136t46.5 104t77 66t106 23q61 0 105 -25t72.5 -69.5t42 -104.5t13.5 -130zM417 336q0 35 -5 78t-19.5 81t-40 63.5t-67.5 25.5q-39 0 -64 -25.5
t-40 -63.5t-20.5 -81t-5.5 -78q0 -33 6 -75t21 -78.5t40 -61.5t63 -25q34 0 59 17.5t41 49.5t24 76t8 97z" />
    <glyph glyph-name="one" unicode="1" horiz-adv-x="327" 
d="M232 659v-652h-110v573h-101v79h211z" />
    <glyph glyph-name="two" unicode="2" horiz-adv-x="519" 
d="M91 3v43l210 298q53 77 52 140q0 31 -7.5 52t-20.5 34t-30 18.5t-35 5.5q-19 0 -39 -8t-36.5 -30t-27.5 -61.5t-11 -101.5h-111q0 140 59 209t168 69q39 0 75 -11.5t64 -35t44.5 -59t16.5 -84.5q0 -48 -17 -90t-46 -81l-163 -228h272v-79h-417z" />
    <glyph glyph-name="three" unicode="3" horiz-adv-x="537" 
d="M264 394q31 0 50 9.5t29.5 24t14.5 31.5t4 33q0 31 -7.5 51.5t-20.5 33t-29.5 17.5t-34.5 5q-20 0 -39 -7.5t-33.5 -24.5t-24 -45.5t-10.5 -71.5h-108q0 50 13.5 91.5t40.5 71t67.5 46t94.5 16.5q39 0 75.5 -10.5t64.5 -32.5t44.5 -54.5t16.5 -77.5q0 -18 -6.5 -40
t-20.5 -42.5t-35.5 -37t-50.5 -23.5q62 -14 98.5 -61t36.5 -113q0 -48 -19 -84t-50 -60t-72 -36t-84 -12q-119 0 -176.5 60t-57.5 171h105q1 -48 13.5 -78.5t31.5 -47t41.5 -22.5t44.5 -6t43 7t37 21t26 34.5t10 48.5q0 64 -30 100t-99 36h-53v79h59z" />
    <glyph glyph-name="four" unicode="4" horiz-adv-x="557" 
d="M435 212h98v-80h-98v-130h-106l-1 130h-291v80l286 453h112v-453zM136 212h192v305z" />
    <glyph glyph-name="five" unicode="5" horiz-adv-x="514" 
d="M440 589h-260v-175h43q130 0 191 -50.5t61 -160.5q0 -50 -16 -89t-43.5 -66.5t-65.5 -42t-81 -14.5q-119 0 -174 60t-55 171h107q0 -48 10.5 -78.5t27.5 -47t38.5 -22.5t43.5 -6q20 0 38.5 7t32 23t21.5 41t8 60q0 73 -41.5 104.5t-111.5 31.5h-145v254h-47v80h418v-80z
" />
    <glyph glyph-name="six" unicode="6" horiz-adv-x="556" 
d="M358 697q-55 -67 -92.5 -124.5t-65.5 -124.5q13 9 29.5 14t33 7.5t30.5 3t23 -0.5q51 -4 87.5 -25t60.5 -53.5t35.5 -74.5t11.5 -88q0 -45 -14 -88t-43 -76.5t-73 -54t-104 -20.5q-57 0 -101 19t-74 53.5t-45.5 82.5t-15.5 107q0 65 22 132.5t56 130.5t75.5 118.5
t79.5 96.5zM405 239q0 28 -5.5 55.5t-20 49.5t-39 36t-63.5 14q-36 0 -60.5 -14t-40 -36t-22 -49.5t-6.5 -55.5q0 -81 35 -122t94 -41q128 0 128 163z" />
    <glyph glyph-name="seven" unicode="7" horiz-adv-x="484" 
d="M354 659q24 0 41.5 -5t27 -17t11.5 -32.5t-6 -51.5l-142 -555h-110l148 582h-323v79h353z" />
    <glyph glyph-name="eight" unicode="8" horiz-adv-x="537" 
d="M268 62q26 0 49.5 6.5t41 20.5t27.5 36.5t10 54.5q0 64 -34.5 99t-93.5 35q-55 0 -92 -35t-37 -99q0 -32 10.5 -54.5t28 -36.5t41 -20.5t49.5 -6.5zM268 394q31 0 51 11.5t32 28t16.5 35.5t4.5 35q0 28 -9.5 47t-24.5 30.5t-33.5 16.5t-36.5 5t-37 -5t-34 -16.5
t-24.5 -30.5t-9.5 -47q0 -16 5 -35t17 -35.5t32 -28t51 -11.5zM268 -16q-51 0 -94.5 12t-75 36.5t-49.5 61.5t-18 87q0 33 9.5 62t27 52t42.5 38.5t56 22.5q-29 7 -50 24t-35 38t-20.5 44t-6.5 41q0 45 16 78.5t44.5 55.5t67.5 32.5t86 10.5q46 0 85.5 -10.5t67.5 -32.5
t44 -55.5t16 -78.5q0 -18 -6.5 -41t-20.5 -44t-35 -38t-50 -24q61 -14 98 -61.5t37 -113.5q0 -50 -18 -87t-49.5 -61.5t-74.5 -36.5t-94 -12z" />
    <glyph glyph-name="nine" unicode="9" horiz-adv-x="556" 
d="M193 -18q28 33 51 63.5t42 60.5t35.5 61t30.5 64q-13 -9 -29.5 -14t-33 -7.5t-31 -3t-23.5 0.5q-50 4 -86.5 25t-60.5 53.5t-35.5 74.5t-11.5 88q0 45 14 88t43 76.5t72.5 54t103.5 20.5q57 0 101.5 -19t74.5 -53.5t45.5 -83t15.5 -107.5q0 -65 -22 -132t-56.5 -130
t-75.5 -118.5t-80 -96.5zM146 440q0 -28 5.5 -55.5t20 -49.5t39.5 -36t63 -14q36 0 61 14t40 36t21.5 49.5t6.5 55.5q0 80 -34.5 121.5t-94.5 41.5q-128 0 -128 -163z" />
    <glyph glyph-name="colon" unicode=":" horiz-adv-x="294" 
d="M80 437v137h136v-137h-136zM80 88v137h136v-137h-136z" />
    <glyph glyph-name="semicolon" unicode=";" horiz-adv-x="294" 
d="M80 437v137h136v-137h-136zM75 -13l52 111h-47v127h136v-129l-62 -136z" />
    <glyph glyph-name="less" unicode="&#x3c;" horiz-adv-x="453" 
d="M185 320l225 -421h-119l-225 421l225 406h119z" />
    <glyph glyph-name="equal" unicode="=" horiz-adv-x="469" 
d="M415 501v-89h-366v89h366zM415 285v-89h-366v89h366z" />
    <glyph glyph-name="greater" unicode="&#x3e;" horiz-adv-x="453" 
d="M39 726h119l225 -406l-225 -421h-119l226 421z" />
    <glyph glyph-name="question" unicode="?" horiz-adv-x="504" 
d="M448 562q-1 -35 -9 -61.5t-21 -47.5t-28.5 -39t-31.5 -35q-14 -15 -27.5 -32t-23.5 -37t-16 -44.5t-6 -55.5h-106q-1 34 6.5 62.5t20 52.5t28 45.5t31.5 41.5q26 34 47.5 70t22.5 85q0 29 -9.5 48t-25 30t-35.5 15t-41 4q-41 0 -86.5 -12.5t-79.5 -32.5l-13 73
q41 23 94 36.5t107 13.5q96 0 150 -42.5t52 -137.5zM288 114h-111v-118h111v118z" />
    <glyph glyph-name="at" unicode="@" horiz-adv-x="750" 
d="M709 390q-1 -70 -25.5 -116.5t-60.5 -74.5q-36 -27 -70.5 -38.5t-56.5 -11.5q-20 0 -33 10.5t-13 32.5h-1q-17 -24 -47.5 -40t-68.5 -16q-59 1 -97.5 41.5t-39.5 109.5q0 61 24 111t65.5 79t94.5 30q66 0 106 -57l11 44h77l-55 -243q-2 -17 5.5 -23t18.5 -2
q39 11 65.5 49t28.5 118q-1 78 -38 125q-18 24 -41.5 40.5t-50 27t-54.5 15t-56 4.5q-79 -2 -140 -42q-61 -42 -95.5 -108t-35.5 -150q2 -87 33 -142q33 -56 89.5 -82t126.5 -25q72 0 131 21t105 61l34 -41q-51 -49 -117.5 -73.5t-152.5 -24.5q-84 -2 -158 25
q-38 13 -69.5 35.5t-54.5 57t-36.5 81.5t-14.5 107q2 102 46 181q47 80 126.5 127t182.5 48q79 0 147 -29q71 -28 117 -88t48 -154zM457 350q0 45 -18 68.5t-49 24.5q-32 -1 -54 -22q-21 -23 -33 -56.5t-12 -67.5q0 -44 16 -70t48 -27q32 2 52 22q23 23 36.5 57t13.5 71z
" />
    <glyph glyph-name="A" unicode="A" horiz-adv-x="591" 
d="M404 164h-234l-44 -162l-107 17l182 630l103 4l273 -624l-102 -34zM193 248h176l-106 256z" />
    <glyph glyph-name="B" unicode="B" horiz-adv-x="553" 
d="M70 657h221q39 0 75.5 -9.5t64 -29.5t44 -51.5t16.5 -76.5q0 -18 -6.5 -40t-20.5 -42.5t-35 -37t-50 -23.5q62 -13 98.5 -55.5t36.5 -108.5q0 -48 -19 -84t-50.5 -59.5t-72.5 -35.5t-84 -12h-218v665zM182 305v-236h108q22 0 43 7t37.5 20.5t26 34t9.5 48.5q0 64 -30 95
t-99 31h-95zM182 580v-196h101q31 0 50 9.5t30 24t15 31.5t4 33q0 31 -7.5 50.5t-20.5 30t-30 14t-35 3.5h-107z" />
    <glyph glyph-name="C" unicode="C" horiz-adv-x="544" 
d="M477 121q-30 -55 -77.5 -87t-114.5 -32q-57 0 -101.5 25t-75.5 68.5t-47.5 102.5t-16.5 127q0 75 15.5 136t46.5 104t77 66t106 23q83 0 135 -45.5t76 -121.5l-97 -37q-6 25 -15.5 47.5t-24 39.5t-34 27t-44.5 10q-39 0 -64 -25.5t-40 -63t-20.5 -81t-5.5 -78.5
q0 -33 6 -74.5t21 -78t40 -61.5t63 -25q37 0 62.5 20t42.5 57z" />
    <glyph glyph-name="D" unicode="D" horiz-adv-x="577" 
d="M70 -8v665h192q80 0 132.5 -29.5t83.5 -77t43.5 -106.5t12.5 -119q0 -65 -15 -125t-48 -106.5t-85 -74t-127 -27.5h-189zM182 580v-511h71q49 0 81.5 20t52.5 55t28.5 81.5t8.5 99.5q0 42 -7 87t-25.5 82.5t-52 61.5t-86.5 24h-71z" />
    <glyph glyph-name="E" unicode="E" horiz-adv-x="492" 
d="M450 657v-79h-268v-246h249v-79h-249v-182h278v-79h-390v665h380z" />
    <glyph glyph-name="F" unicode="F" horiz-adv-x="492" 
d="M450 657v-79h-268v-266h249v-79h-249v-241h-112v665h380z" />
    <glyph glyph-name="G" unicode="G" horiz-adv-x="596" 
d="M569 353v-79h-53v-285h-112v54q-25 -20 -54.5 -30.5t-64.5 -10.5q-57 0 -101.5 25t-75.5 68.5t-47.5 102.5t-16.5 127q0 75 17.5 136t50.5 104t80.5 66t107.5 23q37 0 72 -10.5t64.5 -30.5t52.5 -49.5t36 -66.5l-78 -41q-9 24 -25 45t-35.5 37.5t-41.5 26t-43 9.5
q-47 0 -76 -25.5t-45 -63t-21 -81t-5 -78.5q0 -33 6 -74.5t21 -78t40 -61.5t63 -25q30 0 63.5 13.5t55.5 39.5v134h-117v79h282z" />
    <glyph glyph-name="H" unicode="H" horiz-adv-x="598" 
d="M526 -8h-111v261h-233v-261h-112v665h112v-325h233v325h111v-665z" />
    <glyph glyph-name="I" unicode="I" horiz-adv-x="313" 
d="M96 71v507h-74v79h260v-79h-75v-507h85v-79h-270v79h74z" />
    <glyph glyph-name="J" unicode="J" horiz-adv-x="479" 
d="M406 657v-465q0 -50 -16 -87.5t-43.5 -62.5t-65.5 -38t-81 -13q-51 0 -85 15.5t-55 45t-30 72.5t-9 98h110q0 -84 16 -119t51 -35q21 0 38.5 5.5t30.5 19t20.5 37t7.5 60.5v467h111z" />
    <glyph glyph-name="K" unicode="K" horiz-adv-x="511" 
d="M274 309l223 -299l-85 -47l-230 311v-282h-112v665h112v-311l209 303l91 -39z" />
    <glyph glyph-name="L" unicode="L" horiz-adv-x="475" 
d="M182 71h278v-79h-390v665h112v-586z" />
    <glyph glyph-name="M" unicode="M" horiz-adv-x="681" 
d="M614 -8h-111v473l-121 -294h-72l-128 284v-463h-112v665h112l166 -374l155 374h111v-665z" />
    <glyph glyph-name="N" unicode="N" horiz-adv-x="598" 
d="M526 -8h-111l-233 488v-488h-112v665h112l233 -488v488h111v-665z" />
    <glyph glyph-name="O" unicode="O" horiz-adv-x="569" 
d="M285 -8q-57 0 -101.5 26.5t-75.5 72t-47.5 106t-16.5 128.5q0 75 15 137.5t45 107.5t75.5 69.5t105.5 24.5t105.5 -24.5t75.5 -69.5t45 -107.5t15 -137.5q0 -68 -16.5 -128.5t-47 -106t-75.5 -72t-102 -26.5zM285 584q-39 0 -64 -27t-40 -66.5t-20.5 -84.5t-5.5 -80
q0 -33 6 -76.5t21 -81.5t40 -64.5t63 -26.5t63 26.5t40 64.5t21 81.5t6 76.5q0 35 -5.5 80t-20 84.5t-40 66.5t-64.5 27z" />
    <glyph glyph-name="P" unicode="P" horiz-adv-x="541" 
d="M182 187v-195h-112v665h162q80 0 133 -14t84 -43.5t43.5 -73.5t12.5 -104q0 -65 -15 -109.5t-48 -72.5t-85.5 -40.5t-127.5 -12.5h-47zM182 580v-316h42q49 0 81.5 5t52.5 21.5t28.5 47.5t8.5 84q0 42 -7 72t-26 49t-52.5 28t-85.5 9h-42z" />
    <glyph glyph-name="Q" unicode="Q" horiz-adv-x="569" 
d="M485 -37l-91 -43l-40 83q-33 -11 -69 -11q-57 0 -101.5 26.5t-75.5 72t-47.5 106t-16.5 128.5q0 75 15 137.5t45 107.5t75.5 69.5t105.5 24.5t105.5 -24.5t75.5 -69.5t45 -107.5t15 -137.5q0 -81 -22.5 -150t-65.5 -115zM285 584q-39 0 -64 -27t-40 -66.5t-20.5 -84.5
t-5.5 -80q0 -33 6 -76.5t21 -81.5t40 -64.5t63 -26.5q14 0 31 5l-51 107l91 43l31 -66q16 38 22 82t6 78q0 35 -5.5 80t-20 84.5t-40 66.5t-64.5 27z" />
    <glyph glyph-name="R" unicode="R" horiz-adv-x="546" 
d="M182 187v-195h-112v665h162q80 0 133 -14t84 -43.5t43.5 -73.5t12.5 -104q0 -76 -21 -125t-68 -75l116 -221l-98 -52l-127 242q-17 -2 -37 -3t-41 -1h-47zM182 580v-316h42q49 0 81.5 5t52.5 21.5t28.5 47.5t8.5 84q0 42 -7 72t-26 49t-52.5 28t-85.5 9h-42z" />
    <glyph glyph-name="S" unicode="S" horiz-adv-x="478" 
d="M155 323q-21 15 -40.5 32.5t-33.5 39.5t-22.5 48.5t-8.5 58.5q0 89 63 136.5t169 47.5q39 0 75 -8t75 -26l-29 -84q-28 15 -57 21.5t-61 6.5q-67 0 -98 -24t-31 -71q0 -20 12.5 -46.5t44.5 -47.5l115 -77q17 -12 35.5 -27.5t33.5 -36.5t25 -48.5t10 -63.5
q0 -82 -49.5 -126t-132.5 -44q-60 0 -112 18.5t-90 44.5l35 82q35 -25 73.5 -40t78.5 -15q38 0 60.5 14.5t27.5 50.5q5 32 -8.5 58t-41.5 46z" />
    <glyph glyph-name="T" unicode="T" horiz-adv-x="485" 
d="M472 657v-79h-171v-586h-112v586h-174v79h457z" />
    <glyph glyph-name="U" unicode="U" horiz-adv-x="569" 
d="M504 659v-373q0 -68 -13.5 -122.5t-40.5 -92.5t-69 -58.5t-99 -20.5t-98.5 20.5t-69 58.5t-41 92.5t-13.5 122.5v374h112v-373q0 -33 3 -70t14 -68t33 -51.5t60 -20.5t60 20.5t33.5 51.5t14.5 68t3 70v372h111z" />
    <glyph glyph-name="V" unicode="V" horiz-adv-x="591" 
d="M263 153l212 510l102 -34l-273 -625l-103 4l-182 630l107 18z" />
    <glyph glyph-name="W" unicode="W" horiz-adv-x="787" 
d="M570 161l95 502l102 -34l-147 -625l-102 4l-119 415l-95 -419l-103 4l-182 630l106 18l129 -495l104 480l70 15z" />
    <glyph glyph-name="X" unicode="X" horiz-adv-x="507" 
d="M268 199l-106 -207l-89 40l135 263l-193 309l88 43l156 -251l140 271l88 -43l-167 -325l167 -267l-89 -40z" />
    <glyph glyph-name="Y" unicode="Y" horiz-adv-x="523" 
d="M286 -15h-111v256l-162 396l98 39l127 -317l175 316l96 -48l-223 -395v-247z" />
    <glyph glyph-name="Z" unicode="Z" horiz-adv-x="506" 
d="M343 578h-307v79h428v-79l-307 -507h317v-79h-438v79z" />
    <glyph glyph-name="bracketleft" unicode="[" horiz-adv-x="361" 
d="M321 -127h-220v868h220v-79h-110v-709h110v-80z" />
    <glyph glyph-name="backslash" unicode="\" horiz-adv-x="854" 
d="M694 275l-71 -259l-118 6l-50 253h-79l-53 -259l-111 6l-66 253h-125v79h104l-69 275l118 20l54 -295h85l45 256l126 10l41 -266h90l67 303l111 -30l-77 -273h114l1 -79h-137zM597 275h-59l25 -161zM302 275h-59l31 -161zM440 354l-23 126l-27 -126h50z" />
    <glyph glyph-name="bracketright" unicode="]" horiz-adv-x="361" 
d="M40 -47h110v709h-110v79h221v-868h-221v80z" />
    <glyph glyph-name="asciicircum" unicode="^" horiz-adv-x="504" 
d="M474 467l-73 -60l-149 176l-150 -176l-73 60l223 253z" />
    <glyph glyph-name="underscore" unicode="_" horiz-adv-x="438" 
d="M405 -23v-84h-366v84h366z" />
    <glyph glyph-name="grave" unicode="`" horiz-adv-x="293" 
d="M260 526l-104 -42l-94 232l102 42z" />
    <glyph glyph-name="a" unicode="a" horiz-adv-x="525" 
d="M462 -10h-107v41q-51 -40 -120 -40q-41 0 -77 11.5t-62 36.5t-41 63t-15 91q0 50 14.5 96.5t40.5 82t61.5 57t78.5 21.5q68 0 120 -40v48h107v-468zM355 222q0 41 -8.5 69.5t-23 46t-33.5 25.5t-40 8q-24 0 -42.5 -16t-30.5 -41.5t-18.5 -57.5t-6.5 -63q0 -63 25 -92.5
t73 -29.5q20 0 38.5 7t33 23.5t23.5 43.5t10 68v9z" />
    <glyph glyph-name="b" unicode="b" horiz-adv-x="537" 
d="M69 666h107v-257q50 41 120 41q43 0 78.5 -21.5t61.5 -57t40.5 -82t14.5 -96.5q0 -53 -15 -91t-41.5 -63t-62 -36.5t-76.5 -11.5q-71 0 -120 41v-42h-107v676zM176 222q0 -44 9 -73t23.5 -46t33.5 -24.5t39 -7.5q49 0 73.5 29.5t24.5 92.5q0 31 -6 63t-18.5 57.5
t-31 41.5t-42.5 16q-20 0 -38.5 -7.5t-33 -24t-23.5 -43.5t-10 -66v-8z" />
    <glyph glyph-name="c" unicode="c" horiz-adv-x="464" 
d="M435 142q-18 -66 -65 -108.5t-125 -42.5q-45 0 -82.5 18t-65 50t-42.5 76t-15 97q0 50 14.5 93.5t41.5 75.5t64.5 50t84.5 18q59 0 106 -30t72 -87l-69 -52q-19 42 -45.5 66t-58.5 24q-24 0 -42.5 -13t-30.5 -35t-18.5 -50.5t-6.5 -59.5q0 -32 6.5 -61t18.5 -51
t30.5 -35.5t42.5 -13.5q16 0 31 7.5t27 20.5t21 30.5t12 36.5z" />
    <glyph glyph-name="d" unicode="d" horiz-adv-x="523" 
d="M457 -10h-106v42q-50 -41 -121 -41q-41 0 -77 11.5t-62 36.5t-41 63t-15 91q0 50 14.5 96.5t40.5 82t61.5 57t78.5 21.5q69 0 121 -41v257h106v-676zM351 222q0 41 -9 69.5t-23.5 46t-33.5 25.5t-40 8q-24 0 -42.5 -16t-30.5 -41.5t-18.5 -57.5t-6.5 -63q0 -63 25 -92.5
t73 -29.5q20 0 38.5 7t33 23.5t24 43.5t10.5 68v9z" />
    <glyph glyph-name="e" unicode="e" horiz-adv-x="503" 
d="M464 142q-9 -33 -28.5 -60.5t-47 -48t-61.5 -31.5t-72 -11q-45 0 -84 18t-68.5 50t-46 76t-16.5 97q0 50 16 93.5t45 75.5t68 50t86 18q48 0 86.5 -18t65.5 -48.5t41.5 -70t14.5 -82.5v-37h-315q5 -61 32 -101.5t80 -40.5q19 0 37.5 7.5t33.5 20.5t25.5 30.5t13.5 36.5z
M260 390q-39 0 -67.5 -26t-39.5 -71h210q-3 18 -11.5 35.5t-22 31t-31 22t-38.5 8.5z" />
    <glyph glyph-name="f" unicode="f" horiz-adv-x="448" 
d="M133 393v144q0 19 4 42t17 43.5t36.5 34.5t61.5 14q32 0 76.5 -12.5t104.5 -41.5l-31 -83q-17 6 -34.5 13.5t-33.5 14t-30.5 11t-26.5 4.5q-15 0 -24 -9.5t-9 -33.5v-141h171v-84h-171v-313h-111v313h-104v84h104z" />
    <glyph glyph-name="g" unicode="g" horiz-adv-x="528" 
d="M104 -68q51 -19 102.5 -27.5t108.5 -8.5q19 0 29.5 9.5t10.5 33.5v92q-51 -40 -120 -40q-41 0 -77 11.5t-62 36.5t-41 63t-15 91q0 50 14.5 96.5t40.5 82t61.5 57t78.5 21.5q68 0 120 -40v48h107v-522q0 -19 -6.5 -42t-22 -43.5t-41.5 -34t-64 -13.5q-70 0 -129 10
t-125 34zM355 230q-1 39 -10 66t-23.5 43.5t-33 24t-38.5 7.5q-24 0 -42.5 -16t-30.5 -41.5t-18.5 -57.5t-6.5 -63q0 -63 25 -92.5t73 -29.5q21 0 40 7.5t33.5 24.5t23 46t8.5 73v8z" />
    <glyph glyph-name="h" unicode="h" horiz-adv-x="523" 
d="M180 443q38 8 75.5 11.5t80.5 3.5q38 0 63.5 -14t41.5 -34t22.5 -43t6.5 -42v-356h-107v353q0 24 -10.5 33.5t-29.5 9.5q-78 0 -143 -16v-357h-112v688h112v-237z" />
    <glyph glyph-name="i" unicode="i" horiz-adv-x="240" 
d="M180 -8h-112v456h112v-456zM180 523h-112v144h112v-144z" />
    <glyph glyph-name="j" unicode="j" horiz-adv-x="322" 
d="M258 513h-112v144h112v-144zM102 12q27 0 35.5 13.5t8.5 37.5v375h112v-389q0 -54 -25.5 -85t-91.5 -31h-126v79h87z" />
    <glyph glyph-name="k" unicode="k" horiz-adv-x="472" 
d="M291 223l158 -203l-81 -63l-186 238v-203h-112v665h112v-403l209 207l67 -72z" />
    <glyph glyph-name="l" unicode="l" horiz-adv-x="240" 
d="M178 -8h-112v688h112v-688z" />
    <glyph glyph-name="m" unicode="m" horiz-adv-x="755" 
d="M170 429q28 14 58 21.5t69 7.5q37 0 61.5 -13t40.5 -32q38 20 74.5 32.5t86.5 12.5q38 0 63.5 -14t41 -34t22 -43t6.5 -42v-334h-106v331q0 24 -11 33.5t-29 9.5q-32 0 -61 -9t-56 -23q0 -2 0.5 -4t0.5 -4v-334h-107v331q0 24 -10.5 33.5t-29.5 9.5q-31 0 -59 -8.5
t-55 -22.5v-342h-111v491h111v-54z" />
    <glyph glyph-name="n" unicode="n" horiz-adv-x="523" 
d="M170 443q38 8 75.5 11.5t80.5 3.5q38 0 64 -14t41.5 -34t22 -43t6.5 -42v-334h-106v331q0 24 -11 33.5t-30 9.5q-78 0 -143 -16v-357h-111v501h111v-50z" />
    <glyph glyph-name="o" unicode="o" horiz-adv-x="514" 
d="M474 222q0 -51 -15 -93.5t-43 -73t-68.5 -47.5t-92.5 -17q-49 0 -88.5 16.5t-67.5 46.5t-43.5 72.5t-15.5 95.5q0 50 14.5 92t42.5 72t68 47t90 17q49 0 89 -15.5t69 -44.5t45 -71.5t16 -96.5zM361 222q0 30 -5.5 57t-17.5 47.5t-31 32.5t-47 12t-48 -11.5t-33.5 -32
t-20 -47.5t-6.5 -58q0 -32 6.5 -59.5t20 -47.5t33.5 -32t48 -12t47 11.5t31 31.5t17.5 47.5t5.5 60.5z" />
    <glyph glyph-name="p" unicode="p" horiz-adv-x="537" 
d="M69 463h107v-54q50 41 120 41q43 0 78.5 -21.5t61.5 -57t40.5 -82t14.5 -96.5q0 -53 -15 -91t-41.5 -63t-62 -36.5t-76.5 -11.5q-71 0 -120 41v-230h-107v661zM176 222q0 -44 9 -73t23.5 -46t33.5 -24.5t39 -7.5q49 0 73.5 29.5t24.5 92.5q0 31 -6 63t-18.5 57.5
t-31 41.5t-42.5 16q-20 0 -38.5 -7.5t-33 -24t-23.5 -43.5t-10 -66v-8z" />
    <glyph glyph-name="q" unicode="q" horiz-adv-x="537" 
d="M462 -198h-107v229q-51 -40 -120 -40q-41 0 -77 11.5t-62 36.5t-41 63t-15 91q0 50 14.5 96.5t40.5 82t61.5 57t78.5 21.5q68 0 120 -40v53h107v-661zM355 222q0 41 -8.5 69.5t-23 46t-33.5 25.5t-40 8q-24 0 -42.5 -16t-30.5 -41.5t-18.5 -57.5t-6.5 -63q0 -63 25 -92.5
t73 -29.5q20 0 38.5 7t33 23.5t23.5 43.5t10 68v9z" />
    <glyph glyph-name="r" unicode="r" horiz-adv-x="440" 
d="M314 274v38q0 24 -10.5 33.5t-29.5 9.5q-26 0 -48.5 -5t-45.5 -19v-339h-112v473h112v-43q49 26 107 26q38 0 64 -14t41.5 -34t22 -43t6.5 -42v-41h-107z" />
    <glyph glyph-name="s" unicode="s" horiz-adv-x="440" 
d="M54 338q0 63 47 96t144 33q79 0 150 -27l-26 -82q-26 10 -54 15.5t-56 5.5q-46 0 -69.5 -6t-23.5 -29q0 -12 8 -21t30 -20l102 -48q49 -23 76 -55.5t27 -74.5q0 -38 -14.5 -64t-40 -42t-60 -23t-74.5 -7q-20 0 -44.5 2.5t-51 7.5t-53 13t-49.5 19l33 84
q40 -20 81.5 -30.5t90.5 -10.5q35 0 52 10.5t17 26.5q0 20 -10.5 33t-37.5 27l-91 45q-45 23 -74 50.5t-29 71.5z" />
    <glyph glyph-name="t" unicode="t" horiz-adv-x="440" 
d="M20 343v84h103v204h111v-204h171v-84h-171v-220q0 -25 9 -34t25 -9q23 0 56.5 15t68.5 28l30 -83q-60 -29 -104.5 -41.5t-76.5 -12.5q-38 0 -61.5 14t-36 34.5t-17 43.5t-4.5 42v223h-103z" />
    <glyph glyph-name="u" unicode="u" horiz-adv-x="525" 
d="M349 28q-38 -14 -76 -22.5t-81 -8.5q-38 0 -63.5 13.5t-41 34t-22 43.5t-6.5 41v325h106v-322q0 -24 11 -33.5t29 -9.5q38 0 73.5 9t70.5 21v334h111v-462h-111v37z" />
    <glyph glyph-name="v" unicode="v" horiz-adv-x="528" 
d="M241 125l175 345l96 -49l-227 -430l-102 4l-167 437l98 39z" />
    <glyph glyph-name="w" unicode="w" horiz-adv-x="703" 
d="M508 118l79 334l102 -28l-130 -429h-103l-96 258l-81 -258h-102l-167 437l99 30l123 -355l80 344l78 7z" />
    <glyph glyph-name="x" unicode="x" horiz-adv-x="450" 
d="M225 146l-131 -164l-76 58l148 185l-148 198l79 57l131 -176l126 158l80 -56l-146 -182l140 -187l-78 -57z" />
    <glyph glyph-name="y" unicode="y" horiz-adv-x="501" 
d="M135 -192l-85 43l148 255l-187 311l79 56l163 -272l154 264l80 -55z" />
    <glyph glyph-name="z" unicode="z" horiz-adv-x="497" 
d="M308 378h-268v79h408v-79l-267 -307h277v-79h-418v79z" />
    <glyph glyph-name="braceleft" unicode="{" horiz-adv-x="410" 
d="M371 -127h-68q-29 0 -54.5 7.5t-45 23.5t-31 40.5t-12.5 57.5v171q-1 51 -27 71.5t-62 19.5v104q36 0 62 20t27 71v171q1 34 12.5 58.5t31 40.5t45 23.5t54.5 7.5h68v-79h-59q-41 -1 -41 -48v-198q-2 -47 -20 -70q-17 -26 -42.5 -36t-46.5 -12v-2q11 -1 22 -4.5t24 -8.5
q26 -9 44 -34.5t19 -70.5v-198q0 -46 41 -46h59v-80z" />
    <glyph glyph-name="bar" unicode="|" horiz-adv-x="296" 
d="M204 -134h-110v881h110v-881z" />
    <glyph glyph-name="braceright" unicode="}" horiz-adv-x="410" 
d="M40 -47h60q41 0 41 46v198q1 45 18.5 70.5t43.5 34.5q13 5 24 8.5t22 4.5v2q-21 2 -46 12t-43 36q-10 12 -14 29.5t-5 40.5v198q0 47 -41 48h-60v79h68q29 0 54.5 -7.5t45 -23.5t31 -40.5t12.5 -58.5v-171q1 -51 27 -71t62 -20v-104q-36 1 -62 -19.5t-27 -71.5v-171
q-1 -33 -12.5 -57.5t-31 -40.5t-45 -23.5t-54.5 -7.5h-68v80z" />
    <glyph glyph-name="asciitilde" unicode="~" horiz-adv-x="640" 
d="M569 343q-9 -16 -22.5 -31t-31 -26.5t-38.5 -18.5t-44 -7q-51 1 -83 18q-16 8 -30.5 16.5t-30 16t-33 12.5t-38.5 6q-35 -1 -63.5 -20.5t-45.5 -46.5l-40 85q19 32 55 57t82 26q52 -2 83 -17q16 -9 30.5 -17.5t30 -15.5t33 -12t39.5 -6q35 1 63.5 20t43.5 46z" />
    <glyph glyph-name="exclamdown" unicode="&#xa1;" horiz-adv-x="302" 
d="M134 -67q-10 0 -15 0.5t-7.5 3t-2.5 7.5v15l11 517q0 17 3 19.5t20 2.5h16q16 0 18.5 -2.5t3.5 -18.5l12 -518q0 -10 -0.5 -15t-2.5 -7.5t-7 -3t-15 -0.5h-34zM199 635q0 -20 -14 -34.5t-34 -14.5t-34.5 14.5t-14.5 34.5t14.5 34t34.5 14t34 -14t14 -34z" />
    <glyph glyph-name="currency" unicode="&#xa4;" horiz-adv-x="838" 
d="M687 300q0 57 -21.5 107t-59 87.5t-87.5 59t-107 21.5t-107 -21.5t-87.5 -59t-59 -87.5t-21.5 -107t21.5 -107t59 -87.5t87.5 -59t107 -21.5t107 21.5t87.5 59t59 87.5t21.5 107zM674 485q28 -39 43.5 -86t15.5 -99q0 -57 -18 -106t-50 -91l136 -123l-30 -35l-138 124
q-43 -42 -100 -66t-121 -24q-63 0 -117 22t-97 60l-131 -116l-30 35l128 114q-35 42 -54.5 94t-19.5 112q0 54 16.5 102t46.5 90l-118 107l34 33l116 -104q45 45 102.5 69t123.5 24q69 0 128.5 -26.5t104.5 -74.5l124 112l33 -33z" />
    <glyph glyph-name="section" unicode="&#xa7;" horiz-adv-x="346" 
d="M237 316q-35 45 -62 64.5t-56 19.5q-21 0 -30 -12.5t-8.5 -31t8.5 -39.5t21 -37q33 -42 61 -61.5t47 -19.5q25 0 35.5 13t10.5 31.5t-8 38.5t-19 34zM311 254q0 -42 -20 -64t-58 -21q29 -32 42 -65.5t13 -72.5q0 -63 -33.5 -99.5t-88.5 -36.5q-52 0 -86.5 28.5
t-34.5 76.5h56q0 -37 19 -55t45 -18q29 0 49 20t20 63q0 35 -19.5 72.5t-49.5 64.5q-24 22 -47.5 45.5t-41.5 47.5t-29.5 49.5t-11.5 51.5q0 49 23.5 72t69.5 16q-32 29 -51.5 69.5t-19.5 83.5q0 66 31.5 96.5t85.5 30.5t84 -29t30 -71h-55q0 32 -14.5 53t-48.5 21
q-30 0 -49.5 -20t-19.5 -58q0 -42 25.5 -78.5t63.5 -72.5q23 -22 45 -46t39 -49t27 -51.5t10 -53.5z" />
    <glyph glyph-name="dieresis" unicode="&#xa8;" horiz-adv-x="540" 
d="M193 658q0 -26 -17 -42t-43 -16q-22 0 -38.5 16t-16.5 42q0 23 16.5 40t38.5 17q26 0 43 -17t17 -40zM458 658q0 -26 -17 -42t-39 -16q-26 0 -42.5 16t-16.5 42q0 23 16.5 40t42.5 17q22 0 39 -17t17 -40z" />
    <glyph glyph-name="ordfeminine" unicode="&#xaa;" horiz-adv-x="541" 
d="M333 564q-4 -7 -14 -12.5t-20 -7.5q-35 -7 -61.5 -13.5t-41.5 -13.5q-19 -8 -26.5 -21t-7.5 -31q0 -28 18.5 -40.5t49.5 -12.5q46 0 74.5 25.5t28.5 72.5v54zM98 281v48h343v-48h-343zM411 390q-7 -2 -13.5 -2.5t-14.5 -0.5q-24 0 -36.5 15.5t-12.5 38.5
q-6 -26 -33.5 -45t-77.5 -19q-43 0 -73 21.5t-30 65.5q0 31 11.5 50t35.5 31q23 11 53 19t68 14q20 4 32.5 11.5t12.5 26.5q0 33 -21 47.5t-59 14.5q-32 0 -53.5 -16t-23.5 -55h-44q2 56 38 81.5t88 25.5q25 0 46 -4t35 -19q18 -10 27 -30t9 -51v-167q0 -23 23 -23
q3 0 6 0.5t7 1.5v-32z" />
    <glyph glyph-name="uni00AD" unicode="&#xad;" horiz-adv-x="410" 
d="M57 282v57h292v-57h-292z" />
    <glyph glyph-name="degree" unicode="&#xb0;" horiz-adv-x="446" 
d="M300 614q0 32 -22.5 55t-54.5 23t-54.5 -23t-22.5 -55t22.5 -55t54.5 -23t54.5 23t22.5 55zM330 614q0 -22 -8.5 -41.5t-23 -34t-34 -23t-41.5 -8.5t-41.5 8.5t-34 23t-23 34t-8.5 41.5t8.5 41.5t23 34t34 23t41.5 8.5t41.5 -8.5t34 -23t23 -34t8.5 -41.5z" />
    <glyph glyph-name="plusminus" unicode="&#xb1;" horiz-adv-x="515" 
d="M203 470v148h112v-148h149v-84h-149v-161h-112v161h-154v84h154zM464 160v-84h-415v84h415z" />
    <glyph glyph-name="uni00B2" unicode="&#xb2;" horiz-adv-x="410" 
d="M281 666q0 -31 -16.5 -50.5t-43.5 -35.5q-24 -19 -39 -31t-19 -28h115v-28h-152q5 41 28 64.5t57 45.5q23 15 31.5 28.5t8.5 34.5q0 41 -43 41q-24 0 -35 -17t-11 -42h-31q0 35 21.5 59t56.5 24q34 0 53 -17t19 -48z" />
    <glyph glyph-name="uni00B3" unicode="&#xb3;" horiz-adv-x="428" 
d="M293 561q0 -32 -22 -51t-59 -19q-33 0 -57 20.5t-23 56.5h31q-1 -27 15 -40t34 -13q25 0 39 13.5t14 32.5q0 24 -12.5 33.5t-36.5 9.5h-15v27h15q19 0 30 9.5t11 30.5q0 17 -11 26.5t-33 9.5q-45 0 -46 -53h-30q0 32 21.5 54.5t53.5 22.5q34 0 54.5 -15.5t20.5 -44.5
q0 -22 -11.5 -35.5t-30.5 -16.5q19 -3 33.5 -18.5t14.5 -39.5z" />
    <glyph glyph-name="acute" unicode="&#xb4;" horiz-adv-x="324" 
d="M103 516h-25l81 211h87z" />
    <glyph glyph-name="paragraph" unicode="&#xb6;" horiz-adv-x="605" 
d="M470 -110v784h-124v-784h-54v442q-53 0 -92.5 14.5t-66 40t-39.5 60.5t-13 76t13 76t39.5 60.5t65.5 40t91 14.5h234v-824h-54z" />
    <glyph glyph-name="periodcentered" unicode="&#xb7;" horiz-adv-x="290" 
d="M202 331q0 -26 -17.5 -42t-42.5 -16q-22 0 -39.5 16t-17.5 42q0 23 17.5 40t39.5 17q25 0 42.5 -17t17.5 -40z" />
    <glyph glyph-name="cedilla" unicode="&#xb8;" horiz-adv-x="317" 
d="M256 -121q0 -39 -30.5 -58t-82.5 -19q-23 0 -46 8.5t-36 17.5l12 25q14 -9 31 -14t42 -5q26 0 43 11t17 31q0 21 -17.5 29t-45.5 8q-14 0 -22.5 -2.5t-15.5 -5.5l-7 4l40 103h32l-30 -77q11 5 22 8.5t28 3.5q29 0 47.5 -20.5t18.5 -47.5z" />
    <glyph glyph-name="uni00B9" unicode="&#xb9;" horiz-adv-x="405" 
d="M211 495v172h-47v20q24 2 36 11.5t15 29.5h26v-233h-30z" />
    <glyph glyph-name="ordmasculine" unicode="&#xba;" horiz-adv-x="541" 
d="M374 545q0 59 -29 95.5t-79 36.5q-48 0 -76 -36.5t-28 -95.5q0 -62 28 -97.5t76 -35.5q50 0 79 35.5t29 97.5zM98 281v48h343v-48h-343zM416 545q0 -39 -11.5 -70.5t-29.5 -52.5q-19 -24 -47.5 -35.5t-61.5 -11.5q-31 0 -59.5 11.5t-45.5 35.5q-22 21 -31.5 52.5
t-9.5 70.5q0 37 9.5 68t31.5 55q17 21 45.5 33.5t59.5 12.5q33 0 61.5 -12.5t47.5 -33.5q18 -24 29.5 -55t11.5 -68z" />
    <glyph glyph-name="onequarter" unicode="&#xbc;" horiz-adv-x="737" 
d="M547 182l-108 -157h108v157zM591 -17v-88h-44v88h-162v42l165 231h41v-231h61v-42h-61zM111 7l-28 25l540 561l27 -25zM178 345v248h-69v35q17 1 31.5 4t23.5 12q7 6 12.5 22t8.5 40h36v-361h-43z" />
    <glyph glyph-name="onehalf" unicode="&#xbd;" horiz-adv-x="705" 
d="M396 -108q1 33 11 55.5t25 41.5q18 17 39.5 32t42.5 30q16 9 26.5 19t23.5 20q14 14 20 27.5t6 31.5q0 32 -20.5 48.5t-47.5 16.5q-39 0 -56 -26t-17 -68h-43q-2 59 26 96.5t90 37.5q48 0 79.5 -25.5t31.5 -79.5q0 -25 -10 -46.5t-29 -39.5q-15 -17 -36 -31.5t-43 -27.5
q-18 -13 -39 -30t-29 -41h189v-41h-240zM92 7l-25 25l538 561l26 -25zM167 345v248h-73v35q21 1 33.5 4t23.5 12q9 6 13.5 22t7.5 40h37v-361h-42z" />
    <glyph glyph-name="threequarters" unicode="&#xbe;" horiz-adv-x="746" 
d="M552 180l-108 -156h108v156zM596 -18v-89h-44v89h-162v42l165 230h41v-230h61v-42h-61zM127 7l-26 25l538 561l28 -25zM321 453q0 -28 -11 -48.5t-26 -33.5q-19 -15 -41 -22.5t-44 -7.5q-57 0 -91.5 33t-29.5 95h43q-2 -42 18.5 -66t58.5 -24q32 0 56 19t24 52
q0 31 -21 48t-53 17h-34v40h34q20 0 40 14t20 41q0 30 -19.5 45t-46.5 15q-35 0 -54 -22.5t-18 -64.5h-42q0 56 29 91t85 35q19 0 38.5 -5.5t37.5 -18.5q15 -12 23.5 -29.5t8.5 -40.5q0 -26 -9.5 -46t-32.5 -30q28 -14 42.5 -35.5t14.5 -50.5z" />
    <glyph glyph-name="questiondown" unicode="&#xbf;" horiz-adv-x="540" 
d="M89 116q0 61 28 107q17 29 64 79q47 48 65 82q27 46 27 101q0 11 1.5 13t11.5 2h41q10 0 11.5 -1.5t1.5 -12.5q0 -66 -28 -115q-9 -16 -24 -35.5t-38 -42.5q-23 -24 -38.5 -44.5t-25.5 -37.5q-24 -42 -24 -95q0 -60 38 -93.5t98 -33.5q26 0 59.5 5.5t75.5 19.5
q16 4 16 -9l1 -41q0 -14 -13 -17q-40 -10 -75.5 -15.5t-67.5 -5.5q-89 0 -143 45q-62 50 -62 145zM353 636q0 -20 -14 -34.5t-34 -14.5t-34.5 14.5t-14.5 34.5t14.5 34t34.5 14t34 -14t14 -34z" />
    <glyph glyph-name="AE" unicode="&#xc6;" horiz-adv-x="812" 
d="M381 606l-148 -367h148v367zM381 -41v221h-173l-89 -221h-75l300 713h413v-57h-309v-258h287v-57h-287v-284h316v-57h-383z" />
    <glyph glyph-name="Eth" unicode="&#xd0;" horiz-adv-x="794" 
d="M661 315q0 79 -17 135.5t-51 94.5q-34 36 -86 53t-129 17h-131v-241h119v-48h-119v-310h131q77 0 129 17t86 55q34 36 51 91.5t17 135.5zM725 315q0 -180 -83 -268t-234 -88h-229v367h-112v48h112v298h229q151 0 234 -88t83 -269z" />
    <glyph glyph-name="multiply" unicode="&#xd7;" horiz-adv-x="513" 
d="M250 258l-131 -164l-76 58l148 185l-148 198l79 57l131 -176l126 158l80 -56l-146 -182l140 -187l-78 -57z" />
    <glyph glyph-name="Oslash" unicode="&#xd8;" horiz-adv-x="780" 
d="M530 583q-61 46 -142 46q-55 0 -101.5 -22.5t-79.5 -63.5q-36 -42 -54.5 -100.5t-18.5 -127.5q0 -82 24 -146t69 -106zM642 315q0 76 -22 137.5t-62 103.5l-300 -516q30 -19 61 -28.5t69 -9.5q57 0 104 22.5t81 64.5q33 42 51 100t18 126zM708 315q0 -90 -24 -159
t-67 -116q-44 -48 -102 -73.5t-127 -25.5q-45 0 -85.5 12t-75.5 30l-76 -131l-32 22l78 133q-62 48 -94.5 124.5t-32.5 183.5q0 91 24.5 160.5t67.5 115.5q43 47 101.5 71.5t124.5 24.5q100 0 172 -50l65 109l34 -20l-68 -111q56 -50 86.5 -123t30.5 -177z" />
    <glyph glyph-name="Thorn" unicode="&#xde;" horiz-adv-x="530" 
d="M382 315q0 53 -22 89.5t-56 63.5q-32 25 -73.5 36t-81.5 11v-399q39 0 80.5 11t73.5 37q34 23 56 60.5t22 90.5h1zM446 315q0 -63 -27 -110.5t-69 -78.5q-42 -33 -94.5 -48.5t-105.5 -15.5v-103h-67v713h66v-106q53 0 105.5 -14t95.5 -46q42 -32 69 -79.5t27 -111.5z" />
    <glyph glyph-name="germandbls" unicode="&#xdf;" horiz-adv-x="683" 
d="M508 485q0 67 -36.5 98.5t-112.5 31.5h-228v-257h228q40 0 68.5 11t45.5 29q20 18 27.5 41t7.5 46zM616 136q0 -64 -19 -109t-53 -71q-32 -28 -74 -40t-88 -12q-44 0 -81 9t-62 28q-29 22 -45.5 52.5t-19.5 76.5h68q2 -32 13 -52.5t32 -34.5q17 -11 43 -15.5t52 -4.5
q35 0 65 7t53 27q24 19 36 53t12 84q0 37 -12.5 66.5t-37.5 53.5q-27 20 -61.5 33.5t-77.5 13.5h-228v-343h-64v714h292q46 0 85.5 -8t67.5 -29q30 -20 47 -54.5t17 -85.5q0 -59 -30 -101.5t-87 -57.5q35 -5 62.5 -23t50.5 -46q19 -26 31.5 -60.5t12.5 -70.5z" />
    <glyph glyph-name="ae" unicode="&#xe6;" horiz-adv-x="868" 
d="M388 246q-13 -25 -48 -31q-55 -9 -98 -19.5t-73 -24.5q-29 -13 -41.5 -33.5t-12.5 -52.5q0 -45 27 -67.5t79 -22.5q75 0 120 44t46 120zM753 253q-1 34 -10 67t-30 59q-17 25 -46 41t-66 16q-35 0 -63.5 -15t-44.5 -41q-21 -26 -30.5 -58.5t-11.5 -68.5h302zM452 200
q0 -43 8 -80t29 -65q16 -30 45.5 -44t66.5 -14q33 0 58.5 10t45.5 29q16 17 28.5 41t16.5 52h64q-21 -86 -70.5 -137t-141.5 -51q-61 0 -105.5 30t-74.5 83q-7 -21 -27 -41t-49 -37q-26 -14 -60.5 -24.5t-71.5 -10.5q-35 0 -64 9.5t-53 25.5q-20 18 -33.5 44t-13.5 63
q0 48 20 78t56 52q37 18 85 29.5t108 20.5q36 6 52.5 21.5t16.5 45.5q0 57 -33 81.5t-93 24.5q-54 0 -89.5 -28.5t-38.5 -92.5h-61q2 45 17 78t39 55q28 20 62.5 31t79.5 11q57 0 101 -18t63 -73q27 42 67 66.5t98 24.5q62 0 103 -24.5t64 -61.5q25 -39 37 -92.5t12 -111.5
h-364z" />
    <glyph glyph-name="eth" unicode="&#xf0;" horiz-adv-x="592" 
d="M469 216q0 49 -11.5 89.5t-36.5 70.5q-21 28 -54.5 44t-72.5 16t-70.5 -16t-56.5 -44q-21 -30 -33.5 -70.5t-12.5 -89.5q0 -48 12.5 -88.5t33.5 -70.5q25 -30 56.5 -45t70.5 -15t72.5 15t54.5 45q25 30 36.5 70.5t11.5 88.5zM532 218q0 -60 -16.5 -111t-48.5 -87
q-29 -38 -74 -58.5t-99 -20.5q-52 0 -96 20.5t-74 58.5q-33 36 -49.5 86.5t-16.5 109.5q0 58 16.5 109.5t49.5 88.5q30 36 74 56t96 20q39 0 71 -10.5t56 -26.5q-13 34 -33.5 64.5t-46.5 58.5l-54 -56l-27 26l58 54q-32 30 -69 58l16 30q50 -23 87 -53l57 54l23 -24l-52 -53
q80 -76 116 -173t36 -221z" />
    <glyph glyph-name="divide" unicode="&#xf7;" horiz-adv-x="521" 
d="M475 399v-84h-426v84h426zM192 91v136h136v-136h-136zM192 482v136h136v-136h-136z" />
    <glyph glyph-name="oslash" unicode="&#xf8;" horiz-adv-x="612" 
d="M375 421q-33 15 -71 15q-39 0 -70.5 -16t-56.5 -44q-21 -30 -34.5 -70.5t-13.5 -89.5q0 -57 18.5 -104t50.5 -74zM481 216q0 58 -18 105t-50 75l-179 -384q31 -15 70 -15t72.5 15t54.5 45q25 30 37.5 70.5t12.5 88.5zM542 216q0 -59 -17.5 -109.5t-47.5 -86.5
q-29 -38 -73 -58.5t-100 -20.5q-53 0 -95 22l-41 -88l-40 17l43 90q-49 36 -75 96t-26 138q0 58 15.5 109.5t46.5 88.5q32 36 75 56t97 20q57 0 96 -20l34 78l40 -17l-36 -80q51 -35 77.5 -95.5t26.5 -139.5z" />
    <glyph glyph-name="thorn" unicode="&#xfe;" horiz-adv-x="599" 
d="M449 216q0 49 -13.5 89.5t-34.5 70.5q-25 28 -56.5 44t-70.5 16q-74 0 -124 -56v-327q45 -56 123 -56q40 0 71 15t56 45q21 30 34.5 70.5t13.5 88.5h1zM508 216q0 -59 -16.5 -109.5t-44.5 -86.5q-31 -38 -75 -58.5t-98 -20.5q-35 0 -68 10.5t-55 31.5v-126h-64v815h63
v-221q20 18 54 28.5t69 10.5q54 0 98 -20t75 -56q29 -37 45.5 -88.5t16.5 -109.5z" />
    <glyph glyph-name="dcroat" unicode="&#x111;" horiz-adv-x="663" 
d="M455 216q0 40 -11 80t-30 71q-23 30 -55.5 49.5t-79.5 19.5q-44 0 -76 -19.5t-49 -49.5q-22 -31 -30.5 -71t-8.5 -80t8.5 -79.5t30.5 -71.5q17 -29 49 -48.5t76 -19.5q49 0 81.5 19.5t55.5 48.5q19 32 29 71.5t10 79.5zM514 545v-586h-59v97q-20 -54 -69 -84.5
t-107 -30.5q-59 0 -101.5 23t-67.5 60q-28 38 -43 88t-15 104q0 55 15 105t43 88q25 36 67.5 58.5t101.5 22.5q55 0 103.5 -31.5t72.5 -81.5v168h-98v47h98v80h59v-80h95v-47h-95z" />
    <glyph glyph-name="Hbar" unicode="&#x126;" horiz-adv-x="783" 
d="M595 499h-411v-134h411v134zM663 499v-540h-68v347h-411v-347h-64v540h-50v47h50v126h64v-126h411v126h68v-126h48v-47h-48z" />
    <glyph glyph-name="hbar" unicode="&#x127;" horiz-adv-x="653" 
d="M481 -41v322q0 32 -8 61t-21 49q-17 22 -41.5 33.5t-59.5 11.5q-34 0 -64 -13t-48 -37q-23 -24 -33 -56.5t-10 -70.5v-300h-63v585h-92v47h91v81h63v-81h179v-47h-179v-159q8 23 24.5 41.5t36.5 33.5q24 13 49.5 21.5t51.5 8.5q51 0 85.5 -14t57.5 -41q22 -26 32 -62.5
t10 -81.5v-332h-61z" />
    <glyph glyph-name="dotlessi" unicode="&#x131;" horiz-adv-x="280" 
d="M109 -41v515h61v-515h-61z" />
    <glyph glyph-name="IJ" unicode="&#x132;" horiz-adv-x="685" 
d="M79 -41v713h64v-713h-64zM606 173q0 -120 -51.5 -176t-146.5 -56q-105 0 -152.5 59.5t-46.5 177.5h68q-2 -93 32.5 -135t105.5 -42q58 0 91.5 40.5t33.5 128.5v502h66v-499z" />
    <glyph glyph-name="ij" unicode="&#x133;" horiz-adv-x="493" 
d="M120 -41v515h59v-515h-59zM373 -77q0 -59 -22 -91t-79 -32h-20.5t-12.5 1v52q4 -1 10 -1h11q31 0 40.5 15t9.5 51v556h63v-551zM119 572v100h61v-100h-61zM309 572v100h65v-100h-65z" />
    <glyph glyph-name="kgreenlandic" unicode="&#x138;" horiz-adv-x="568" 
d="M425 -41l-195 282l-103 -93v-189h-59v515h59v-248l273 248h84l-208 -190l224 -325h-75z" />
    <glyph glyph-name="Ldot" unicode="&#x13f;" horiz-adv-x="576" 
d="M65 -41v713h64v-656h380v-57h-444zM309 303v97h101v-97h-101z" />
    <glyph glyph-name="ldot" unicode="&#x140;" horiz-adv-x="412" 
d="M76 -41v713h59v-713h-59zM242 305v93h92v-93h-92z" />
    <glyph glyph-name="Lslash" unicode="&#x141;" horiz-adv-x="770" 
d="M247 -41v297l-131 -131l-39 39l170 171v337h66v-273l145 149l41 -39l-186 -186v-307h380v-57h-446z" />
    <glyph glyph-name="lslash" unicode="&#x142;" horiz-adv-x="455" 
d="M258 349v-390h-59v330l-87 -87l-32 30l118 118v322h59v-260l84 84l34 -32z" />
    <glyph glyph-name="napostrophe" unicode="&#x149;" horiz-adv-x="727" 
d="M188 506q0 -48 -29.5 -86t-75.5 -46v41q31 7 45.5 31t14.5 60h-60v101h102v-101h3zM582 -41v323q0 71 -32.5 112.5t-96.5 41.5q-36 0 -64 -13t-50 -37q-19 -24 -31 -56.5t-12 -70.5v-300h-61v515h60l-1 -89q7 23 23.5 42.5t40.5 33.5q20 12 46 20.5t54 8.5q49 0 85 -14
t56 -41q24 -25 33 -62t9 -82v-332h-59z" />
    <glyph glyph-name="Eng" unicode="&#x14a;" horiz-adv-x="705" 
d="M625 -33q0 -36 -9 -66t-30 -54q-18 -21 -50.5 -34t-77.5 -13q-82 0 -121 40t-39 119h68q0 -57 25.5 -79.5t66.5 -22.5q46 0 70 27.5t24 69.5l-406 609v-604h-66v713h75l402 -606v606h68v-705z" />
    <glyph glyph-name="eng" unicode="&#x14b;" horiz-adv-x="619" 
d="M511 -38q0 -73 -40.5 -114t-113.5 -41q-30 0 -56.5 7.5t-48.5 23.5q-19 15 -31.5 41.5t-15.5 61.5h61q5 -43 28.5 -61t62.5 -18q42 0 68.5 21t26.5 79v320q0 71 -32.5 112.5t-96.5 41.5q-35 0 -63.5 -13t-50.5 -37q-19 -24 -30.5 -56.5t-11.5 -70.5v-300h-61v515h61v-89
q5 23 22.5 42.5t37.5 33.5q23 12 48.5 20.5t53.5 8.5q49 0 85 -14t56 -41q23 -25 32 -62t9 -82v-329z" />
    <glyph glyph-name="OE" unicode="&#x152;" horiz-adv-x="866" 
d="M417 615h-35q-75 0 -125.5 -17t-84.5 -53q-33 -38 -46.5 -94.5t-13.5 -135.5q0 -80 13.5 -135.5t45.5 -91.5q34 -38 84.5 -55t125.5 -17h36v599zM356 -41q-155 0 -233.5 87t-78.5 269q0 183 78 270t233 87h458v-57h-331v-258h307v-57h-307v-284h338v-57h-464z" />
    <glyph glyph-name="oe" unicode="&#x153;" horiz-adv-x="882" 
d="M422 216q0 49 -9 89.5t-31 70.5q-19 28 -50 44t-70 16t-68.5 -16t-51.5 -44q-18 -30 -29.5 -70.5t-11.5 -89.5q0 -48 11 -88.5t30 -70.5q22 -30 51 -45t68 -15t70 15t50 45q22 30 31 70.5t9 88.5h1zM779 253q-1 34 -11.5 67t-26.5 59q-20 25 -47 41t-64 16t-62.5 -15
t-43.5 -41q-20 -26 -28.5 -58.5t-11.5 -68.5h295zM485 200q0 -43 7.5 -80t25.5 -65q20 -30 46.5 -44t65.5 -14q35 0 58.5 10t43.5 29q17 17 26.5 41t17.5 52h60q-17 -86 -66 -137t-139 -51q-65 0 -107.5 33.5t-70.5 91.5q-31 -56 -75.5 -90.5t-115.5 -34.5q-54 0 -95.5 20.5
t-69.5 58.5q-26 36 -40.5 86.5t-14.5 109.5q0 58 14 109.5t40 88.5q29 36 70.5 56t94.5 20q72 0 116 -34t75 -92q24 56 65 91t112 35q62 0 102 -24.5t63 -61.5q26 -39 35 -92.5t9 -111.5h-353z" />
    <glyph glyph-name="Tbar" unicode="&#x166;" horiz-adv-x="649" 
d="M357 615v-286h135v-48h-135v-322h-66v322h-140v48h140v286h-233v57h529v-57h-230z" />
    <glyph glyph-name="tbar" unicode="&#x167;" horiz-adv-x="440" 
d="M344 -47q-12 -1 -26 -1.5t-26 -0.5q-33 0 -54 5.5t-31 16.5q-13 12 -19.5 35t-6.5 55v221h-79v48h79v89h-89v53h88v155h63v-155h101v-53h-101v-89h91v-48h-91v-220q0 -32 10 -46t39 -14q28 0 52 2v-53z" />
    <glyph glyph-name="caron" unicode="&#x2c7;" horiz-adv-x="514" 
d="M257 590l-204 103l17 29l187 -92l187 92l17 -29z" />
    <glyph glyph-name="uni02D0" unicode="&#x2d0;" horiz-adv-x="940" 
d="M379 103l90 94l91 -94h-181zM469 404l-90 95h181z" />
    <glyph glyph-name="breve" unicode="&#x2d8;" horiz-adv-x="516" 
d="M466 700q-39 -60 -89 -85t-119 -25t-119 26t-89 84l30 19q34 -49 76 -71.5t102 -22.5t102.5 22.5t75.5 71.5l30 -19v0z" />
    <glyph glyph-name="dotaccent" unicode="&#x2d9;" horiz-adv-x="254" 
d="M196 617q0 -29 -20 -48.5t-49 -19.5t-49 19.5t-20 48.5t20 49t49 20t49 -20t20 -49z" />
    <glyph glyph-name="ring" unicode="&#x2da;" horiz-adv-x="320" 
d="M236 618q0 32 -22 54.5t-54 22.5t-54 -22.5t-22 -54.5t22 -54.5t54 -22.5t54 22.5t22 54.5zM267 618q0 -22 -8.5 -41.5t-23 -34t-34 -23t-41.5 -8.5t-41.5 8.5t-34 23t-23 34t-8.5 41.5t8.5 41.5t23 34t34 23t41.5 8.5t41.5 -8.5t34 -23t23 -34t8.5 -41.5z" />
    <glyph glyph-name="ogonek" unicode="&#x2db;" horiz-adv-x="298" 
d="M233 -122q-21 -29 -44.5 -48.5t-54.5 -19.5q-35 0 -52 21t-17 49q0 23 18 49t53 51l16 -16q-22 -21 -31.5 -41t-9.5 -32q0 -14 9.5 -25t23.5 -11q22 0 39.5 10.5t31.5 26.5l18 -14v0z" />
    <glyph glyph-name="hungarumlaut" unicode="&#x2dd;" horiz-adv-x="468" 
d="M89 514h-24l81 211h86zM260 514h-24l81 211h86z" />
    <glyph glyph-name="Alpha" unicode="&#x391;" horiz-adv-x="714" 
d="M357 604l-136 -365h270zM591 -41l-81 221h-308l-81 -221h-73l272 713h72l272 -713h-73z" />
    <glyph glyph-name="Beta" unicode="&#x392;" horiz-adv-x="680" 
d="M542 159q0 71 -46 106.5t-134 35.5h-228v-285h228q37 0 69.5 8t59.5 24q22 17 36.5 44.5t14.5 66.5zM516 485q0 130 -154 130h-228v-257h228q40 0 68 11t50 29q19 18 27.5 41t8.5 46zM610 160q0 -105 -67.5 -153t-180.5 -48h-292v713h292q46 0 86.5 -8t68.5 -29
q30 -20 48 -54.5t18 -85.5q0 -59 -31 -101.5t-90 -57.5q69 -9 108.5 -57t39.5 -119z" />
    <glyph glyph-name="Gamma" unicode="&#x393;" horiz-adv-x="620" 
d="M139 615v-656h-64v713h468v-57h-404z" />
    <glyph glyph-name="uni0394" unicode="&#x394;" horiz-adv-x="734" 
d="M367 583l-216 -567h432zM63 -41l275 713h54l277 -713h-606z" />
    <glyph glyph-name="Epsilon" unicode="&#x395;" horiz-adv-x="593" 
d="M58 -41v713h468v-57h-401v-258h375v-57h-375v-284h408v-57h-475z" />
    <glyph glyph-name="Zeta" unicode="&#x396;" horiz-adv-x="655" 
d="M58 -41v59l449 597h-418v57h498v-60l-455 -596h461v-57h-535z" />
    <glyph glyph-name="Eta" unicode="&#x397;" horiz-adv-x="663" 
d="M537 -41v347h-412v-347h-67v713h67v-307h412v307h64v-713h-64z" />
    <glyph glyph-name="Theta" unicode="&#x398;" horiz-adv-x="760" 
d="M189 290v57h378v-57h-378zM632 315q0 69 -19 127.5t-50 100.5q-34 41 -82 63.5t-103 22.5t-101.5 -22.5t-79.5 -63.5q-34 -42 -53 -100.5t-19 -127.5q0 -68 19 -126.5t52 -99.5q31 -42 79 -64.5t103 -22.5t103 22.5t82 64.5q31 42 50 100t19 126zM700 315q0 -90 -25 -159
t-68 -116q-44 -48 -102 -73.5t-127 -25.5q-68 0 -125.5 26t-100.5 74q-43 47 -68.5 115.5t-25.5 158.5q0 91 25.5 160.5t68.5 115.5q43 47 100.5 71.5t125.5 24.5q69 0 127 -24.5t102 -71.5q43 -46 68 -115.5t25 -160.5z" />
    <glyph glyph-name="Iota" unicode="&#x399;" horiz-adv-x="245" 
d="M87 -41v713h69v-713h-69z" />
    <glyph glyph-name="Kappa" unicode="&#x39a;" horiz-adv-x="669" 
d="M528 -41l-278 370l-125 -126v-244h-66v713h66v-379l381 379h85l-292 -293l309 -420h-80z" />
    <glyph glyph-name="Lambda" unicode="&#x39b;" horiz-adv-x="714" 
d="M591 -41l-234 645l-236 -645h-73l272 713h72l272 -713h-73z" />
    <glyph glyph-name="Mu" unicode="&#x39c;" horiz-adv-x="812" 
d="M674 -41v620l-235 -620h-66l-239 620v-620h-64v713h97l239 -626l236 626h100v-713h-68z" />
    <glyph glyph-name="Nu" unicode="&#x39d;" horiz-adv-x="685" 
d="M540 -41l-406 604v-604h-64v713h73l404 -606v606h68v-713h-75z" />
    <glyph glyph-name="Xi" unicode="&#x39e;" horiz-adv-x="680" 
d="M48 -41v57h580v-57h-580zM160 300v57h358v-57h-358zM53 615v57h572v-57h-572z" />
    <glyph glyph-name="Omicron" unicode="&#x39f;" horiz-adv-x="760" 
d="M632 315q0 69 -19 127.5t-50 100.5q-34 41 -82 63.5t-103 22.5t-101.5 -22.5t-79.5 -63.5q-34 -42 -53 -100.5t-19 -127.5q0 -68 19 -126.5t52 -99.5q31 -42 79 -64.5t103 -22.5t103 22.5t82 64.5q31 42 50 100t19 126zM700 315q0 -90 -25 -159t-68 -116
q-44 -48 -102 -73.5t-127 -25.5q-68 0 -125.5 26t-100.5 74q-43 47 -68.5 115.5t-25.5 158.5q0 91 25.5 160.5t68.5 115.5q43 47 100.5 71.5t125.5 24.5q69 0 127 -24.5t102 -71.5q43 -46 68 -115.5t25 -160.5z" />
    <glyph glyph-name="Pi" unicode="&#x3a0;" horiz-adv-x="642" 
d="M504 -41v656h-370v-656h-64v713h502v-713h-68z" />
    <glyph glyph-name="Rho" unicode="&#x3a1;" horiz-adv-x="630" 
d="M502 468q0 76 -42.5 111.5t-111.5 35.5h-223v-292h223q69 0 111.5 35t42.5 110zM570 468q0 -96 -56 -150t-150 -54h-239v-305h-67v713h306q46 0 84 -14t63 -39q29 -27 44 -65t15 -86z" />
    <glyph glyph-name="Sigma" unicode="&#x3a3;" horiz-adv-x="613" 
d="M48 -41v59l246 314l-246 288v52h497v-57h-411l218 -257v-51l-229 -291h440v-57h-515z" />
    <glyph glyph-name="Tau" unicode="&#x3a4;" horiz-adv-x="629" 
d="M345 615v-656h-64v656h-233v57h531v-57h-234z" />
    <glyph glyph-name="Upsilon" unicode="&#x3a5;" horiz-adv-x="692" 
d="M377 254v-295h-64v295l-263 418h75l219 -356l222 356h72z" />
    <glyph glyph-name="Phi" unicode="&#x3a6;" horiz-adv-x="750" 
d="M340 509q-47 -3 -89.5 -16t-73.5 -35q-30 -25 -48.5 -58.5t-18.5 -79.5t18.5 -79t48.5 -57q31 -23 73.5 -36.5t89.5 -16.5v378zM638 320q0 46 -18.5 79.5t-47.5 58.5q-32 22 -74.5 35t-89.5 16v-378q47 3 89.5 16.5t74.5 36.5q29 24 47.5 57t18.5 79zM701 320
q0 -56 -23 -99.5t-62 -73.5q-40 -29 -94.5 -46.5t-113.5 -21.5v-120h-68v120q-60 4 -114 21.5t-94 46.5q-40 30 -62.5 73.5t-22.5 99.5q0 57 22.5 100t62.5 74q40 29 94 46.5t114 21.5v110h68v-110q59 -4 113.5 -21.5t94.5 -46.5q39 -31 62 -74t23 -100z" />
    <glyph glyph-name="Chi" unicode="&#x3a7;" horiz-adv-x="680" 
d="M548 -41l-210 310l-210 -310h-79l252 366l-235 347h76l197 -291l197 291h78l-238 -345l251 -368h-79z" />
    <glyph glyph-name="Psi" unicode="&#x3a8;" horiz-adv-x="792" 
d="M741 603q-33 0 -53.5 -22t-20.5 -64v-166q0 -51 -21.5 -87.5t-57.5 -58.5q-34 -25 -76.5 -36t-84.5 -11v-199h-64v199q-42 0 -84.5 11t-76.5 36q-35 22 -56 58.5t-21 87.5v166q0 42 -21.5 64t-54.5 22l9 59q25 0 47.5 -12t43.5 -29q18 -19 30 -43t12 -53v-175
q0 -37 14.5 -62.5t41.5 -40.5q24 -17 55 -24.5t61 -7.5v457h64v-457q31 0 62.5 7.5t54.5 24.5q26 15 40.5 40.5t14.5 62.5v175q0 29 12.5 53t29.5 43q21 17 44 29t47 12z" />
    <glyph glyph-name="uni03A9" unicode="&#x3a9;" horiz-adv-x="700" 
d="M638 409q0 -101 -48 -169.5t-138 -92.5v-131h115v114h64v-171h-244v231q86 24 136.5 74.5t50.5 145.5q0 48 -17.5 88t-49.5 67q-31 30 -71 46.5t-88 16.5q-47 0 -87.5 -16.5t-68.5 -46.5q-31 -27 -49 -67t-18 -88q0 -95 49 -145.5t136 -74.5v-231h-243v171h64v-114h118
v131q-93 24 -142 92.5t-49 169.5q0 60 24 110.5t64 86.5q37 35 91 54.5t111 19.5q61 0 113 -19.5t92 -54.5q39 -36 62 -86.5t23 -110.5z" />
    <glyph glyph-name="alpha" unicode="&#x3b1;" horiz-adv-x="492" 
d="M301 219q0 104 -26.5 159.5t-80.5 55.5q-53 0 -82 -55.5t-29 -159.5q0 -98 27.5 -158.5t83.5 -60.5q51 0 79 58.5t28 160.5zM466 40q-8 -51 -25.5 -71.5t-44.5 -20.5q-57 0 -76 92q-17 -48 -50 -72.5t-75 -24.5q-88 0 -130.5 71.5t-42.5 204.5q0 135 48.5 203t127.5 68
q32 0 58.5 -14t44.5 -39q21 -23 31 -55t12 -67l41 165h61l-86 -336q6 -65 15 -102.5t23 -37.5q10 0 14.5 15.5t6.5 38.5z" />
    <glyph glyph-name="beta" unicode="&#x3b2;" horiz-adv-x="452" 
d="M368 158q0 37 -10 66.5t-25 48.5q-13 20 -31.5 29t-39.5 9q-16 0 -37 -2.5t-43 -5.5v63q22 -4 42.5 -6.5t36.5 -2.5q35 0 57 33.5t22 103.5q0 56 -30.5 93t-92.5 37q-55 0 -87 -27t-32 -87v-449q16 -15 28.5 -26.5t29.5 -17.5q13 -7 32 -10t42 -3q31 0 58 12.5t45 33.5
q15 22 25 49.5t10 58.5zM432 159q0 -41 -11.5 -79.5t-38.5 -69.5q-23 -30 -59 -48.5t-82 -18.5q-42 0 -78.5 10t-64.5 32v-170h-61v695q0 40 13.5 72t35.5 53q26 23 58.5 34.5t72.5 11.5q43 0 78.5 -15.5t60.5 -37.5q23 -26 37.5 -60t14.5 -75q0 -58 -19 -96.5t-53 -59.5
q16 -7 33 -22.5t33 -39.5q14 -21 22 -50.5t8 -65.5z" />
    <glyph glyph-name="gamma" unicode="&#x3b3;" horiz-adv-x="450" 
d="M321 -38q0 23 -15.5 56t-48.5 79l-34 51l-32 -51q-30 -45 -47 -78.5t-17 -56.5q0 -26 10 -44.5t24 -29.5q12 -10 29.5 -15.5t32.5 -5.5q18 0 35 5.5t31 15.5q12 11 22 29.5t10 44.5zM259 202l47 -72q33 -50 55.5 -91t22.5 -76q0 -38 -12 -65.5t-36 -47.5q-21 -17 -51 -27
t-62 -10q-30 0 -60 10t-50 27q-25 20 -37 47.5t-12 65.5q0 35 22.5 76t53.5 91l49 72l-185 272h75l144 -219l148 219h73z" />
    <glyph glyph-name="delta" unicode="&#x3b4;" horiz-adv-x="449" 
d="M360 178q0 35 -8 65.5t-22 56.5q-17 25 -44.5 38.5t-65.5 13.5t-64 -13.5t-40 -37.5q-19 -26 -26 -56.5t-7 -66.5q0 -78 36 -125.5t101 -47.5q71 0 105.5 44t34.5 129zM429 178q0 -110 -53.5 -171.5t-155.5 -61.5q-50 0 -88 17t-61 48q-28 31 -41.5 74t-13.5 94
q0 50 13.5 92t38.5 73q21 31 54 49t71 21q-46 27 -76 62.5t-30 83.5q0 29 12.5 50.5t30.5 37.5q21 17 47.5 25t55.5 8q28 0 56 -8t47 -26q22 -17 32.5 -41t10.5 -56h-63q0 40 -21 57t-63 17q-35 0 -56 -18.5t-21 -49.5q0 -21 17.5 -44.5t38.5 -43.5q25 -20 48 -35t33 -21
q36 -20 61 -41t44 -47q17 -27 24.5 -62.5t7.5 -82.5z" />
    <glyph glyph-name="epsilon" unicode="&#x3b5;" horiz-adv-x="445" 
d="M418 101q-15 -84 -69.5 -121t-131.5 -37q-39 0 -73.5 10t-61.5 28q-29 21 -44 50.5t-15 70.5q0 23 7 44.5t18 38.5q12 19 29 31t39 16q-37 15 -55.5 44t-18.5 72q0 36 16 63t40 46q27 17 60.5 27t66.5 10q73 0 122 -33.5t63 -103.5h-67q-10 40 -37.5 59t-80.5 19
q-22 0 -44 -5.5t-40 -14.5q-16 -13 -25 -28t-9 -38q0 -33 12 -49.5t36 -26.5q19 -9 48.5 -11.5t58.5 -2.5v-57q-38 0 -69 -6t-56 -15q-21 -10 -35 -28.5t-14 -45.5q0 -26 12 -46t28 -34q20 -12 42.5 -18t44.5 -6q57 0 91 23t49 75h63z" />
    <glyph glyph-name="zeta" unicode="&#x3b6;" horiz-adv-x="452" 
d="M420 -74q0 -59 -35.5 -88.5t-92.5 -29.5q-29 0 -61.5 8.5t-60.5 21.5l22 54q24 -13 47 -20t53 -7q32 0 49.5 15.5t17.5 47.5q0 20 -8 31.5t-21 18.5q-16 7 -43 12.5t-65 9.5t-72 15.5t-61 35.5q-10 11 -21 27t-18 34q-8 17 -11 35.5t-3 34.5q0 58 22.5 118t56.5 120
q34 57 75 108.5t77 90.5h-203v52h267l18 -55q-41 -39 -85.5 -89.5t-81.5 -105.5q-35 -57 -60 -117.5t-25 -120.5q0 -23 11 -50t27 -43q25 -20 54 -27t77 -12q84 -8 119 -39t35 -86z" />
    <glyph glyph-name="eta" unicode="&#x3b7;" horiz-adv-x="468" 
d="M443 -77q-15 -32 -33 -45.5t-45 -13.5q-47 0 -64.5 24.5t-17.5 65.5v338q0 144 -88 144q-53 0 -82.5 -42t-29.5 -115v-320h-62v515h62v-89q3 19 13.5 37.5t25.5 35.5q13 13 33.5 22.5t48.5 9.5q42 0 68 -12t45 -37q16 -21 21.5 -57t5.5 -84v-341q0 -22 3.5 -31t18.5 -9
q9 0 16 9t14 29z" />
    <glyph glyph-name="theta" unicode="&#x3b8;" horiz-adv-x="446" 
d="M81 290q1 -65 9 -117.5t28 -90.5q15 -38 42.5 -59t60.5 -21q36 0 62 21t45 59q15 38 25 90.5t12 117.5h-284zM365 347q-2 64 -12 115.5t-25 88.5q-20 37 -46 57.5t-61 20.5q-33 0 -60 -20.5t-42 -57.5q-20 -37 -28 -88.5t-10 -115.5h284zM429 315q0 -180 -48 -277
t-160 -97q-110 0 -159 97t-49 277q0 181 49 276.5t159 95.5q112 0 160 -95.5t48 -276.5z" />
    <glyph glyph-name="iota" unicode="&#x3b9;" horiz-adv-x="416" 
d="M324 66q0 -58 -29 -90.5t-87 -32.5q-118 0 -118 119v418h65v-418q0 -31 10.5 -46.5t42.5 -15.5t42 19t10 47h64z" />
    <glyph glyph-name="kappa" unicode="&#x3ba;" horiz-adv-x="472" 
d="M361 -41l-171 284l-99 -95v-189h-59v521h59v-254l255 254h80l-191 -191l197 -330h-71z" />
    <glyph glyph-name="lambda" unicode="&#x3bb;" horiz-adv-x="449" 
d="M440 29q-7 -57 -34 -82.5t-69 -25.5q-27 0 -44 8.5t-31 26.5q-12 17 -20.5 42.5t-19.5 62.5l-52 201l-91 -303h-69l129 423l-45 174q-5 22 -10 35t-14 24q-13 12 -24.5 15t-27.5 3v57q58 0 92 -24q32 -30 47 -84l133 -516q8 -37 19 -60.5t26 -23.5q22 0 30.5 9.5
t9.5 37.5h65z" />
    <glyph glyph-name="uni03BC" unicode="&#x3bc;" horiz-adv-x="453" 
d="M352 -41v90q-14 -47 -50 -77.5t-100 -30.5q-34 0 -58.5 9t-46.5 21v-164h-61v673h61v-342q0 -65 27 -103t92 -38q34 0 59.5 14t44.5 43q15 27 23.5 61t8.5 75v290h65v-521h-65z" />
    <glyph glyph-name="nu" unicode="&#x3bd;" horiz-adv-x="454" 
d="M276 -41h-71l-130 425q-8 28 -27 36q-10 5 -39 5v55q32 0 50.5 -2.5t29.5 -10.5q17 -8 26 -23.5t14 -37.5l111 -374l136 448h63z" />
    <glyph glyph-name="xi" unicode="&#x3be;" horiz-adv-x="443" 
d="M402 -74q0 -28 -12 -50t-27 -37q-20 -14 -43.5 -22.5t-47.5 -8.5q-59 0 -99 30l23 56q12 -11 33 -18t43 -7q26 0 45.5 15t19.5 46q0 28 -26 43.5t-95 23.5q-38 4 -69.5 15.5t-57.5 34.5q-22 21 -35.5 52.5t-13.5 73.5q0 81 42.5 132.5t119.5 80.5q-20 11 -33 21.5
t-22 22.5q-12 11 -17 27t-5 39q0 17 9 35t25 34q11 18 27 30.5t27 24.5h-153v52h245l13 -44q-16 -9 -38 -24.5t-40 -33.5q-23 -18 -36.5 -38.5t-13.5 -38.5t9.5 -30.5t24.5 -23.5q17 -10 33.5 -16.5t28.5 -11.5v-53q-36 -9 -69.5 -24.5t-57.5 -35.5q-28 -24 -44 -52t-16 -67
q0 -56 34 -87t89 -40q88 -13 134 -42.5t46 -83.5z" />
    <glyph glyph-name="omicron" unicode="&#x3bf;" horiz-adv-x="450" 
d="M370 216q0 49 -11 89.5t-28 70.5q-21 28 -47.5 44t-60.5 16q-32 0 -60 -16t-44 -44q-21 -30 -30 -70.5t-9 -89.5q0 -48 9 -88.5t30 -70.5q16 -30 44 -45t60 -15q34 0 60.5 15t47.5 45q17 30 28 70.5t11 88.5zM429 216q0 -59 -12 -109.5t-40 -86.5q-26 -38 -63.5 -58.5
t-90.5 -20.5q-51 0 -89.5 20.5t-62.5 58.5q-28 36 -41 86.5t-13 109.5q0 58 13 109.5t41 88.5q24 36 62.5 56t89.5 20q53 0 90.5 -20t63.5 -56q28 -37 40 -88.5t12 -109.5z" />
    <glyph glyph-name="pi" unicode="&#x3c0;" horiz-adv-x="459" 
d="M442 48q-10 -57 -31 -80t-65 -23q-40 0 -63 22t-23 76v383h-81v-354q0 -67 -27 -96q-19 -16 -46 -22.5t-69 -6.5v58q22 0 38.5 2.5t26.5 11.5q16 18 16 51v356h-107v53h419v-53h-105v-379q0 -27 5 -35t21 -8q19 0 24 9.5t10 48.5z" />
    <glyph glyph-name="rho" unicode="&#x3c1;" horiz-adv-x="450" 
d="M370 216q0 49 -11 89.5t-28 70.5q-21 28 -47.5 44t-60.5 16q-32 0 -60 -16t-44 -44q-21 -30 -30 -70.5t-9 -89.5q0 -48 9 -88.5t30 -70.5q16 -30 44 -45t60 -15q34 0 60.5 15t47.5 45q17 30 28 70.5t11 88.5zM429 216q0 -59 -12 -109.5t-40 -86.5q-26 -38 -63.5 -58.5
t-90.5 -20.5q-48 0 -84.5 19t-58.5 51v-211h-63v417q0 60 13 111t41 87q24 36 62.5 55.5t89.5 19.5q53 0 90.5 -20t63.5 -56q28 -37 40 -88.5t12 -109.5z" />
    <glyph glyph-name="sigma" unicode="&#x3c3;" horiz-adv-x="461" 
d="M369 216q0 49 -11 89.5t-28 70.5q-21 28 -47.5 44t-60.5 16q-32 0 -60 -16t-44 -44q-21 -30 -30 -70.5t-9 -89.5q0 -48 9 -88.5t30 -70.5q16 -30 44 -45t60 -15q34 0 60.5 15t47.5 45q17 30 28 70.5t11 88.5zM443 437q-25 8 -53 11.5t-49 0.5q43 -35 65 -94.5t22 -138.5
q0 -59 -12 -109.5t-40 -86.5q-26 -38 -63.5 -58.5t-90.5 -20.5q-51 0 -89.5 20.5t-62.5 58.5q-28 36 -41 86.5t-13 109.5q0 52 12.5 96t31.5 78q22 34 49.5 58t60.5 34q29 11 62 16.5t70 6.5q36 1 73.5 -1t67.5 -9v-58z" />
    <glyph glyph-name="tau" unicode="&#x3c4;" horiz-adv-x="446" 
d="M213 426v-378q0 -27 12.5 -35.5t25.5 -8.5q17 0 29 10.5t15 49.5l55 -14q-8 -57 -33 -81t-69 -24q-40 0 -68 24.5t-28 76.5v380h-141v53h419v-53h-217z" />
    <glyph glyph-name="upsilon" unicode="&#x3c5;" horiz-adv-x="445" 
d="M415 160q0 -104 -50 -159.5t-151 -55.5q-38 0 -69.5 9t-57.5 27q-22 21 -35.5 52.5t-13.5 74.5v373h61v-373q0 -57 32.5 -80.5t77.5 -23.5q74 0 106 37t32 115q0 75 -16 159t-48 159l62 18q18 -37 29.5 -79t22.5 -85q9 -44 13.5 -86.5t4.5 -81.5z" />
    <glyph glyph-name="phi" unicode="&#x3c6;" horiz-adv-x="450" 
d="M195 432q-57 -12 -88.5 -70t-31.5 -146q0 -87 31.5 -145t88.5 -70v431zM375 216q0 88 -34 146t-89 70v-431q55 12 89 70t34 145zM434 216q0 -55 -11.5 -103t-36.5 -81q-21 -36 -56 -58t-78 -29v-143h-57v143q-44 7 -78 29.5t-58 57.5q-21 33 -34 81t-13 103t13 103t34 80
q24 37 58 59.5t78 28.5v185h57v-185q43 -6 78 -28.5t56 -59.5q25 -32 36.5 -80t11.5 -103z" />
    <glyph glyph-name="chi" unicode="&#x3c7;" horiz-adv-x="448" 
d="M259 164l70 -237q6 -28 14 -37t32 -9h60v-49h-58q-48 0 -71 19t-34 55l-55 182l-143 -256h-71l192 338l-64 214q-6 20 -15.5 33t-30.5 13h-60v50h58q48 0 71 -15.5t36 -55.5l47 -164l133 235h69z" />
    <glyph glyph-name="psi" unicode="&#x3c8;" horiz-adv-x="448" 
d="M444 460q-13 -27 -20 -50.5t-9 -47.5q-4 -24 -5.5 -50t-1.5 -58v-158q0 -38 -12.5 -63.5t-31.5 -41.5q-23 -17 -50.5 -24t-61.5 -8v-157h-57v157q-33 1 -61.5 8t-50.5 24q-20 16 -31.5 41.5t-11.5 63.5v158q0 32 -2 58t-6 50t-12 47.5t-18 50.5l54 15q23 -49 31 -104
t8 -121v-155q0 -39 22 -60.5t78 -23.5v469h57v-469q53 2 75 23.5t22 60.5v155q0 66 10 121t29 104z" />
    <glyph glyph-name="omega" unicode="&#x3c9;" horiz-adv-x="448" 
d="M441 173q0 -53 -6.5 -96t-18.5 -73q-15 -31 -40.5 -47t-61.5 -16q-65 0 -92 70q-24 -70 -91 -70q-36 0 -60.5 16t-37.5 47q-17 29 -23 72t-6 97q0 40 3.5 79t15.5 78q9 39 27 76t45 75l45 -38q-23 -31 -39 -64.5t-22 -66.5q-9 -33 -11.5 -66.5t-2.5 -70.5
q0 -49 4.5 -83.5t13.5 -53.5q6 -22 19.5 -29.5t27.5 -7.5q34 0 49.5 25t15.5 70v231h55v-231q0 -45 16.5 -70t48.5 -25q16 0 28.5 7.5t21.5 29.5q8 19 11.5 53.5t3.5 83.5q0 37 -2.5 70.5t-9.5 66.5q-8 33 -23 66.5t-42 64.5l45 38q29 -38 48 -75t27 -76q9 -39 13.5 -78
t4.5 -79z" />
    <glyph glyph-name="uni0401" unicode="&#x401;" horiz-adv-x="641" 
d="M83 -41v713h465v-57h-398v-258h376v-57h-376v-284h405v-57h-472zM181 717v77h75v-77h-75zM359 717v77h73v-77h-73z" />
    <glyph glyph-name="uni0410" unicode="&#x410;" horiz-adv-x="744" 
d="M372 604l-134 -365h266zM608 -41l-81 221h-312l-81 -221h-69l268 713h76l268 -713h-69z" />
    <glyph glyph-name="uni0411" unicode="&#x411;" horiz-adv-x="698" 
d="M563 159q0 71 -48 106.5t-136 35.5h-224v-285h224q38 0 72 8t57 24q26 17 40.5 44.5t14.5 66.5zM627 160q0 -105 -65.5 -153t-182.5 -48h-292v713h465v-57h-397v-257h224q117 0 182.5 -48.5t65.5 -149.5z" />
    <glyph glyph-name="uni0412" unicode="&#x412;" horiz-adv-x="693" 
d="M559 159q0 71 -47 106.5t-135 35.5h-225v-285h224q39 0 72.5 8t56.5 24q27 17 40.5 44.5t13.5 66.5zM535 485q0 130 -158 130h-225v-257h224q41 0 69.5 11t50.5 29q17 18 27.5 41t10.5 46h1zM625 160q0 -105 -65.5 -153t-182.5 -48h-293v713h292q46 0 86.5 -8t73.5 -29
q30 -20 46.5 -54.5t16.5 -85.5q0 -59 -30.5 -101.5t-88.5 -57.5q65 -9 105 -57t40 -119z" />
    <glyph glyph-name="uni0413" unicode="&#x413;" horiz-adv-x="598" 
d="M131 615v-656h-65v713h466v-57h-401z" />
    <glyph glyph-name="uni0414" unicode="&#x414;" horiz-adv-x="807" 
d="M595 615h-285v-224q0 -110 -21.5 -208t-77.5 -167h384v599zM709 -171q-10 58 -31 94t-62 36h-400q-33 0 -53 -9t-32 -25q-11 -15 -20.5 -41t-19.5 -55h-41l20 148q55 29 91 70.5t55 94.5q22 51 28.5 114.5t6.5 134.5v281h412v-640q0 -34 20.5 -53.5t56.5 -19.5l13 -130
h-44z" />
    <glyph glyph-name="uni0415" unicode="&#x415;" horiz-adv-x="616" 
d="M71 -40v713h467v-57h-403v-258h377v-57h-377v-284h408v-57h-472z" />
    <glyph glyph-name="uni0416" unicode="&#x416;" horiz-adv-x="871" 
d="M827 -59q-132 0 -209 92.5t-81 264.5h-71v-339h-61v339h-72q-2 -173 -80 -265t-211 -92v61q55 0 97.5 22.5t70.5 64.5q30 42 43.5 100t13.5 126q0 69 -13 127.5t-43 100.5q-29 41 -71 63.5t-98 22.5v58q128 0 204.5 -85t86.5 -246h71v316h61v-316h72q4 80 25.5 142
t61.5 104q37 42 87.5 63.5t115.5 21.5v-58q-56 0 -99 -22.5t-69 -63.5q-30 -42 -44.5 -100.5t-14.5 -127.5q0 -68 14 -126t45 -100q26 -42 69 -64.5t99 -22.5v-61z" />
    <glyph glyph-name="uni0417" unicode="&#x417;" horiz-adv-x="596" 
d="M532 163q0 -55 -20.5 -94.5t-53.5 -64.5q-35 -28 -78 -40.5t-88 -12.5q-50 0 -92 15t-74 45q-31 31 -46.5 75t-14.5 103h60q0 -88 45 -136.5t122 -48.5q37 0 68.5 10t56.5 32q25 19 37.5 49t12.5 68q0 35 -11.5 62t-35.5 45q-20 20 -50.5 29t-64.5 9h-52v59h52
q27 0 50.5 7.5t45.5 23.5q17 18 30 41.5t13 56.5q0 59 -37 96t-115 37q-36 0 -63 -14.5t-48 -37.5q-17 -25 -28.5 -58.5t-12.5 -68.5h-59q-1 49 13.5 91.5t40.5 74.5q29 30 68.5 47.5t88.5 17.5q51 0 90.5 -13.5t68.5 -38.5q25 -25 38.5 -58.5t13.5 -74.5q0 -61 -32 -101
t-82 -55q65 -11 104 -57t39 -120z" />
    <glyph glyph-name="uni0418" unicode="&#x418;" horiz-adv-x="705" 
d="M557 -41v554l-411 -495v-59h-66v713h66v-554l411 494v60h68v-713h-68z" />
    <glyph glyph-name="uni0419" unicode="&#x419;" horiz-adv-x="705" 
d="M557 -41v554l-411 -495v-59h-66v713h66v-554l411 494v60h68v-713h-68zM495 779q-25 -48 -59.5 -70t-90.5 -22q-53 0 -89 22t-57 70l28 17q18 -34 45.5 -55t72.5 -21t74.5 21t43.5 55z" />
    <glyph glyph-name="uni041A" unicode="&#x41a;" horiz-adv-x="681" 
d="M534 -41l-278 370l-125 -126v-244h-64v713h64v-379l381 379h85l-292 -293l309 -420h-80z" />
    <glyph glyph-name="uni041B" unicode="&#x41b;" horiz-adv-x="719" 
d="M578 -41v656h-286v-224q0 -78 -5.5 -145.5t-25.5 -122.5q-17 -58 -54.5 -104.5t-97.5 -82.5l-34 46q53 33 86 74t47 91q15 51 20 110t5 134v281h409v-713h-64z" />
    <glyph glyph-name="uni041C" unicode="&#x41c;" horiz-adv-x="812" 
d="M666 -41v620l-227 -620h-66l-227 620v-620h-66v713h96l230 -626l226 626h100v-713h-66z" />
    <glyph glyph-name="uni041D" unicode="&#x41d;" horiz-adv-x="663" 
d="M515 -41v347h-369v-347h-66v713h66v-307h369v307h68v-713h-68z" />
    <glyph glyph-name="uni041E" unicode="&#x41e;" horiz-adv-x="760" 
d="M624 315q0 69 -18.5 127.5t-49.5 100.5q-30 41 -76.5 63.5t-101.5 22.5t-100 -22.5t-76 -63.5q-34 -42 -51 -100.5t-17 -127.5q0 -68 16.5 -126.5t50.5 -99.5q31 -42 76.5 -64.5t100.5 -22.5t101.5 22.5t76.5 64.5q31 42 49.5 100t18.5 126zM690 315q0 -90 -24.5 -159
t-65.5 -116q-42 -48 -97.5 -73.5t-124.5 -25.5q-68 0 -124 26t-97 74q-41 47 -64 115.5t-23 158.5q0 91 23 160.5t64 115.5q41 47 97 71.5t124 24.5q69 0 124.5 -24.5t97.5 -71.5q41 -46 65.5 -115.5t24.5 -160.5z" />
    <glyph glyph-name="uni041F" unicode="&#x41f;" horiz-adv-x="646" 
d="M521 -41v656h-396v-656h-68v713h528v-713h-64z" />
    <glyph glyph-name="uni0420" unicode="&#x420;" horiz-adv-x="638" 
d="M493 468q0 76 -42.5 111.5t-113.5 35.5h-194v-292h194q71 0 113.5 35t42.5 110zM557 468q0 -96 -55 -150t-151 -54h-208v-305h-64v713h272q48 0 85 -14t64 -39q29 -27 43 -65t14 -86z" />
    <glyph glyph-name="uni0421" unicode="&#x421;" horiz-adv-x="738" 
d="M667 225q-5 -63 -27 -115.5t-58 -89.5q-38 -38 -86.5 -58.5t-111.5 -20.5q-78 0 -136.5 30t-97.5 79q-40 50 -60 117.5t-20 147.5q0 79 20 147.5t60 118.5q39 49 97 77.5t136 28.5q50 0 97.5 -14.5t84.5 -43.5q34 -31 60 -74t33 -98h-68q-16 83 -73 127.5t-133 44.5
q-66 0 -114.5 -26.5t-76.5 -70.5q-30 -47 -44.5 -102.5t-14.5 -114.5t14.5 -115t44.5 -100q27 -45 75.5 -71.5t114.5 -26.5q48 0 86 17t67 46q27 30 42.5 71t20.5 89h68z" />
    <glyph glyph-name="uni0422" unicode="&#x422;" horiz-adv-x="659" 
d="M362 615v-656h-68v656h-224v57h517v-57h-225z" />
    <glyph glyph-name="uni0423" unicode="&#x423;" horiz-adv-x="575" 
d="M283 45q-18 -43 -44.5 -67t-73.5 -24q-18 0 -29 1.5t-19 3.5v52q26 -5 42 -5q12 0 23.5 2.5t20.5 9.5q6 6 13.5 19.5t17.5 35.5l33 95l-201 504h63l165 -432l153 432h60z" />
    <glyph glyph-name="uni0424" unicode="&#x424;" horiz-adv-x="735" 
d="M333 523q-44 -3 -84 -18.5t-68 -42.5q-27 -28 -43 -65t-16 -82q0 -44 16 -80t42 -64q28 -27 68 -44t85 -20v416zM613 315q0 45 -16 82.5t-47 65.5q-27 27 -67 42.5t-86 18.5v-417q46 3 85.5 19.5t66.5 44.5q31 27 47 63.5t16 80.5h1zM673 315q0 -56 -21.5 -102t-58.5 -80
t-87 -54.5t-108 -24.5v-95h-65v95q-56 5 -107 25.5t-88 54.5q-37 35 -58 80.5t-21 100.5q0 58 21 103.5t58 80.5q36 34 87 54.5t108 25.5v93h64v-93q58 -4 108 -24.5t88 -53.5q37 -35 58.5 -81t21.5 -105z" />
    <glyph glyph-name="uni0425" unicode="&#x425;" horiz-adv-x="700" 
d="M558 -41l-210 310l-210 -310h-79l254 366l-237 347h78l195 -291l195 291h80l-238 -345l251 -368h-79z" />
    <glyph glyph-name="uni0426" unicode="&#x426;" horiz-adv-x="774" 
d="M643 -171q-12 58 -33 94t-62 36h-465v713h68v-656h380v656h64v-640q0 -34 20.5 -53.5t56.5 -19.5l17 -130h-46z" />
    <glyph glyph-name="uni0427" unicode="&#x427;" horiz-adv-x="572" 
d="M427 -41v287q-8 -23 -24.5 -42t-36.5 -33q-24 -13 -49 -21.5t-52 -8.5q-51 0 -86.5 14.5t-54.5 41.5q-24 25 -33 62t-9 81v332h59v-322q0 -34 8 -62t21 -48q15 -22 40.5 -34.5t60.5 -12.5q34 0 64 14t49 39q22 22 32 55t10 71v300h65v-713h-64z" />
    <glyph glyph-name="uni0428" unicode="&#x428;" horiz-adv-x="794" 
d="M88 -41v713h68v-656h208v656h64v-656h208v656h68v-713h-616z" />
    <glyph glyph-name="uni0429" unicode="&#x429;" horiz-adv-x="831" 
d="M723 -171q-12 58 -33 94t-62 36h-568v713h66v-656h208v656h68v-656h208v656h64v-640q0 -34 20.5 -53.5t56.5 -19.5l16 -130h-44z" />
    <glyph glyph-name="uni042A" unicode="&#x42a;" horiz-adv-x="744" 
d="M634 159q0 71 -46 106.5t-134 35.5h-188v-285h188q37 0 69.5 8t59.5 24q24 17 37.5 44.5t13.5 66.5zM702 160q0 -105 -66.5 -153t-181.5 -48h-252v656h-160v57h224v-314h188q115 0 181.5 -48.5t66.5 -149.5z" />
    <glyph glyph-name="uni042B" unicode="&#x42b;" horiz-adv-x="794" 
d="M496 159q0 71 -47 106.5t-135 35.5h-167v-285h166q35 0 69.5 8t59.5 24q22 17 37.5 44.5t15.5 66.5h1zM560 160q0 -105 -66.5 -153t-179.5 -48h-233v713h66v-314h166q113 0 179.5 -48.5t66.5 -149.5h1zM646 -41v713h65v-713h-65z" />
    <glyph glyph-name="uni042C" unicode="&#x42c;" horiz-adv-x="699" 
d="M552 159q0 71 -47 106.5t-133 35.5h-229v-285h228q37 0 69.5 8t59.5 24q24 17 37.5 44.5t13.5 66.5h1zM620 160q0 -105 -66.5 -153t-181.5 -48h-293v713h64v-314h228q115 0 182 -48.5t67 -149.5z" />
    <glyph glyph-name="uni042D" unicode="&#x42d;" horiz-adv-x="728" 
d="M667 315q0 -80 -20.5 -147.5t-59.5 -117.5q-39 -49 -98 -79t-137 -30q-121 0 -199 68t-94 197h66q11 -99 70 -151.5t156 -52.5q66 0 111.5 24t77.5 65q29 41 42.5 93.5t16.5 109.5h-367v57h366q-4 55 -18 104.5t-43 89.5q-31 38 -75.5 61t-105.5 23q-38 0 -73 -8.5
t-66 -26.5q-28 -18 -49 -47.5t-32 -70.5h-65q9 56 35 94t65 66q38 27 85 39t99 12q76 0 134.5 -28.5t97.5 -77.5q39 -50 59.5 -118.5t20.5 -147.5z" />
    <glyph glyph-name="uni042E" unicode="&#x42e;" horiz-adv-x="847" 
d="M713 315q0 69 -14 127.5t-37 100.5q-27 41 -61 63.5t-75 22.5t-76 -22.5t-62 -63.5q-23 -42 -38 -100.5t-15 -127.5q0 -68 15 -126.5t38 -99.5q27 -42 62 -64.5t76 -22.5t75 22.5t61 64.5q23 42 37 100t14 126zM781 315q0 -90 -18 -159t-53 -116q-34 -47 -80.5 -73
t-103.5 -26q-58 0 -104 24.5t-79 69.5q-34 44 -52 109t-20 150h-144v-335h-61v713h61v-321h145q7 165 74.5 250.5t179.5 85.5q57 0 103.5 -24.5t80.5 -71.5q35 -46 53 -115.5t18 -160.5z" />
    <glyph glyph-name="uni042F" unicode="&#x42f;" horiz-adv-x="653" 
d="M532 615h-242q-77 0 -115 -38.5t-38 -105.5q0 -33 13 -58.5t32 -41.5q22 -19 48.5 -28t58.5 -9h243v281zM532 -41v315h-246q-47 0 -75 -17t-42 -46q-12 -31 -16 -68t-6 -75q-1 -11 -3.5 -26t-4.5 -29t-5.5 -29t-7.5 -25h-73q11 14 16.5 37.5t9.5 49.5q3 27 4 52t2 43
q1 29 7 54.5t22 48.5q11 20 34 36t60 24q-67 12 -101 61t-34 117q0 50 17 85.5t44 59.5q31 21 69 33t81 12h312v-713h-64z" />
    <glyph glyph-name="uni0430" unicode="&#x430;" horiz-adv-x="611" 
d="M441 246q-9 -13 -23 -20.5t-32 -10.5q-55 -10 -99 -20.5t-75 -23.5q-29 -13 -42.5 -33.5t-13.5 -52.5q0 -45 29.5 -67.5t81.5 -22.5q37 0 69.5 11t53.5 33q24 20 37 51t13 69zM556 -37q-11 -2 -18.5 -3t-21.5 -1q-42 0 -56 23.5t-14 65.5q-16 -45 -62 -76t-124 -31
q-35 0 -64.5 9.5t-54.5 25.5q-21 18 -35.5 44t-14.5 63q0 49 21 78.5t58 51.5q38 18 86.5 29t108.5 21q38 7 57 22t19 45q0 57 -36.5 81.5t-96.5 24.5q-54 0 -92 -28.5t-41 -92.5h-61q2 43 18 76.5t41 56.5q29 20 65 31t79 11q35 0 68.5 -7.5t60.5 -25.5q23 -20 38.5 -51.5
t15.5 -81.5v-275q0 -17 8.5 -27.5t28.5 -10.5q10 0 19 4v-52z" />
    <glyph glyph-name="uni0431" unicode="&#x431;" horiz-adv-x="612" 
d="M481 216q0 49 -12.5 89.5t-37.5 70.5q-21 28 -54.5 44t-72.5 16t-70.5 -16t-56.5 -44q-21 -30 -34.5 -70.5t-13.5 -89.5q0 -48 13.5 -88.5t34.5 -70.5q25 -30 56.5 -45t70.5 -15t72.5 15t54.5 45q25 30 37.5 70.5t12.5 88.5zM542 216q0 -59 -17.5 -109.5t-47.5 -86.5
q-29 -38 -73 -58.5t-100 -20.5q-54 0 -97 20.5t-75 58.5q-31 36 -46.5 87t-15.5 110q0 67 13 126t39 109q21 48 53 80.5t67 47.5q37 13 65.5 26t54.5 25q22 12 43 26t45 32l25 -30q-22 -23 -44 -40.5t-46 -30.5q-21 -13 -45.5 -24.5t-51.5 -19.5q-28 -9 -53 -30.5t-37 -49.5
q47 26 106 26q56 0 100 -20t73 -56q30 -37 47.5 -88.5t17.5 -109.5z" />
    <glyph glyph-name="uni0432" unicode="&#x432;" horiz-adv-x="631" 
d="M500 107q0 49 -34 73.5t-120 24.5h-195v-194h194q75 0 115 22.5t40 73.5zM472 339q0 18 -5 33t-17 26q-16 11 -40.5 17t-63.5 6h-195v-164h194q40 0 64.5 6t40.5 18q11 11 16 26t5 32h1zM559 107q0 -82 -49 -115t-164 -33h-258v514h257q102 0 146 -27.5t44 -99.5
q0 -42 -21 -72.5t-75 -40.5q54 -3 87 -35t33 -91z" />
    <glyph glyph-name="uni0433" unicode="&#x433;" horiz-adv-x="528" 
d="M125 421v-462h-61v514h398v-52h-337z" />
    <glyph glyph-name="uni0434" unicode="&#x434;" horiz-adv-x="724" 
d="M542 421h-287v-31q0 -55 -2.5 -111t-10.5 -106q-10 -49 -27 -91t-47 -71h374v410zM652 -171q-14 58 -35 94t-62 36h-361q-33 0 -53 -9t-32 -25q-15 -15 -22.5 -41t-17.5 -55h-41l16 147q53 26 85 67t47 94q18 53 23 117t5 136v83h398v-442q0 -34 20.5 -53t56.5 -19
l17 -130h-44z" />
    <glyph glyph-name="uni0435" unicode="&#x435;" horiz-adv-x="586" 
d="M455 253q-1 34 -13.5 67t-31.5 59q-23 25 -51.5 41t-66.5 16t-65.5 -15t-49.5 -41q-19 -26 -32 -58.5t-16 -68.5h326zM129 200q0 -43 12 -80t31 -65q23 -30 52 -44t68 -14q35 0 61 10t48 29q18 17 32 41t20 52h59q-17 -88 -73 -138t-147 -50q-48 0 -89.5 19.5t-72.5 55.5
q-30 35 -45 84.5t-15 115.5q0 55 13 105.5t42 87.5q28 36 70 58.5t97 22.5q59 0 102.5 -24.5t68.5 -61.5q28 -39 39.5 -92.5t11.5 -111.5h-385z" />
    <glyph glyph-name="uni0436" unicode="&#x436;" horiz-adv-x="774" 
d="M711 -59q-51 0 -93 19.5t-74 53.5q-31 33 -47.5 79.5t-20.5 103.5h-59v-238h-60v238h-64q-1 -57 -19.5 -103.5t-48.5 -79.5q-28 -34 -70.5 -53.5t-96.5 -19.5v56q39 0 72.5 15t57.5 45q21 30 34.5 70.5t13.5 88.5q0 49 -13.5 89.5t-34.5 70.5q-23 28 -56.5 44t-73.5 16
v54q52 0 93.5 -18t69.5 -50q29 -32 48.5 -76t22.5 -96h64v223h61v-223h59q6 52 23.5 96t48.5 76q32 32 73 50t90 18v-54q-39 0 -70.5 -16t-56.5 -44q-24 -30 -35.5 -70.5t-11.5 -89.5q0 -48 11.5 -88.5t34.5 -70.5q25 -30 56.5 -45t71.5 -15v-56z" />
    <glyph glyph-name="uni0437" unicode="&#x437;" horiz-adv-x="602" 
d="M531 105q0 -43 -20 -73t-53 -50q-35 -19 -77.5 -28t-87.5 -9q-43 0 -84.5 9t-72.5 28q-30 22 -48.5 58t-17.5 89h55q0 -41 15.5 -66.5t37.5 -41.5q25 -15 54 -20.5t61 -5.5q35 0 66 4.5t58 17.5q25 14 39 35.5t14 52.5q0 27 -11.5 45t-35.5 28q-20 10 -50.5 15t-64.5 5
h-52v57h52q29 0 54 6t46 18q16 13 27.5 29t11.5 35q0 29 -14.5 47.5t-33.5 29.5q-23 9 -49 13t-55 4q-19 0 -46.5 -7t-48.5 -21q-25 -16 -41.5 -40.5t-17.5 -59.5h-57q0 45 18.5 78.5t47.5 53.5q27 23 65 33.5t79 10.5q43 0 82.5 -7.5t68.5 -23.5q26 -19 42.5 -46t16.5 -65
q0 -45 -23 -74t-78 -40q26 -4 49.5 -11.5t42.5 -22.5q15 -15 25.5 -37t10.5 -53z" />
    <glyph glyph-name="uni0438" unicode="&#x438;" horiz-adv-x="575" 
d="M444 -41v377l-315 -318v-59h-59v515h59v-377l315 318v59h59v-515h-59z" />
    <glyph glyph-name="uni0439" unicode="&#x439;" horiz-adv-x="575" 
d="M444 -41v377l-315 -318v-59h-59v515h59v-377l315 318v59h59v-515h-59zM428 626q-21 -48 -57.5 -70t-88.5 -22q-56 0 -90.5 22t-59.5 70l32 16q14 -35 43.5 -56t74.5 -21t72.5 21t45.5 56z" />
    <glyph glyph-name="uni043A" unicode="&#x43a;" horiz-adv-x="564" 
d="M423 -41l-197 282l-101 -93v-189h-59v515h59v-248l273 248h84l-208 -190l224 -325h-75z" />
    <glyph glyph-name="uni043B" unicode="&#x43b;" horiz-adv-x="661" 
d="M536 -41v462h-280v-49q0 -79 -3.5 -142t-19.5 -115q-18 -53 -48.5 -96t-87.5 -82l-33 39q45 30 72.5 64.5t40.5 80.5q16 45 20.5 105.5t4.5 144.5v102h393v-514h-59z" />
    <glyph glyph-name="uni043C" unicode="&#x43c;" horiz-adv-x="782" 
d="M639 -41v426l-219 -426h-60l-221 426v-426h-59v515h83l226 -443l230 443h83v-515h-63z" />
    <glyph glyph-name="uni043D" unicode="&#x43d;" horiz-adv-x="633" 
d="M492 -41v238h-353v-238h-59v515h59v-224h353v224h59v-515h-59z" />
    <glyph glyph-name="uni043E" unicode="&#x43e;" horiz-adv-x="592" 
d="M469 216q0 49 -11.5 89.5t-36.5 70.5q-21 28 -54.5 44t-72.5 16t-70.5 -16t-56.5 -44q-21 -30 -33.5 -70.5t-12.5 -89.5q0 -48 12.5 -88.5t33.5 -70.5q25 -30 56.5 -45t70.5 -15t72.5 15t54.5 45q25 30 36.5 70.5t11.5 88.5zM532 216q0 -59 -16.5 -109.5t-48.5 -86.5
q-29 -38 -74 -58.5t-99 -20.5q-52 0 -96 20.5t-74 58.5q-33 36 -49.5 86.5t-16.5 109.5q0 58 16.5 109.5t49.5 88.5q30 36 74 56t96 20q54 0 99 -20t74 -56q32 -37 48.5 -88.5t16.5 -109.5z" />
    <glyph glyph-name="uni043F" unicode="&#x43f;" horiz-adv-x="598" 
d="M465 -41v462h-336v-462h-59v514h458v-514h-63z" />
    <glyph glyph-name="uni0440" unicode="&#x440;" horiz-adv-x="592" 
d="M464 216q0 45 -10.5 85t-33.5 71q-20 27 -51.5 45.5t-68.5 18.5q-42 0 -74 -18t-56 -45q-21 -31 -33 -71t-12 -86q0 -42 10.5 -81.5t31.5 -69.5t53.5 -49t79.5 -19q37 0 68.5 17.5t51.5 46.5q23 30 33.5 70t10.5 85zM527 216q0 -66 -16 -115.5t-47 -84.5
q-30 -36 -71.5 -55.5t-92.5 -19.5q-29 0 -58 10t-50 24q-25 17 -42 37.5t-25 43.5v-256h-60v674h60v-97q16 47 62 80t113 33q51 0 92.5 -19t71.5 -54q31 -36 47 -86t16 -115z" />
    <glyph glyph-name="uni0441" unicode="&#x441;" horiz-adv-x="565" 
d="M502 133q-12 -90 -67 -141t-143 -51q-54 0 -97.5 20.5t-72.5 57.5q-32 36 -47.5 86.5t-15.5 110.5q0 57 15.5 108t47.5 88q29 36 72 57t98 21q41 0 76.5 -13t60.5 -37q29 -22 47 -56t24 -76h-61q-11 58 -49.5 93t-97.5 35q-42 0 -75 -18.5t-52 -45.5q-24 -31 -33.5 -71
t-9.5 -85q0 -47 10.5 -87.5t34.5 -70.5q23 -31 53.5 -46t71.5 -15q58 0 98.5 36.5t52.5 99.5h59z" />
    <glyph glyph-name="uni0442" unicode="&#x442;" horiz-adv-x="599" 
d="M331 421v-462h-65v462h-208v52h482v-52h-209z" />
    <glyph glyph-name="uni0443" unicode="&#x443;" horiz-adv-x="565" 
d="M292 -110q-16 -45 -43.5 -67.5t-76.5 -22.5q-16 0 -27.5 1t-19.5 3v53q29 -5 42 -5q29 0 43.5 13t32.5 54l18 50l-202 505h66l166 -432l151 432h60z" />
    <glyph glyph-name="uni0444" unicode="&#x444;" horiz-adv-x="792" 
d="M368 425q-29 11 -54 11q-39 0 -72.5 -16t-56.5 -44q-21 -30 -34.5 -70.5t-13.5 -89.5q0 -48 13.5 -88.5t34.5 -70.5q23 -30 56.5 -45t72.5 -15q25 0 54 10v418zM653 216q0 49 -13.5 89.5t-34.5 70.5q-23 28 -56.5 44t-72.5 16q-23 0 -49 -10v-421q13 -3 24.5 -5.5
t24.5 -2.5q39 0 72.5 15t56.5 45q21 30 34.5 70.5t13.5 88.5zM712 216q0 -59 -16.5 -109.5t-44.5 -86.5q-31 -38 -75 -58.5t-100 -20.5q-13 0 -24.5 3.5t-24.5 6.5v-142h-59v143q-13 -3 -26.5 -7t-27.5 -4q-56 0 -100 20.5t-74 58.5q-29 36 -45.5 86.5t-16.5 109.5
q0 58 16.5 109.5t45.5 88.5q30 36 74 56t100 20q14 0 27.5 -3.5t26.5 -5.5v191h59v-190q13 1 24.5 4.5t24.5 3.5q56 0 100 -20t75 -56q28 -37 44.5 -88.5t16.5 -109.5z" />
    <glyph glyph-name="uni0445" unicode="&#x445;" horiz-adv-x="598" 
d="M457 -41l-160 221l-158 -221h-68l191 269l-179 246h75l138 -200l139 200h73l-175 -246l194 -269h-70z" />
    <glyph glyph-name="uni0446" unicode="&#x446;" horiz-adv-x="666" 
d="M556 -171q-12 58 -34 94t-63 36h-393v515h59v-463h322v463h59v-442q0 -34 20.5 -53.5t56.5 -19.5l15 -130h-42z" />
    <glyph glyph-name="uni0447" unicode="&#x447;" horiz-adv-x="548" 
d="M417 -41v216q-8 -23 -25 -41t-40 -33q-20 -13 -45.5 -21t-53.5 -8q-49 0 -84.5 13.5t-54.5 41.5q-23 23 -31 60.5t-8 82.5v204h54v-193q0 -33 7 -62t24 -49q13 -22 37.5 -33.5t59.5 -11.5q36 0 65 12t52 38q18 24 30 56t12 70v173h55v-515h-54z" />
    <glyph glyph-name="uni0448" unicode="&#x448;" horiz-adv-x="754" 
d="M75 -41v515h59v-463h211v463h63v-463h210v463h59v-515h-602z" />
    <glyph glyph-name="uni0449" unicode="&#x449;" horiz-adv-x="790" 
d="M699 -171q-14 58 -35 94t-62 36h-557v515h63v-463h211v463h59v-463h210v463h63v-442q0 -34 20.5 -53.5t54.5 -19.5l17 -130h-44z" />
    <glyph glyph-name="uni044A" unicode="&#x44a;" horiz-adv-x="656" 
d="M544 107q0 24 -5.5 42.5t-23.5 29.5q-15 11 -42 18.5t-70 7.5h-167v-194h166q73 0 107 22.5t34 73.5h1zM608 107q0 -39 -11.5 -67t-33.5 -46q-24 -19 -64 -27t-95 -8h-229v462h-128v52h189v-216h166q56 0 96 -8.5t62 -27.5q24 -18 36 -46.5t12 -67.5z" />
    <glyph glyph-name="uni044B" unicode="&#x44b;" horiz-adv-x="704" 
d="M419 107q0 24 -5 42.5t-23 29.5q-16 11 -42.5 18.5t-69.5 7.5h-138v-194h138q73 0 106.5 22.5t33.5 73.5zM482 107q0 -39 -11 -67t-33 -46q-24 -19 -64 -27t-95 -8h-197v515h59v-217h138q55 0 94.5 -8.5t61.5 -27.5q24 -18 35.5 -46.5t11.5 -67.5zM559 -41v515h63v-515
h-63z" />
    <glyph glyph-name="uni044C" unicode="&#x44c;" horiz-adv-x="558" 
d="M430 107q0 24 -5.5 42.5t-18.5 29.5q-18 11 -45.5 18.5t-68.5 7.5h-167v-194h166q75 0 106.5 22.5t31.5 73.5h1zM494 107q0 -39 -11.5 -67t-32.5 -46q-25 -19 -64 -27t-94 -8h-227v515h60v-217h166q111 0 157 -37t46 -113z" />
    <glyph glyph-name="uni044D" unicode="&#x44d;" horiz-adv-x="568" 
d="M505 216q0 -60 -15.5 -110.5t-42.5 -86.5q-30 -37 -72.5 -57.5t-98.5 -20.5q-88 0 -144 48.5t-72 139.5h63q7 -64 50 -98t102 -34q39 0 69 13.5t52 40.5q21 27 33 62t15 78h-263v56h263q-3 39 -15 73t-33 60t-50.5 41t-68.5 15q-62 0 -102 -32.5t-49 -90.5h-60
q6 42 24.5 75t44.5 53q29 24 64.5 36.5t76.5 12.5q56 0 98.5 -21t72.5 -57q27 -37 42.5 -88t15.5 -108z" />
    <glyph glyph-name="uni044E" unicode="&#x44e;" horiz-adv-x="792" 
d="M659 216q0 49 -12.5 89.5t-31.5 70.5q-23 28 -53 44t-69 16t-71 -16t-51 -44q-24 -30 -34 -70.5t-10 -89.5q0 -48 10 -88.5t33 -70.5q19 -30 51 -45t71 -15t69 15t53 45q19 30 31.5 70.5t12.5 88.5h1zM718 216q0 -59 -14 -109.5t-42 -86.5q-31 -38 -73.5 -58.5
t-94.5 -20.5t-92.5 19t-68.5 52q-31 34 -46 79.5t-20 99.5h-134v-232h-61v514h60v-226h134q6 53 21.5 97.5t45.5 76.5q29 33 69 51t91 18q52 0 94.5 -20t73.5 -56q29 -37 43 -88.5t14 -109.5z" />
    <glyph glyph-name="uni044F" unicode="&#x44f;" horiz-adv-x="573" 
d="M439 421h-184q-61 0 -94.5 -22t-33.5 -73q0 -53 33 -73.5t94 -20.5h185v189zM439 -41v220h-184q-55 0 -81 -25t-32 -86q-1 -11 -3 -26t-4 -29q-3 -14 -6.5 -29t-5.5 -25h-72q16 33 23 62.5t9 68.5q10 107 101 116q-51 5 -82.5 35t-31.5 89q0 79 48.5 111t132.5 32h249
v-514h-61z" />
    <glyph glyph-name="uni0451" unicode="&#x451;" horiz-adv-x="586" 
d="M455 253q-1 34 -13.5 67t-31.5 59q-23 25 -51.5 41t-66.5 16t-65.5 -15t-49.5 -41q-19 -26 -32 -58.5t-16 -68.5h326zM129 200q0 -43 12 -80t31 -65q23 -30 52 -44t68 -14q35 0 61 10t48 29q18 17 32 41t20 52h59q-17 -88 -73 -138t-147 -50q-48 0 -89.5 19.5t-72.5 55.5
q-30 35 -45 84.5t-15 115.5q0 55 13 105.5t42 87.5q28 36 70 58.5t97 22.5q59 0 102.5 -24.5t68.5 -61.5q28 -39 39.5 -92.5t11.5 -111.5h-385zM156 566v77h75v-77h-75zM332 566v77h75v-77h-75z" />
    <glyph glyph-name="quoteleft" unicode="&#x2018;" horiz-adv-x="277" 
d="M195 502h-111v245h111v-245z" />
    <glyph glyph-name="quoteright" unicode="&#x2019;" horiz-adv-x="277" 
d="M195 502h-111v245h111v-245z" />
    <glyph glyph-name="quotedblleft" unicode="&#x201c;" horiz-adv-x="445" 
d="M187 502h-111l-1 245h112v-245zM362 502h-111v245h111v-245z" />
    <glyph glyph-name="quotedblright" unicode="&#x201d;" horiz-adv-x="445" 
d="M187 502h-111l-1 245h112v-245zM362 502h-111v245h111v-245z" />
    <glyph glyph-name="dagger" unicode="&#x2020;" horiz-adv-x="552" 
d="M294 382v-394h-36v394h-198v34h198v224h36v-224h198v-34h-198z" />
    <glyph glyph-name="daggerdbl" unicode="&#x2021;" horiz-adv-x="552" 
d="M294 315v-328h-36v328h-198v34h198v130h-198v34h198v126h36v-126h198v-34h-198v-130h198v-34h-198z" />
    <glyph glyph-name="twodotenleader" unicode="&#x2025;" horiz-adv-x="940" 
d="M301 331q0 -26 -17 -42t-39 -16q-26 0 -41.5 16t-15.5 42q0 23 15.5 40t41.5 17q22 0 39 -17t17 -40zM750 331q0 -26 -17 -42t-39 -16q-26 0 -42.5 16t-16.5 41q0 24 16.5 41t42.5 17q22 0 39 -17t17 -40z" />
    <glyph glyph-name="ellipsis" unicode="&#x2026;" horiz-adv-x="940" 
d="M119 331q0 20 14.5 34.5t33.5 14.5q23 0 36.5 -14.5t13.5 -34.5q0 -22 -13.5 -36t-36.5 -14q-19 0 -33.5 14t-14.5 36zM418 331q0 20 15.5 34.5t34.5 14.5q23 0 36.5 -14.5t13.5 -34.5q0 -22 -13.5 -36t-36.5 -14q-19 0 -34.5 14t-15.5 36zM719 331q0 20 15.5 34.5
t36.5 14.5t35.5 -14.5t14.5 -34.5q0 -22 -14.5 -36t-35.5 -14t-36.5 14t-15.5 36z" />
    <glyph glyph-name="perthousand" unicode="&#x2030;" horiz-adv-x="940" 
d="M557 142q0 30 -4 56t-13 45.5t-22.5 30.5t-31.5 11t-31.5 -11t-22 -30.5t-12.5 -45.5t-4 -56t4 -56t12.5 -45.5t22 -30.5t31.5 -11t31.5 11t22.5 30.5t13 45.5t4 56zM246 479q0 30 -4 56t-12.5 45.5t-22 30.5t-31.5 11t-31.5 -11t-22.5 -30.5t-13 -45.5t-4 -56t4 -56
t13 -45.5t22.5 -30.5t31.5 -11t31.5 11t22 30.5t12.5 45.5t4 56zM834 142q0 30 -4 56t-12.5 45.5t-22 30.5t-31.5 11t-31.5 -11t-22.5 -30.5t-13 -45.5t-4 -56t4 -56t13 -45.5t22.5 -30.5t31.5 -11t31.5 11t22 30.5t12.5 45.5t4 56zM608 142q0 -91 -31 -140t-91 -49
t-90.5 49t-30.5 140t30.5 140t90.5 49t91 -49t31 -140zM144 -66h-46l432 753h44zM297 479q0 -91 -31.5 -140t-89.5 -49q-60 0 -91 49t-31 140t31 140t91 49t90.5 -49t30.5 -140zM885 142q0 -91 -31.5 -140t-89.5 -49q-60 0 -91 49t-31 140t31 140t91 49t90.5 -49t30.5 -140z
" />
    <glyph glyph-name="minute" unicode="&#x2032;" horiz-adv-x="459" 
d="M165 494h-24l91 235h86z" />
    <glyph glyph-name="second" unicode="&#x2033;" horiz-adv-x="480" 
d="M102 494h-22l91 235h84zM247 494h-22l91 235h84z" />
    <glyph glyph-name="uni203B" unicode="&#x203b;" horiz-adv-x="940" 
d="M519 43q0 -23 -17 -39.5t-40 -16.5t-39.5 16.5t-16.5 39.5q0 24 16.5 40.5t39.5 16.5t40 -16.5t17 -40.5zM274 298q0 -23 -17.5 -40t-40.5 -17t-40 17t-17 40t17 40t40 17t40.5 -17t17.5 -40zM727 3l-264 267l-264 -267l-31 31l266 265l-264 264l28 31l264 -267l266 267
l28 -31l-264 -264l266 -265zM519 545q0 -23 -17 -40t-40 -17t-40 17t-17 40t17 40t40 17t40 -17t17 -40zM780 298q0 -23 -17 -39.5t-40 -16.5t-40 16.5t-17 39.5q0 24 17 40.5t40 16.5t40 -16.5t17 -40.5z" />
    <glyph glyph-name="uni2074" unicode="&#x2074;" horiz-adv-x="406" 
d="M224 690l-76 -115h76v115zM252 547v-52h-28v52h-101v28l102 153h27v-153h31v-28h-31z" />
    <glyph glyph-name="uni207F" unicode="&#x207f;" horiz-adv-x="420" 
d="M257 495v151q0 24 -10.5 37.5t-34.5 13.5t-38.5 -16t-14.5 -43v-143h-29v221h29v-31q5 15 21 26t34 11q35 0 54 -18t19 -46v-163h-30z" />
    <glyph glyph-name="uni2081" unicode="&#x2081;" horiz-adv-x="405" 
d="M211 -116v172h-47v22q24 2 36 10.5t15 30.5h26v-235h-30z" />
    <glyph glyph-name="uni2082" unicode="&#x2082;" horiz-adv-x="408" 
d="M280 55q0 -31 -16.5 -50.5t-43.5 -35.5q-24 -17 -38.5 -30t-19.5 -27h115v-30h-152q5 41 28 64.5t57 47.5q23 13 31.5 27.5t8.5 33.5q0 41 -42 41q-25 0 -36 -16.5t-11 -40.5h-31q0 35 21.5 59t56.5 24q34 0 53 -17.5t19 -49.5z" />
    <glyph glyph-name="uni2083" unicode="&#x2083;" horiz-adv-x="428" 
d="M293 -48q0 -32 -22 -52t-59 -20q-33 0 -57 20.5t-23 59.5h31q-1 -30 15 -42t34 -12q25 0 39 12.5t14 33.5q0 22 -12.5 32.5t-36.5 10.5h-15v26h15q19 0 30 11t11 29t-11 26.5t-33 8.5q-45 0 -46 -51h-30q0 32 21.5 54.5t53.5 22.5q34 0 54.5 -16.5t20.5 -44.5
q0 -19 -11.5 -34.5t-30.5 -18.5q19 -3 33.5 -18.5t14.5 -37.5z" />
    <glyph glyph-name="uni2084" unicode="&#x2084;" horiz-adv-x="406" 
d="M224 81l-76 -117h76v117zM252 -63v-53h-28v53h-101v27l102 155h27v-155h31v-27h-31z" />
    <glyph glyph-name="uni2103" unicode="&#x2103;" horiz-adv-x="751" 
d="M686 118q-30 -55 -77.5 -87t-114.5 -32q-57 0 -101.5 25t-75.5 68.5t-47.5 102.5t-16.5 127q0 75 15.5 136t46.5 104t77 66t106 23q83 0 135 -45.5t76 -121.5l-97 -37q-6 25 -15.5 47.5t-24 39.5t-34 27t-44.5 10q-39 0 -64 -25.5t-40 -63t-20.5 -81t-5.5 -78.5
q0 -33 6 -74.5t21 -78t40 -61.5t63 -25q37 0 62.5 20t42.5 57zM249 614q0 -21 -8 -40t-22.5 -33.5t-34 -22.5t-42.5 -8q-21 0 -40 8t-34 21.5t-23.5 32.5t-8.5 42q0 21 8.5 40t23 33t33.5 22.5t41 8.5q21 0 40.5 -8t34.5 -21.5t23.5 -33t8.5 -41.5zM181 616q0 17 -10 30
t-28 13q-16 0 -26.5 -13t-10.5 -30q0 -18 10.5 -31.5t26.5 -13.5q18 0 28 13.5t10 31.5z" />
    <glyph glyph-name="uni2109" unicode="&#x2109;" horiz-adv-x="710" 
d="M678 578h-268v-266h249v-79h-249v-241h-112v665h380v-79zM243 614q0 -21 -8 -40t-22.5 -33.5t-34 -22.5t-42.5 -8q-21 0 -40 8t-34 21.5t-23.5 32.5t-8.5 42q0 21 8.5 40t23 33t33.5 22.5t41 8.5q21 0 40.5 -8t34.5 -21.5t23.5 -33t8.5 -41.5zM175 616q0 17 -10 30
t-28 13q-16 0 -26.5 -13t-10.5 -30q0 -18 10.5 -31.5t26.5 -13.5q18 0 28 13.5t10 31.5z" />
    <glyph glyph-name="uni2113" unicode="&#x2113;" horiz-adv-x="540" 
d="M383 546q0 33 -7.5 52.5t-23.5 19.5q-19 0 -40.5 -36.5t-35.5 -99.5q-13 -45 -19.5 -91t-10.5 -88q-5 -43 -7 -80.5t-2 -65.5q61 80 103.5 177.5t42.5 211.5zM441 549q0 -71 -15.5 -136t-44.5 -122q-25 -59 -62 -110t-79 -93q4 -42 18.5 -64.5t33.5 -22.5q12 0 24 7.5
t20 22.5q10 13 19.5 30.5t17.5 34.5l44 -21q-28 -67 -56.5 -95.5t-73.5 -28.5q-36 0 -60.5 28t-30.5 70q-14 -10 -31.5 -24.5t-38.5 -24.5l-29 43q24 13 47.5 31t45.5 34q-7 102 0 194.5t29 193.5q7 28 19.5 61t32.5 62q18 27 40.5 45t52.5 18q18 0 33.5 -13t23.5 -34
q9 -19 14.5 -44t5.5 -42z" />
    <glyph glyph-name="uni2116" unicode="&#x2116;" horiz-adv-x="940" 
d="M755 218q0 49 -9 89.5t-25 69.5t-39 45t-51 16q-27 0 -50 -16t-39 -45t-25 -69.5t-9 -89.5t9 -89.5t25 -69.5t39 -45t50 -16q28 0 51 16t39 45t25 69.5t9 89.5zM375 -40l-266 605v-605h-47v714h53l267 -605v605h46v-714h-53zM797 218q0 -60 -11.5 -110t-33 -86.5
t-52 -56.5t-69.5 -20q-38 0 -69 20t-52.5 56.5t-33 86.5t-11.5 110t11.5 110t33 86.5t52.5 56.5t69 20q39 0 69.5 -20t52 -56.5t33 -86.5t11.5 -110zM802 -40v110h75v-110h-75z" />
    <glyph glyph-name="uni2121" unicode="&#x2121;" horiz-adv-x="940" 
d="M690 254q-1 34 -10.5 67.5t-26 59t-40 41.5t-53.5 16q-29 0 -52 -15.5t-39.5 -41t-26 -58.5t-11.5 -69h259zM300 616v-656h-53v656h-174v58h403v-58h-176zM431 201q0 -43 9 -80t25.5 -64.5t40.5 -43t55 -15.5q27 0 48 10.5t37 28.5t26.5 42t15.5 51h49
q-15 -88 -59.5 -136.5t-116.5 -48.5q-40 0 -73 18.5t-56.5 54t-36.5 86t-13 114.5q0 55 11 105t33.5 87t55.5 59t78 22q48 0 82 -23t55.5 -62.5t31.5 -92.5t10 -112h-308zM818 -40v714h49v-714h-49z" />
    <glyph glyph-name="trademark" unicode="&#x2122;" horiz-adv-x="940" 
d="M259 674v-266h-48v266h-150v42h348v-42h-150zM830 408v245l-150 -245h-43l-152 243v-243h-47v308h53l167 -259l167 259h53v-308h-48z" />
    <glyph glyph-name="Omega" unicode="&#x2126;" horiz-adv-x="682" 
d="M622 411q0 -57 -16 -101.5t-39 -77.5q-26 -33 -61 -54.5t-73 -31.5v-142h117v122h55v-167h-228v222q90 22 138 79.5t48 150.5q0 46 -15.5 87.5t-46.5 73.5q-29 30 -70 48t-92 18q-45 0 -85.5 -18t-70.5 -48q-28 -32 -46 -73.5t-18 -87.5q0 -93 46 -150.5t136 -79.5v-222
h-224v167h51v-122h119v142q-39 10 -73.5 31.5t-57.5 54.5q-28 33 -43 77.5t-15 101.5q0 59 21.5 110.5t59.5 86.5q37 37 89.5 58t110.5 21q62 0 112.5 -21t90.5 -58q37 -35 58.5 -86.5t21.5 -110.5z" />
    <glyph glyph-name="uni212B" unicode="&#x212b;" horiz-adv-x="661" 
d="M330 413l-101 -243h202zM388 633q0 23 -16.5 41.5t-41.5 18.5q-23 0 -40.5 -18.5t-17.5 -41.5t17.5 -41.5t40.5 -18.5q25 0 41.5 18.5t16.5 41.5zM529 -64l-75 180h-247l-75 -180h-69l230 548h75l230 -548h-69zM420 633q0 -18 -7 -34.5t-19 -28.5t-28.5 -19t-35.5 -7
q-37 0 -63 26t-26 63t26 63t63 26q19 0 35.5 -7t28.5 -19t19 -28.5t7 -34.5z" />
    <glyph glyph-name="onethird" unicode="&#x2153;" horiz-adv-x="713" 
d="M646 -1q0 -28 -10.5 -48.5t-26.5 -33.5q-19 -17 -41 -23.5t-44 -6.5q-57 0 -91.5 33t-29.5 95h43q-2 -42 18.5 -66.5t58.5 -24.5q30 0 54 19.5t24 52.5q0 29 -21 47t-51 18h-32v40h32q20 0 40 14t20 43q0 28 -19.5 42.5t-46.5 14.5q-35 0 -53.5 -22t-16.5 -64h-42
q0 56 28 90.5t84 34.5q19 0 39.5 -5t34.5 -18q17 -12 25.5 -29.5t8.5 -40.5q0 -26 -9.5 -46t-32.5 -30q28 -11 42.5 -34.5t14.5 -51.5zM91 7l-24 25l538 561l25 -25zM167 345v248h-73v35q21 1 33.5 4t23.5 12q9 6 13.5 22t7.5 40h36v-361h-41z" />
    <glyph glyph-name="twothirds" unicode="&#x2154;" horiz-adv-x="770" 
d="M689 -1q0 -28 -11 -48.5t-26 -33.5q-19 -17 -41 -23.5t-44 -6.5q-57 0 -91.5 33t-29.5 95h43q-2 -42 18.5 -66.5t58.5 -24.5q30 0 55 19.5t25 52.5q0 29 -22 47t-52 18h-32v40h32q20 0 40 14t20 43q0 28 -19.5 42.5t-46.5 14.5q-35 0 -53.5 -22t-16.5 -64h-42
q0 56 28 90.5t84 34.5q19 0 39 -5t35 -18q17 -12 25.5 -29.5t8.5 -40.5q0 -26 -9.5 -46t-32.5 -30q28 -11 42.5 -34.5t14.5 -51.5zM150 7l-26 25l538 561l27 -25zM81 346q1 33 10 55.5t28 39.5q14 20 35.5 34.5t46.5 29.5q12 9 24.5 19t23.5 21q12 13 19.5 27t7.5 33
q0 30 -20.5 47t-49.5 17q-39 0 -57 -26.5t-18 -68.5h-43q-1 59 29 96.5t90 37.5q46 0 79 -25.5t33 -77.5q0 -27 -11.5 -48.5t-26.5 -39.5q-19 -17 -40 -31.5t-40 -27.5q-21 -15 -42.5 -31t-28.5 -40h190v-41h-239z" />
    <glyph glyph-name="oneeighth" unicode="&#x215b;" horiz-adv-x="736" 
d="M618 -4q0 33 -24.5 51t-58.5 18q-35 0 -58 -17t-23 -52t23 -53.5t57 -18.5q35 0 59.5 18.5t24.5 53.5zM601 163q0 25 -17.5 39t-48.5 14q-28 0 -49 -14t-21 -39q0 -33 20.5 -46t48.5 -13q26 0 46 13.5t20 45.5h1zM661 -4q0 -28 -11 -49t-26 -34q-17 -15 -41 -22t-48 -7
q-66 0 -96 32t-30 80q0 27 15.5 53.5t42.5 37.5q-19 10 -32 29.5t-13 46.5q0 23 11 40.5t25 28.5q16 13 35.5 18t40.5 5q18 0 38 -5t39 -18q14 -11 25 -28.5t11 -40.5q0 -27 -12 -46.5t-35 -29.5q28 -11 44.5 -35.5t16.5 -55.5zM100 7l-25 25l538 561l26 -25zM174 345v248
h-72v35q21 1 34.5 4t22.5 12q8 6 13 22t8 40h37v-361h-43z" />
    <glyph glyph-name="threeeighths" unicode="&#x215c;" horiz-adv-x="770" 
d="M639 -4q0 33 -24.5 51t-58.5 18q-31 0 -55.5 -17t-24.5 -52t24 -53.5t56 -18.5q35 0 59 18.5t24 53.5zM625 163q0 25 -19 39t-50 14q-24 0 -44.5 -14t-20.5 -39q0 -33 20.5 -46t44.5 -13q28 0 48.5 13.5t20.5 45.5zM682 -4q0 -28 -9 -49t-26 -34q-19 -15 -41.5 -22
t-49.5 -7q-62 0 -93.5 32t-31.5 80q0 27 15 53.5t46 37.5q-44 21 -44 76q0 23 9 40.5t27 28.5q16 13 35.5 18t36.5 5q22 0 42 -5t34 -18q18 -11 27 -28.5t9 -40.5q0 -27 -11 -46.5t-32 -29.5q29 -11 43 -35.5t14 -55.5zM125 7l-28 25l538 561l29 -25zM329 453
q0 -28 -11 -48.5t-26 -33.5q-17 -15 -39 -22.5t-46 -7.5q-55 0 -90.5 33t-32.5 95h43q-2 -42 19 -66t60 -24q32 0 56 19t24 52q0 31 -21 48t-55 17h-32v40h32q24 0 44 14t20 41q0 30 -19.5 45t-48.5 15q-37 0 -55.5 -22.5t-16.5 -64.5h-42q0 56 30 91t84 35q19 0 38.5 -5.5
t37.5 -18.5q13 -12 23.5 -29.5t10.5 -40.5q0 -26 -11.5 -46t-30.5 -30q24 -14 39.5 -35.5t15.5 -50.5z" />
    <glyph glyph-name="fiveeighths" unicode="&#x215d;" horiz-adv-x="767" 
d="M639 -4q0 33 -24.5 51t-58.5 18q-31 0 -56 -17t-25 -52t24 -53.5t56 -18.5q35 0 59.5 18.5t24.5 53.5zM625 163q0 25 -19 39t-50 14q-24 0 -45 -14t-21 -39q0 -33 20.5 -46t44.5 -13q28 0 49 13.5t21 45.5zM682 -4q0 -28 -9 -49t-26 -34q-19 -15 -41.5 -22t-49.5 -7
q-62 0 -94 32t-32 80q0 27 15.5 53.5t46.5 37.5q-23 10 -34 29.5t-11 46.5q0 23 9 40.5t27 28.5q16 13 35.5 18t36.5 5q22 0 42 -5t35 -18q18 -11 27 -28.5t9 -40.5q0 -27 -11 -46.5t-32 -29.5q28 -11 42.5 -35.5t14.5 -55.5zM125 7l-29 25l538 561l30 -25zM330 462
q0 -27 -11 -49t-27 -37q-16 -18 -39 -26.5t-48 -8.5q-50 0 -86 29.5t-36 88.5h44q0 -38 22 -59t56 -21q38 0 60.5 25t22.5 60q0 36 -23.5 60t-59.5 24q-24 0 -43 -9.5t-33 -29.5h-38l35 192h188v-40h-152l-21 -96q29 22 66 22q55 0 89 -36t34 -89z" />
    <glyph glyph-name="seveneighths" unicode="&#x215e;" horiz-adv-x="734" 
d="M618 -4q0 33 -24.5 51t-58.5 18q-35 0 -58 -17t-23 -52t23 -53.5t57 -18.5q35 0 59.5 18.5t24.5 53.5zM601 163q0 25 -17.5 39t-48.5 14q-28 0 -49 -14t-21 -39q0 -33 20.5 -46t48.5 -13q26 0 46 13.5t20 45.5h1zM661 -4q0 -28 -11 -49t-26 -34q-17 -15 -41 -22t-48 -7
q-66 0 -96 32t-30 80q0 27 15.5 53.5t42.5 37.5q-19 10 -32 29.5t-13 46.5q0 23 11 40.5t25 28.5q16 13 35.5 18t40.5 5q18 0 38 -5t39 -18q14 -11 25 -28.5t11 -40.5q0 -27 -12 -46.5t-35 -29.5q28 -11 44.5 -35.5t16.5 -55.5zM98 7l-25 25l538 561l26 -25zM328 662
q-20 -19 -43.5 -47t-42.5 -68q-23 -40 -37.5 -90t-19.5 -114h-48q3 46 13.5 86t25.5 78q18 38 43 75t59 76h-188v43h238v-39z" />
    <glyph glyph-name="uni2160" unicode="&#x2160;" horiz-adv-x="940" 
d="M435 -41v713h66v-713h-66z" />
    <glyph glyph-name="uni2161" unicode="&#x2161;" horiz-adv-x="940" 
d="M302 -41v713h68v-713h-68zM569 -41v713h64v-713h-64z" />
    <glyph glyph-name="uni2162" unicode="&#x2162;" horiz-adv-x="940" 
d="M215 -41v713h68v-713h-68zM435 -41v713h66v-713h-66zM657 -41v713h64v-713h-64z" />
    <glyph glyph-name="uni2163" unicode="&#x2163;" horiz-adv-x="940" 
d="M141 -41v713h67v-713h-67zM586 -41h-82l-210 713h71l180 -635l182 635h68z" />
    <glyph glyph-name="uni2164" unicode="&#x2164;" horiz-adv-x="940" 
d="M507 -41h-78l-252 713h73l218 -638l222 638h68z" />
    <glyph glyph-name="uni2165" unicode="&#x2165;" horiz-adv-x="940" 
d="M432 -41h-82l-209 713h68l182 -635l184 635h67zM731 -41v713h64v-713h-64z" />
    <glyph glyph-name="uni2166" unicode="&#x2166;" horiz-adv-x="940" 
d="M368 -41h-88l-166 713h66l144 -634l140 634h71zM609 -41v713h61v-713h-61zM760 -41v713h65v-713h-65z" />
    <glyph glyph-name="uni2167" unicode="&#x2167;" horiz-adv-x="940" 
d="M305 -41h-88l-128 713h67l105 -634l109 634h64zM501 -41v713h65v-713h-65zM643 -41v713h65v-713h-65zM786 -41v713h61v-713h-61z" />
    <glyph glyph-name="uni2168" unicode="&#x2168;" horiz-adv-x="940" 
d="M119 -41v713h64v-713h-64zM742 -41l-192 310l-188 -310h-79l230 366l-217 347h79l176 -291l175 291h78l-216 -345l233 -368h-79z" />
    <glyph glyph-name="uni2169" unicode="&#x2169;" horiz-adv-x="940" 
d="M678 -41l-210 310l-210 -310h-79l252 366l-235 347h78l195 -291l197 291h78l-238 -345l251 -368h-79z" />
    <glyph glyph-name="uni2170" unicode="&#x2170;" horiz-adv-x="940" 
d="M439 -41v515h61v-515h-61zM438 572v100h62v-100h-62z" />
    <glyph glyph-name="uni2171" unicode="&#x2171;" horiz-adv-x="940" 
d="M307 -41v515h63v-515h-63zM569 -41v515h59v-515h-59zM306 572v100h65v-100h-65zM568 572v100h61v-100h-61z" />
    <glyph glyph-name="uni2172" unicode="&#x2172;" horiz-adv-x="940" 
d="M216 -41v515h63v-515h-63zM439 -41v515h61v-515h-61zM215 572v100h65v-100h-65zM660 -41v515h59v-515h-59zM438 572v100h62v-100h-62zM659 572v100h61v-100h-61z" />
    <glyph glyph-name="uni2173" unicode="&#x2173;" horiz-adv-x="940" 
d="M197 -41v515h59v-515h-59zM576 -41h-70l-166 515h66l136 -445l134 445h67zM196 572v100h61v-100h-61z" />
    <glyph glyph-name="uni2174" unicode="&#x2174;" horiz-adv-x="940" 
d="M501 -41h-68l-184 515h66l152 -451l156 451h67z" />
    <glyph glyph-name="uni2175" unicode="&#x2175;" horiz-adv-x="940" 
d="M429 -41h-66l-167 515h63l138 -445l136 445h62zM679 -41v515h63v-515h-63zM678 572v100h65v-100h-65z" />
    <glyph glyph-name="uni2176" unicode="&#x2176;" horiz-adv-x="940" 
d="M362 -41h-70l-145 515h63l118 -445l116 445h62zM582 -41v515h57v-515h-57zM733 -41v515h59v-515h-59zM581 572v100h59v-100h-59zM732 572v100h60v-100h-60z" />
    <glyph glyph-name="uni2177" unicode="&#x2177;" horiz-adv-x="940" 
d="M314 -41h-68l-144 515h65l113 -445l111 445h64zM516 -41v515h58v-515h-58zM648 -41v515h56v-515h-56zM778 -41v515h55v-515h-55zM515 572v100h60v-100h-60zM647 572v100h58v-100h-58zM777 572v100h56v-100h-56z" />
    <glyph glyph-name="uni2178" unicode="&#x2178;" horiz-adv-x="940" 
d="M183 -41v515h63v-515h-63zM684 -41l-138 221l-136 -221h-72l173 269l-159 246h73l120 -200l121 200h73l-157 -246l172 -269h-70zM182 572v100h65v-100h-65z" />
    <glyph glyph-name="uni2179" unicode="&#x2179;" horiz-adv-x="940" 
d="M626 -41l-158 221l-158 -221h-68l191 269l-179 246h75l138 -200l141 200h71l-177 -246l196 -269h-72z" />
    <glyph glyph-name="arrowleft" unicode="&#x2190;" horiz-adv-x="940" 
d="M128 288l73 -151l-181 163l181 163l-73 -151h792v-24h-792z" />
    <glyph glyph-name="arrowup" unicode="&#x2191;" horiz-adv-x="464" 
d="M244 691v-891h-24v891l-151 -73l163 181l163 -181z" />
    <glyph glyph-name="arrowright" unicode="&#x2192;" horiz-adv-x="940" 
d="M739 137l73 151h-792v24h792l-73 151l181 -163z" />
    <glyph glyph-name="arrowdown" unicode="&#x2193;" horiz-adv-x="464" 
d="M232 -199l-163 181l151 -73v891h24v-891l151 73z" />
    <glyph glyph-name="arrowboth" unicode="&#x2194;" horiz-adv-x="940" 
d="M739 137l73 151h-684l73 -151l-181 163l181 163l-73 -151h684l-73 151l181 -163z" />
    <glyph glyph-name="arrowupdn" unicode="&#x2195;" horiz-adv-x="444" 
d="M222 -200l-163 181l151 -73v782l-151 -73l163 181l163 -181l-151 73v-782l151 73z" />
    <glyph glyph-name="uni2196" unicode="&#x2196;" horiz-adv-x="940" 
d="M888 -188l-791 878l-62 -153v243l241 -27l-162 -45l791 -879z" />
    <glyph glyph-name="uni2197" unicode="&#x2197;" horiz-adv-x="940" 
d="M843 690l-791 -878l-17 17l791 879l-162 45l241 27v-243z" />
    <glyph glyph-name="uni2198" unicode="&#x2198;" horiz-adv-x="940" 
d="M664 -155l162 45l-791 879l17 17l791 -878l62 153v-243z" />
    <glyph glyph-name="uni2199" unicode="&#x2199;" horiz-adv-x="940" 
d="M114 -110l162 -45l-241 -27v243l62 -153l791 878l17 -17z" />
    <glyph glyph-name="arrowdblright" unicode="&#x21d2;" horiz-adv-x="940" 
d="M670 47l-21 21l125 124h-754v29h782l79 78l-79 78h-782v29h753l-124 123l21 21l250 -251z" />
    <glyph glyph-name="arrowdblboth" unicode="&#x21d4;" horiz-adv-x="940" 
d="M801 377h-663l-79 -78l79 -78h663l79 78zM669 47l-21 21l125 124h-607l125 -124l-21 -21l-250 252l250 251l21 -21l-124 -123h605l-124 123l21 21l250 -251z" />
    <glyph glyph-name="universal" unicode="&#x2200;" horiz-adv-x="940" 
d="M336 394l134 -366l134 366h-268zM507 -40h-74l-270 714h71l81 -222h310l81 222h71z" />
    <glyph glyph-name="partialdiff" unicode="&#x2202;" horiz-adv-x="496" 
d="M347 313q-9 3 -22 5t-24 2q-30 0 -59 -9.5t-51.5 -27.5t-36 -43t-13.5 -56q0 -24 15.5 -37.5t35.5 -13.5q27 0 49.5 15.5t39.5 36.5q11 14 20.5 27.5t17.5 28t14.5 32t12.5 40.5h1zM416 354q0 -51 -19.5 -97t-52.5 -81t-76 -55.5t-90 -20.5q-40 0 -69 22.5t-29 64.5
q0 40 19.5 70.5t49.5 51t66 30.5t68 10q20 0 37.5 -4t27.5 -9q1 10 0.5 33.5t-8.5 47.5t-26.5 42.5t-54.5 18.5q-38 0 -65.5 -16t-55.5 -45l-22 15q11 13 26 27.5t34 25.5t42 18.5t51 7.5q33 0 60 -11.5t46.5 -32t30 -49.5t10.5 -64z" />
    <glyph glyph-name="existential" unicode="&#x2203;" horiz-adv-x="940" 
d="M233 -40v58h407v284h-376v58h376v256h-400v58h466v-714h-473z" />
    <glyph glyph-name="gradient" unicode="&#x2207;" horiz-adv-x="940" 
d="M179 545l291 -467l291 467h-582zM470 -22l-390 618h780z" />
    <glyph glyph-name="element" unicode="&#x2208;" horiz-adv-x="940" 
d="M362 38q-53 0 -97 18.5t-76 54t-50 86t-18 114.5t18 114.5t52 85.5t81.5 54t107.5 19h439v-38h-434q-53 0 -93.5 -16t-68 -45t-42.5 -68.5t-18 -86.5h653v-38h-653q3 -47 18 -86.5t42.5 -68.5t68 -45t93.5 -16h434v-38h-457z" />
    <glyph glyph-name="suchthat" unicode="&#x220b;" horiz-adv-x="940" 
d="M819 311q0 -64 -18 -114.5t-50 -86t-76.5 -54t-96.5 -18.5h-457v38h434q53 0 93.5 16t68 45t42.5 68.5t18 86.5h-653v38h653q-3 47 -18 86.5t-42.5 68.5t-68 45t-93.5 16h-434v38h439q60 0 107.5 -19t81.5 -54t52 -85.5t18 -114.5z" />
    <glyph glyph-name="product" unicode="&#x220f;" horiz-adv-x="754" 
d="M557 616v-656h-66v656h-228v-656h-66v656h-142v58h644v-58h-142z" />
    <glyph glyph-name="summation" unicode="&#x2211;" horiz-adv-x="658" 
d="M70 -40v46l276 321l-267 291v56h505v-56h-406l265 -293l-269 -309h414v-56h-518z" />
    <glyph glyph-name="radical" unicode="&#x221a;" horiz-adv-x="804" 
d="M399 573l-209 -636l-110 201l-48 -32l-16 21l77 68l86 -158l187 575h422v-39h-389z" />
    <glyph glyph-name="proportional" unicode="&#x221d;" horiz-adv-x="721" 
d="M382 313q-12 23 -28.5 48t-38 46t-49.5 34.5t-63 13.5q-63 0 -100 -39t-37 -102q0 -64 35.5 -102.5t101.5 -38.5q35 0 63 13.5t49.5 34t38 45t28.5 47.5zM678 430q-17 12 -37.5 19.5t-43.5 7.5q-61 0 -101 -37t-76 -107q36 -70 76 -106.5t101 -36.5q20 0 37.5 5t32.5 13
l19 -32q-20 -11 -42.5 -17.5t-46.5 -6.5q-36 0 -65.5 12t-54 31.5t-43.5 45.5t-34 55q-13 -23 -31 -48.5t-42 -46.5t-56 -34.5t-73 -13.5q-33 0 -64 11.5t-56 34t-40 56.5t-15 79q0 43 15 77t39 57t55.5 35t64.5 12q42 0 74 -14t56.5 -35t42 -46.5t30.5 -49.5q15 28 34 54
t43.5 46.5t54 32.5t65.5 12q29 0 54 -8.5t47 -24.5z" />
    <glyph glyph-name="infinity" unicode="&#x221e;" horiz-adv-x="813" 
d="M390 313q-12 23 -28 48t-38 46t-49.5 34.5t-62.5 13.5q-63 0 -101 -39t-38 -102q0 -64 36 -102.5t102 -38.5q35 0 62.5 13.5t49.5 34t38 45t28 47.5h1zM741 314q0 27 -9.5 53t-27.5 46t-43 32t-55 12q-61 0 -101.5 -37t-76.5 -107q35 -69 75 -106t102 -37q30 0 55 11
t42.5 30.5t27.5 45.5t10 57h1zM782 314q0 -36 -13 -69t-36.5 -58t-56 -40t-71.5 -15q-36 0 -65.5 12t-53.5 32t-43 46t-34 54q-13 -23 -31 -48.5t-42.5 -46.5t-56.5 -34.5t-73 -13.5q-33 0 -64 11.5t-56 34t-40 56.5t-15 79q0 43 14.5 77t39 57t56 35t64.5 12q41 0 73 -14
t56.5 -35t42.5 -46.5t31 -49.5q15 28 34 54.5t43 46.5t53.5 32t65.5 12q39 0 71.5 -15t56 -40t37 -58t13.5 -68z" />
    <glyph glyph-name="angle" unicode="&#x2220;" horiz-adv-x="940" 
d="M167 0v25l480 559l28 -23l-455 -528h552v-33h-605z" />
    <glyph glyph-name="logicaland" unicode="&#x2227;" horiz-adv-x="940" 
d="M751 0l-281 543l-281 -543l-34 17l295 570h40l295 -570z" />
    <glyph glyph-name="logicalor" unicode="&#x2228;" horiz-adv-x="940" 
d="M490 3h-40l-295 570l34 17l281 -543l281 543l34 -17z" />
    <glyph glyph-name="intersection" unicode="&#x2229;" horiz-adv-x="646" 
d="M558 -28v434q0 56 -17.5 97.5t-49 69.5t-74.5 41.5t-94 13.5t-94 -13.5t-74.5 -41.5t-49 -69.5t-17.5 -97.5v-434h-38v439q0 60 18.5 107.5t54 81.5t86 52t114.5 18t114.5 -18t85.5 -50t54 -76.5t19 -96.5v-457h-38z" />
    <glyph glyph-name="union" unicode="&#x222a;" horiz-adv-x="646" 
d="M596 186q0 -53 -19 -97t-54 -76t-85.5 -50t-114.5 -18t-114.5 18t-86 52t-54 81.5t-18.5 107.5v439h38v-434q0 -56 17.5 -97.5t49 -69.5t74.5 -41.5t94 -13.5t94 13.5t74.5 41.5t49 69.5t17.5 97.5v434h38v-457v0z" />
    <glyph glyph-name="integral" unicode="&#x222b;" horiz-adv-x="508" 
d="M412 628q-8 19 -20.5 29.5t-29.5 10.5q-14 0 -27 -25t-23 -72.5t-17 -116t-10 -154.5q-3 -106 -14.5 -187.5t-35.5 -138.5q-16 -38 -40 -62t-54 -24q-60 0 -92 59l44 26q9 -19 21.5 -30t29.5 -11q14 0 27 25t23.5 72.5t17.5 115.5t9 155q2 106 14 187.5t36 138.5
q16 38 40 62t54 24q62 0 94 -63l-47 -21v0z" />
    <glyph glyph-name="uni222C" unicode="&#x222c;" horiz-adv-x="940" 
d="M506 628q-8 19 -20.5 29.5t-29.5 10.5q-14 0 -27 -25t-23 -72.5t-17 -116t-10 -154.5q-3 -106 -14.5 -187.5t-35.5 -138.5q-16 -38 -40 -62t-54 -24q-60 0 -92 59l44 26q9 -19 21.5 -30t29.5 -11q14 0 27 25t23.5 72.5t17.5 115.5t9 155q2 106 14 187.5t36 138.5
q16 38 40 62t54 24q62 0 94 -63zM750 628q-8 19 -20.5 29.5t-29.5 10.5q-14 0 -27 -25t-23 -72.5t-17 -116t-10 -154.5q-3 -106 -14.5 -187.5t-35.5 -138.5q-16 -38 -40 -62t-54 -24q-60 0 -92 59l44 26q9 -19 21.5 -30t29.5 -11q14 0 27 25t23.5 72.5t17.5 115.5t9 155
q2 106 14 187.5t36 138.5q16 38 40 62t54 24q62 0 94 -63z" />
    <glyph glyph-name="uni222E" unicode="&#x222e;" horiz-adv-x="940" 
d="M445 410q-32 -12 -53 -40.5t-25 -70.5q-4 -45 14 -74t52 -39q4 52 6 114q2 58 6 110zM581 299q4 42 -16.5 74.5t-59.5 40.5q-5 -53 -6 -114q-1 -31 -2.5 -59.5t-4.5 -55.5q37 9 61 39t28 75zM632 628q-8 19 -20.5 29.5t-29.5 10.5q-22 0 -42 -58t-32 -166q26 -3 49.5 -14
t40.5 -29t26 -43.5t6 -58.5q-3 -32 -15.5 -57t-31.5 -43t-43.5 -29t-50.5 -15q-7 -55 -18 -100.5t-25 -80.5q-16 -38 -39.5 -62t-53.5 -24q-60 0 -92 59l44 26q9 -19 21.5 -30t29.5 -11q22 0 42.5 57.5t31.5 166.5q-25 4 -46.5 15t-37 29t-23.5 42.5t-5 56.5q6 60 43.5 95.5
t86.5 46.5q7 57 18 102.5t26 82.5q16 38 39.5 62t53.5 24q62 0 94 -63z" />
    <glyph glyph-name="therefore" unicode="&#x2234;" horiz-adv-x="940" 
d="M278 133q0 -21 -15 -36t-36 -15t-36 15t-15 36t15 36t36 15t36 -15t15 -36zM764 133q0 -21 -15 -36t-36 -15t-36 15t-15 36t15 36t36 15t36 -15t15 -36zM521 538q0 -21 -15 -36t-36 -15t-36 15t-15 36t15 36t36 15t36 -15t15 -36z" />
    <glyph glyph-name="uni2235" unicode="&#x2235;" horiz-adv-x="940" 
d="M521 120q0 -21 -15 -36t-36 -15t-36 15t-15 36t15 36t36 15t36 -15t15 -36zM278 525q0 -21 -15 -36t-36 -15t-36 15t-15 36t15 36t36 15t36 -15t15 -36zM764 525q0 -21 -15 -36t-36 -15t-36 15t-15 36t15 36t36 15t36 -15t15 -36z" />
    <glyph glyph-name="similar" unicode="&#x223c;" horiz-adv-x="940" 
d="M755 338q-9 -20 -26.5 -36t-35.5 -30q-23 -13 -45 -20.5t-42 -7.5q-43 0 -74.5 8.5t-63.5 24.5q-24 16 -59 28.5t-76 12.5q-38 0 -64 -16.5t-47 -45.5l-41 28q13 17 28.5 34.5t38.5 29.5q18 12 40 21t45 9q42 0 73.5 -10t61.5 -26q32 -16 65 -28.5t73 -12.5q35 0 63 18
t45 46z" />
    <glyph glyph-name="uni223D" unicode="&#x223d;" horiz-adv-x="793" 
d="M772 314q0 -36 -13 -69t-36.5 -58t-56 -40t-71.5 -15q-60 0 -107 35l18 30q37 -27 89 -27q30 0 55 11t43 30.5t28 45.5t10 57q0 27 -9.5 53t-27.5 46t-43 32t-55 12q-61 0 -101 -37t-77 -109q-12 -23 -30 -53.5t-44 -58.5t-62.5 -47t-85.5 -19q-33 0 -64 11.5t-56 34
t-40 56.5t-15 79q0 43 14.5 77t39 57t56 35t64.5 12t60 -9.5t49 -23.5l-19 -31q-18 11 -38.5 17.5t-44.5 6.5q-63 0 -101 -39t-38 -102t36 -102t102 -39q41 0 72 18t54 44t39 55.5t28 52.5q15 30 34.5 57.5t44 48.5t54.5 33.5t67 12.5q39 0 71.5 -15t56.5 -40t37 -57.5
t13 -68.5z" />
    <glyph glyph-name="uni2252" unicode="&#x2252;" horiz-adv-x="748" 
d="M50 210v38h648v-38h-648zM616 82q0 -23 -16 -39t-39 -16t-39 16t-16 39t16 39t39 16t39 -16t16 -39zM242 540q0 -23 -16 -39t-39 -16t-39 16t-16 39t16 39t39 16t39 -16t16 -39zM50 376v38h648v-38h-648z" />
    <glyph glyph-name="notequal" unicode="&#x2260;" horiz-adv-x="550" 
d="M182 285l68 127h-201v89h249l59 111h87l-60 -111h117v-89h-164l-68 -127h232v-89h-280l-67 -126h-86l67 126h-86v89h133z" />
    <glyph glyph-name="equivalence" unicode="&#x2261;" horiz-adv-x="748" 
d="M50 131v40h648v-40h-648zM50 292v40h648v-40h-648zM50 453v39h648v-39h-648z" />
    <glyph glyph-name="lessequal" unicode="&#x2264;" horiz-adv-x="672" 
d="M30 -37v37h612v-37h-612zM609 41l-568 306v29l569 289l18 -33l-530 -271l530 -285z" />
    <glyph glyph-name="greaterequal" unicode="&#x2265;" horiz-adv-x="672" 
d="M30 -37v37h612v-37h-612zM63 41l-19 35l530 285l-530 271l18 33l569 -289v-29z" />
    <glyph glyph-name="uni226A" unicode="&#x226a;" horiz-adv-x="940" 
d="M592 -34l-481 319v32l474 329l22 -30l-457 -316l462 -304zM811 -30l-483 315v32l476 325l21 -29l-458 -313l462 -300z" />
    <glyph glyph-name="uni226B" unicode="&#x226b;" horiz-adv-x="940" 
d="M129 -30l-18 30l462 300l-458 313l21 29l476 -325v-32zM348 -34l-20 30l462 304l-457 316l22 30l474 -329v-32z" />
    <glyph glyph-name="propersubset" unicode="&#x2282;" horiz-adv-x="940" 
d="M362 38q-53 0 -97 18.5t-76 54t-50 86t-18 114.5t18 114.5t52 85.5t81.5 54t107.5 19h439v-38h-434q-56 0 -97.5 -17.5t-69.5 -49t-41.5 -74.5t-13.5 -94t13.5 -94t41.5 -74.5t69.5 -49t97.5 -17.5h434v-38h-457z" />
    <glyph glyph-name="propersuperset" unicode="&#x2283;" horiz-adv-x="940" 
d="M819 311q0 -64 -18 -114.5t-50 -86t-76.5 -54t-96.5 -18.5h-457v38h434q56 0 97.5 17.5t69.5 49t41.5 74.5t13.5 94t-13.5 94t-41.5 74.5t-69.5 49t-97.5 17.5h-434v38h439q60 0 107.5 -19t81.5 -54t52 -85.5t18 -114.5z" />
    <glyph glyph-name="reflexsubset" unicode="&#x2286;" horiz-adv-x="940" 
d="M121 -4v36h701v-36h-701zM360 139q-53 0 -97.5 14t-76.5 43t-50 74t-18 107t18.5 107t52 74t81.5 43t108 14h439v-36h-434q-225 0 -225 -202t225 -202h434v-36h-457z" />
    <glyph glyph-name="reflexsuperset" unicode="&#x2287;" horiz-adv-x="940" 
d="M118 -4v36h701v-36h-701zM822 377q0 -62 -18 -107t-50 -74t-76.5 -43t-97.5 -14h-457v36h434q225 0 225 202t-225 202h-434v36h439q60 0 108 -14t81.5 -43t52 -74t18.5 -107z" />
    <glyph glyph-name="uni2299" unicode="&#x2299;" horiz-adv-x="940" 
d="M625 299q0 -32 -12 -60.5t-33 -49.5t-49.5 -33t-60.5 -12t-60 12t-49 33t-33.5 49.5t-12.5 60.5t12.5 60.5t33.5 49.5t49 33t60 12t60.5 -12t49.5 -33t33 -49.5t12 -60.5zM821 299q0 72 -28 136t-75.5 111.5t-111.5 75.5t-136 28t-135.5 -28t-111.5 -75.5t-75.5 -111.5
t-27.5 -136t27.5 -135.5t75.5 -111.5t111.5 -75.5t135.5 -27.5t136 27.5t111.5 75.5t75.5 111.5t28 135.5zM860 299q0 -81 -30.5 -152t-83.5 -124t-124 -83.5t-152 -30.5q-80 0 -151 30.5t-124 83.5t-84 124t-31 152t31 152t84 124t124 83.5t151 30.5q81 0 152 -30.5
t124 -83.5t83.5 -124t30.5 -152z" />
    <glyph glyph-name="perpendicular" unicode="&#x22a5;" horiz-adv-x="940" 
d="M153 0v35h298v533h38v-533h298v-35h-634z" />
    <glyph glyph-name="uni2312" unicode="&#x2312;" horiz-adv-x="940" 
d="M668 512q-13 23 -31.5 44t-43.5 36.5t-55.5 25t-67.5 9.5t-68 -9.5t-55.5 -25t-43.5 -36.5t-32 -44h-57q37 69 98.5 111.5t156.5 42.5q97 0 158 -42.5t98 -111.5h-57v0z" />
    <glyph glyph-name="uni2460" unicode="&#x2460;" horiz-adv-x="940" 
d="M453 10v427h-120v33q63 3 93 28.5t36 82.5h39v-571h-48zM875 299q0 84 -31 159t-88 130q-53 54 -128.5 86.5t-159.5 32.5t-157.5 -32.5t-130.5 -86.5q-55 -55 -86 -130t-31 -159t31 -159t86 -129q57 -54 130.5 -86.5t157.5 -32.5t159.5 32.5t128.5 86.5q57 54 88 129
t31 159zM913 299q0 -91 -36 -172t-94 -142q-62 -59 -143 -94t-172 -35q-92 0 -172.5 35t-138.5 94q-62 61 -96 142t-34 172t34 172t96 141q58 60 138.5 95.5t172.5 35.5q91 0 172 -35.5t143 -95.5q58 -60 94 -141t36 -172z" />
    <glyph glyph-name="uni2461" unicode="&#x2461;" horiz-adv-x="940" 
d="M287 35q5 48 21 83.5t40 65.5q27 29 62.5 55.5t78.5 56.5q51 36 78 71t27 88t-32 84t-91 31q-30 0 -54 -12.5t-39 -34.5q-13 -21 -21.5 -51.5t-8.5 -58.5h-50q-1 43 11 79.5t33 63.5q24 27 56 41.5t76 14.5q37 0 69 -10.5t53 -29.5q24 -22 35.5 -51t11.5 -67
q0 -35 -10 -63.5t-28 -52.5q-21 -24 -44 -44.5t-52 -37.5q-32 -23 -60 -44.5t-47 -41.5q-24 -23 -38 -45t-17 -42h301v-48h-361zM875 299q0 84 -31 159t-88 130q-53 54 -128.5 86.5t-159.5 32.5t-157.5 -32.5t-130.5 -86.5q-55 -55 -86 -130t-31 -159t31 -159t86 -129
q57 -54 130.5 -86.5t157.5 -32.5t159.5 32.5t128.5 86.5q57 54 88 129t31 159zM913 299q0 -91 -36 -172t-94 -142q-62 -59 -143 -94t-172 -35q-92 0 -172.5 35t-138.5 94q-62 61 -96 142t-34 172t34 172t96 141q58 60 138.5 95.5t172.5 35.5q91 0 172 -35.5t143 -95.5
q58 -60 94 -141t36 -172z" />
    <glyph glyph-name="uni2462" unicode="&#x2462;" horiz-adv-x="940" 
d="M663 180q0 -43 -16.5 -74t-40.5 -53q-26 -20 -61.5 -31t-72.5 -11q-41 0 -74.5 12.5t-60.5 35.5q-24 25 -37.5 61t-12.5 83h47q0 -72 39.5 -111t97.5 -39q62 0 102 33.5t40 93.5q0 57 -37 88t-94 31h-42v45h42q19 0 39.5 6.5t34.5 22.5q18 12 26.5 31.5t8.5 46.5
q0 45 -28 74t-90 29q-57 0 -90.5 -41t-35.5 -100h-49q-1 40 12 73.5t34 59.5q25 22 56.5 36.5t71.5 14.5q78 0 123 -39t45 -107q0 -51 -27 -82.5t-65 -43.5q54 -12 84.5 -47.5t30.5 -97.5zM875 299q0 84 -31 159t-88 130q-53 54 -128.5 86.5t-159.5 32.5t-157.5 -32.5
t-130.5 -86.5q-55 -55 -86 -130t-31 -159t31 -159t86 -129q57 -54 130.5 -86.5t157.5 -32.5t159.5 32.5t128.5 86.5q57 54 88 129t31 159zM913 299q0 -91 -36 -172t-94 -142q-62 -59 -143 -94t-172 -35q-92 0 -172.5 35t-138.5 94q-62 61 -96 142t-34 172t34 172t96 141
q58 60 138.5 95.5t172.5 35.5q91 0 172 -35.5t143 -95.5q58 -60 94 -141t36 -172z" />
    <glyph glyph-name="uni2463" unicode="&#x2463;" horiz-adv-x="940" 
d="M508 510l-203 -301h203v301zM556 162v-139h-48v139h-255v47l255 385h48v-385h78v-47h-78zM875 299q0 84 -31 159t-88 130q-53 54 -128.5 86.5t-159.5 32.5t-157.5 -32.5t-130.5 -86.5q-55 -55 -86 -130t-31 -159t31 -159t86 -129q57 -54 130.5 -86.5t157.5 -32.5
t159.5 32.5t128.5 86.5q57 54 88 129t31 159zM913 299q0 -91 -36 -172t-94 -142q-62 -59 -143 -94t-172 -35q-92 0 -172.5 35t-138.5 94q-62 61 -96 142t-34 172t34 172t96 141q58 60 138.5 95.5t172.5 35.5q91 0 172 -35.5t143 -95.5q58 -60 94 -141t36 -172z" />
    <glyph glyph-name="uni2464" unicode="&#x2464;" horiz-adv-x="940" 
d="M657 199q0 -42 -15.5 -77t-40.5 -62q-24 -25 -59.5 -40t-75.5 -15q-39 0 -70.5 12t-57.5 35q-22 23 -36 54.5t-15 72.5h47q1 -31 12.5 -55t28.5 -40q17 -19 42 -27.5t50 -8.5q33 0 58 13t45 33q16 22 26.5 50t10.5 61q0 30 -11 58.5t-27 47.5q-20 21 -45 32t-58 11
q-38 0 -68.5 -16t-51.5 -52h-45l51 299h277v-47h-239l-32 -195q17 25 49.5 38.5t64.5 13.5q87 0 136 -52.5t49 -143.5zM875 299q0 84 -31 159t-88 130q-53 54 -128.5 86.5t-159.5 32.5t-157.5 -32.5t-130.5 -86.5q-55 -55 -86 -130t-31 -159t31 -159t86 -129
q57 -54 130.5 -86.5t157.5 -32.5t159.5 32.5t128.5 86.5q57 54 88 129t31 159zM913 299q0 -91 -36 -172t-94 -142q-62 -59 -143 -94t-172 -35q-92 0 -172.5 35t-138.5 94q-62 61 -96 142t-34 172t34 172t96 141q58 60 138.5 95.5t172.5 35.5q91 0 172 -35.5t143 -95.5
q58 -60 94 -141t36 -172z" />
    <glyph glyph-name="uni2465" unicode="&#x2465;" horiz-adv-x="940" 
d="M601 199q0 68 -34.5 106.5t-96.5 38.5q-58 0 -94 -40t-36 -106q0 -30 9.5 -57t25.5 -48q15 -20 40.5 -32.5t54.5 -12.5q31 0 55.5 13t43.5 33q14 22 23 49t9 56zM653 199q0 -43 -14 -78.5t-37 -61.5q-22 -25 -56.5 -39.5t-75.5 -14.5q-46 0 -82 16.5t-58 52.5
q-27 33 -39 90.5t-12 140.5q0 66 13.5 118.5t40.5 90.5q28 37 63 57t77 20q79 0 118.5 -41t47.5 -107h-48q-5 47 -34.5 76t-83.5 29q-34 0 -62.5 -20t-44.5 -54q-20 -35 -28 -82t-8 -100q14 40 51.5 67t88.5 27q41 0 75.5 -14t56.5 -35q23 -26 37 -60.5t14 -77.5zM875 299
q0 84 -31 159t-88 130q-53 54 -128.5 86.5t-159.5 32.5t-157.5 -32.5t-130.5 -86.5q-55 -55 -86 -130t-31 -159t31 -159t86 -129q57 -54 130.5 -86.5t157.5 -32.5t159.5 32.5t128.5 86.5q57 54 88 129t31 159zM913 299q0 -91 -36 -172t-94 -142q-62 -59 -143 -94t-172 -35
q-92 0 -172.5 35t-138.5 94q-62 61 -96 142t-34 172t34 172t96 141q58 60 138.5 95.5t172.5 35.5q91 0 172 -35.5t143 -95.5q58 -60 94 -141t36 -172z" />
    <glyph glyph-name="uni2466" unicode="&#x2466;" horiz-adv-x="940" 
d="M658 515q-49 -47 -86.5 -105t-66.5 -123q-25 -68 -40.5 -140t-20.5 -147h-59q6 88 27 165t51 141q32 65 68.5 117t74.5 91h-301v47h353v-46zM875 299q0 84 -31 159t-88 130q-53 54 -128.5 86.5t-159.5 32.5t-157.5 -32.5t-130.5 -86.5q-55 -55 -86 -130t-31 -159t31 -159
t86 -129q57 -54 130.5 -86.5t157.5 -32.5t159.5 32.5t128.5 86.5q57 54 88 129t31 159zM913 299q0 -91 -36 -172t-94 -142q-62 -59 -143 -94t-172 -35q-92 0 -172.5 35t-138.5 94q-62 61 -96 142t-34 172t34 172t96 141q58 60 138.5 95.5t172.5 35.5q91 0 172 -35.5
t143 -95.5q58 -60 94 -141t36 -172z" />
    <glyph glyph-name="uni2467" unicode="&#x2467;" horiz-adv-x="940" 
d="M609 171q0 32 -12 55t-29 38q-21 15 -45.5 23.5t-54.5 8.5q-27 0 -53 -8.5t-43 -23.5q-21 -15 -31 -38t-10 -55q0 -31 9.5 -54.5t30.5 -38.5q17 -18 43.5 -26t53.5 -8q31 0 55.5 8t45.5 26q16 15 28 38.5t12 54.5zM584 445q0 44 -30 72.5t-86 28.5q-52 0 -84 -28.5
t-32 -72.5q0 -24 10.5 -44t24.5 -32q18 -14 39 -21t42 -7q25 0 46 7t35 21q18 12 26.5 32t8.5 44zM659 171q0 -41 -15.5 -73.5t-38.5 -52.5q-25 -23 -61 -33.5t-76 -10.5q-41 0 -74.5 10.5t-60.5 33.5q-25 20 -38.5 52.5t-13.5 73.5q0 28 7.5 52t24.5 43q14 21 34.5 34.5
t42.5 19.5q-35 12 -61.5 45t-26.5 80q0 30 12.5 55t31.5 47q23 18 53 29.5t69 11.5t71 -11.5t51 -29.5q23 -22 33.5 -47t10.5 -55q0 -47 -25 -78.5t-63 -46.5q26 -6 46.5 -19.5t33.5 -34.5q14 -19 23.5 -43t9.5 -52zM875 299q0 84 -31 159t-88 130q-53 54 -128.5 86.5
t-159.5 32.5t-157.5 -32.5t-130.5 -86.5q-55 -55 -86 -130t-31 -159t31 -159t86 -129q57 -54 130.5 -86.5t157.5 -32.5t159.5 32.5t128.5 86.5q57 54 88 129t31 159zM913 299q0 -91 -36 -172t-94 -142q-62 -59 -143 -94t-172 -35q-92 0 -172.5 35t-138.5 94q-62 61 -96 142
t-34 172t34 172t96 141q58 60 138.5 95.5t172.5 35.5q91 0 172 -35.5t143 -95.5q58 -60 94 -141t36 -172z" />
    <glyph glyph-name="uni2468" unicode="&#x2468;" horiz-adv-x="940" 
d="M602 400q0 32 -9 57.5t-24 48.5q-19 18 -44 31t-56 13q-29 0 -54 -13t-40 -31q-16 -23 -26 -49.5t-10 -57.5q0 -65 36 -106.5t94 -41.5q31 0 55 10.5t44 32.5q15 19 24.5 47.5t9.5 58.5zM665 300q0 -138 -48.5 -215.5t-146.5 -77.5q-73 0 -117.5 40t-51.5 103h49
q7 -43 38 -71.5t82 -28.5q37 0 65 18.5t45 52.5q15 33 24.5 80.5t9.5 105.5q-15 -42 -51.5 -70t-93.5 -28q-82 0 -129.5 50t-47.5 140q0 42 12.5 78t34.5 63q25 24 57 38.5t73 14.5q46 0 82 -15.5t63 -50.5q23 -33 37 -89.5t14 -137.5zM875 299q0 84 -31 159t-88 130
q-53 54 -128.5 86.5t-159.5 32.5t-157.5 -32.5t-130.5 -86.5q-55 -55 -86 -130t-31 -159t31 -159t86 -129q57 -54 130.5 -86.5t157.5 -32.5t159.5 32.5t128.5 86.5q57 54 88 129t31 159zM913 299q0 -91 -36 -172t-94 -142q-62 -59 -143 -94t-172 -35q-92 0 -172.5 35
t-138.5 94q-62 61 -96 142t-34 172t34 172t96 141q58 60 138.5 95.5t172.5 35.5q91 0 172 -35.5t143 -95.5q58 -60 94 -141t36 -172z" />
    <glyph glyph-name="uni2469" unicode="&#x2469;" horiz-adv-x="940" 
d="M702 301q0 50 -6.5 94.5t-21.5 77.5q-12 33 -34 53t-54 20q-30 0 -51.5 -20t-34.5 -53q-12 -33 -19.5 -77.5t-7.5 -94.5t7.5 -94.5t19.5 -77.5q13 -35 34.5 -54.5t51.5 -19.5q32 0 54 19.5t34 54.5q15 33 21.5 77.5t6.5 94.5zM300 19v419h-111v32q61 3 87.5 28t36.5 80
h37v-559h-50zM750 301q0 -68 -9.5 -120t-30.5 -89q-18 -38 -49.5 -58.5t-74.5 -20.5t-72.5 20.5t-50.5 58.5q-18 37 -28.5 89t-10.5 119t10.5 119.5t28.5 90.5q21 37 50.5 57.5t72.5 20.5t74.5 -20.5t49.5 -57.5q21 -38 30.5 -90.5t9.5 -118.5zM875 299q0 84 -31 159
t-88 130q-53 54 -128.5 86.5t-159.5 32.5t-157.5 -32.5t-130.5 -86.5q-55 -55 -86 -130t-31 -159t31 -159t86 -129q57 -54 130.5 -86.5t157.5 -32.5t159.5 32.5t128.5 86.5q57 54 88 129t31 159zM913 299q0 -91 -36 -172t-94 -142q-62 -59 -143 -94t-172 -35
q-92 0 -172.5 35t-138.5 94q-62 61 -96 142t-34 172t34 172t96 141q58 60 138.5 95.5t172.5 35.5q91 0 172 -35.5t143 -95.5q58 -60 94 -141t36 -172z" />
    <glyph glyph-name="uni246A" unicode="&#x246a;" horiz-adv-x="940" 
d="M328 19v419h-120v33q63 3 93 28t36 79h39v-559h-48zM602 19v419h-116v33q59 3 90.5 28t39.5 79h38v-559h-52zM875 299q0 84 -31 159t-88 130q-53 54 -128.5 86.5t-159.5 32.5t-157.5 -32.5t-130.5 -86.5q-55 -55 -86 -130t-31 -159t31 -159t86 -129q57 -54 130.5 -86.5
t157.5 -32.5t159.5 32.5t128.5 86.5q57 54 88 129t31 159zM913 299q0 -91 -36 -172t-94 -142q-62 -59 -143 -94t-172 -35q-92 0 -172.5 35t-138.5 94q-62 61 -96 142t-34 172t34 172t96 141q58 60 138.5 95.5t172.5 35.5q91 0 172 -35.5t143 -95.5q58 -60 94 -141t36 -172z
" />
    <glyph glyph-name="uni246B" unicode="&#x246b;" horiz-adv-x="940" 
d="M281 17v418h-108v34q54 2 83 28t36 79h36v-559h-47zM404 21q5 45 20 81.5t37 66.5q25 29 55.5 55.5t69.5 56.5q45 33 69.5 67.5t24.5 84.5q0 54 -28 83.5t-80 29.5q-30 0 -51 -12.5t-32 -32.5q-16 -22 -22 -50t-6 -59h-44q-1 43 8 79t31 63q18 25 49 39.5t70 14.5
q65 0 108.5 -40.5t43.5 -115.5q0 -35 -9.5 -62.5t-25.5 -51.5q-19 -22 -41 -42t-44 -37q-59 -48 -99.5 -88.5t-47.5 -84.5h270v-45h-326zM875 299q0 84 -31 159t-88 130q-53 54 -128.5 86.5t-159.5 32.5t-157.5 -32.5t-130.5 -86.5q-55 -55 -86 -130t-31 -159t31 -159
t86 -129q57 -54 130.5 -86.5t157.5 -32.5t159.5 32.5t128.5 86.5q57 54 88 129t31 159zM913 299q0 -91 -36 -172t-94 -142q-62 -59 -143 -94t-172 -35q-92 0 -172.5 35t-138.5 94q-62 61 -96 142t-34 172t34 172t96 141q58 60 138.5 95.5t172.5 35.5q91 0 172 -35.5
t143 -95.5q58 -60 94 -141t36 -172z" />
    <glyph glyph-name="uni246C" unicode="&#x246c;" horiz-adv-x="940" 
d="M278 15v419h-102v32q57 3 81 28t32 80h37v-559h-48zM738 177q0 -42 -15 -72.5t-38 -51.5q-22 -20 -54 -31t-64 -11q-37 0 -69.5 12.5t-52.5 35.5q-25 25 -36.5 59t-10.5 82h47q-1 -70 32.5 -107.5t88.5 -37.5q54 0 89.5 31.5t35.5 90.5q0 56 -33.5 86.5t-82.5 30.5h-38
v46h38q16 0 33.5 7t32.5 21q16 11 23.5 30.5t7.5 41.5q0 45 -25 74.5t-79 29.5q-56 0 -83.5 -40t-29.5 -100h-45q0 39 10 73t33 60q18 23 48 37t66 14q68 0 109 -39t41 -109q0 -45 -24 -76.5t-59 -45.5q48 -10 76 -45.5t28 -95.5zM875 299q0 84 -31 159t-88 130
q-53 54 -128.5 86.5t-159.5 32.5t-157.5 -32.5t-130.5 -86.5q-55 -55 -86 -130t-31 -159t31 -159t86 -129q57 -54 130.5 -86.5t157.5 -32.5t159.5 32.5t128.5 86.5q57 54 88 129t31 159zM913 299q0 -91 -36 -172t-94 -142q-62 -59 -143 -94t-172 -35q-92 0 -172.5 35
t-138.5 94q-62 61 -96 142t-34 172t34 172t96 141q58 60 138.5 95.5t172.5 35.5q91 0 172 -35.5t143 -95.5q58 -60 94 -141t36 -172z" />
    <glyph glyph-name="uni246D" unicode="&#x246d;" horiz-adv-x="940" 
d="M626 499l-179 -296h179v296zM292 20v419h-101v32q55 3 78.5 27.5t30.5 80.5h37v-559h-45zM670 156v-135h-44v135h-227v47l227 377h44v-377h72v-47h-72zM875 299q0 84 -31 159t-88 130q-53 54 -128.5 86.5t-159.5 32.5t-157.5 -32.5t-130.5 -86.5q-55 -55 -86 -130
t-31 -159t31 -159t86 -129q57 -54 130.5 -86.5t157.5 -32.5t159.5 32.5t128.5 86.5q57 54 88 129t31 159zM913 299q0 -91 -36 -172t-94 -142q-62 -59 -143 -94t-172 -35q-92 0 -172.5 35t-138.5 94q-62 61 -96 142t-34 172t34 172t96 141q58 60 138.5 95.5t172.5 35.5
q91 0 172 -35.5t143 -95.5q58 -60 94 -141t36 -172z" />
    <glyph glyph-name="uni246E" unicode="&#x246e;" horiz-adv-x="940" 
d="M285 17v419h-103v32q57 3 81.5 28t29.5 80h39v-559h-47zM740 198q0 -41 -14 -75.5t-35 -60.5q-24 -25 -54.5 -40t-66.5 -15q-35 0 -66 12.5t-50 33.5q-24 23 -36 54.5t-13 70.5h47q2 -59 33.5 -93t84.5 -34q27 0 50 12.5t41 32.5q13 22 22.5 49t9.5 59q0 63 -34 103.5
t-89 40.5q-35 0 -62.5 -16t-46.5 -48h-43l47 292h249v-45h-213l-31 -191q19 24 45.5 38t58.5 14q78 0 122 -52t44 -142zM875 299q0 84 -31 159t-88 130q-53 54 -128.5 86.5t-159.5 32.5t-157.5 -32.5t-130.5 -86.5q-55 -55 -86 -130t-31 -159t31 -159t86 -129
q57 -54 130.5 -86.5t157.5 -32.5t159.5 32.5t128.5 86.5q57 54 88 129t31 159zM913 299q0 -91 -36 -172t-94 -142q-62 -59 -143 -94t-172 -35q-92 0 -172.5 35t-138.5 94q-62 61 -96 142t-34 172t34 172t96 141q58 60 138.5 95.5t172.5 35.5q91 0 172 -35.5t143 -95.5
q58 -60 94 -141t36 -172z" />
    <glyph glyph-name="uni2474" unicode="&#x2474;" horiz-adv-x="940" 
d="M147 -166q-28 42 -50 94t-39 113q-15 59 -21.5 124t-6.5 133q0 69 6.5 134t21.5 124q17 61 39 113t50 94h43q-31 -59 -50.5 -117t-30.5 -115q-14 -59 -18 -116.5t-4 -116.5q0 -58 4 -115.5t18 -116.5q11 -57 30.5 -115t50.5 -117h-43zM451 -24v471h-130v35
q65 1 99.5 31.5t40.5 89.5h43v-627h-53zM910 298q0 -68 -8.5 -133t-23.5 -124q-13 -61 -35 -113t-51 -94h-42q31 59 50.5 117t30.5 115q9 59 13.5 116.5t4.5 115.5q0 59 -4.5 116.5t-13.5 116.5q-11 57 -30.5 115t-50.5 117h42q29 -42 51 -94t35 -113q15 -59 23.5 -124
t8.5 -134z" />
    <glyph glyph-name="uni2475" unicode="&#x2475;" horiz-adv-x="940" 
d="M147 -166q-28 42 -50 94t-39 113q-15 59 -21.5 124t-6.5 133q0 69 6.5 134t21.5 124q17 61 39 113t50 94h43q-31 -59 -50.5 -117t-30.5 -115q-14 -59 -18 -116.5t-4 -116.5q0 -58 4 -115.5t18 -116.5q11 -57 30.5 -115t50.5 -117h-43zM268 -3q7 52 23.5 91.5t45.5 72.5
q30 30 69 60.5t86 63.5q54 38 85.5 76.5t31.5 97.5t-36 93t-101 34q-33 0 -59.5 -14.5t-40.5 -37.5q-17 -25 -26 -56t-9 -66h-53q-1 48 10 88.5t38 67.5q25 30 60.5 46.5t83.5 16.5q40 0 74 -12t61 -32q23 -23 37.5 -55.5t14.5 -74.5q0 -38 -13 -69.5t-31 -56.5
q-23 -27 -49.5 -49t-55.5 -41q-33 -25 -64.5 -48.5t-52.5 -48.5q-24 -23 -40.5 -47t-20.5 -48h331v-52h-399zM910 298q0 -68 -8.5 -133t-23.5 -124q-13 -61 -35 -113t-51 -94h-42q31 59 50.5 117t30.5 115q9 59 13.5 116.5t4.5 115.5q0 59 -4.5 116.5t-13.5 116.5
q-11 57 -30.5 115t-50.5 117h42q29 -42 51 -94t35 -113q15 -59 23.5 -124t8.5 -134z" />
    <glyph glyph-name="uni2476" unicode="&#x2476;" horiz-adv-x="940" 
d="M147 -166q-28 42 -50 94t-39 113q-15 59 -21.5 124t-6.5 133q0 69 6.5 134t21.5 124q17 61 39 113t50 94h43q-31 -59 -50.5 -117t-30.5 -115q-14 -59 -18 -116.5t-4 -116.5q0 -58 4 -115.5t18 -116.5q11 -57 30.5 -115t50.5 -117h-43zM688 166q0 -47 -17 -82.5t-46 -59.5
q-30 -21 -67 -33t-78 -12q-47 0 -84 13.5t-65 40.5q-30 25 -44 64.5t-13 91.5h54q0 -79 42.5 -122t106.5 -43q33 0 62 10.5t48 27.5q23 19 33.5 44.5t10.5 59.5q0 31 -10 55.5t-31 40.5q-18 15 -45.5 24.5t-55.5 9.5h-46v49h46q20 0 42 7.5t42 24.5q15 14 26.5 35.5
t11.5 50.5q0 50 -33 82t-97 32q-32 0 -57.5 -12.5t-44.5 -32.5q-16 -22 -26.5 -50t-11.5 -61h-52q-1 43 12 81t37 63q27 28 61.5 43.5t80.5 15.5q85 0 135 -43t50 -118q0 -54 -29.5 -89.5t-71.5 -49.5q60 -12 92 -52t32 -106zM910 298q0 -68 -8.5 -133t-23.5 -124
q-13 -61 -35 -113t-51 -94h-42q31 59 50.5 117t30.5 115q9 59 13.5 116.5t4.5 115.5q0 59 -4.5 116.5t-13.5 116.5q-11 57 -30.5 115t-50.5 117h42q29 -42 51 -94t35 -113q15 -59 23.5 -124t8.5 -134z" />
    <glyph glyph-name="uni2477" unicode="&#x2477;" horiz-adv-x="940" 
d="M526 532l-225 -332h225v332zM147 -166q-28 42 -50 94t-39 113q-15 59 -21.5 124t-6.5 133q0 69 6.5 134t21.5 124q17 61 39 113t50 94h43q-31 -59 -50.5 -117t-30.5 -115q-14 -59 -18 -116.5t-4 -116.5q0 -58 4 -115.5t18 -116.5q11 -57 30.5 -115t50.5 -117h-43z
M579 148v-150h-53v150h-280v52l280 425h53v-425h86v-52h-86zM910 298q0 -68 -8.5 -133t-23.5 -124q-13 -61 -35 -113t-51 -94h-42q31 59 50.5 117t30.5 115q9 59 13.5 116.5t4.5 115.5q0 59 -4.5 116.5t-13.5 116.5q-11 57 -30.5 115t-50.5 117h42q29 -42 51 -94t35 -113
q15 -59 23.5 -124t8.5 -134z" />
    <glyph glyph-name="uni2478" unicode="&#x2478;" horiz-adv-x="940" 
d="M147 -166q-28 42 -50 94t-39 113q-15 59 -21.5 124t-6.5 133q0 69 6.5 134t21.5 124q17 61 39 113t50 94h43q-31 -59 -50.5 -117t-30.5 -115q-14 -59 -18 -116.5t-4 -116.5q0 -58 4 -115.5t18 -116.5q11 -57 30.5 -115t50.5 -117h-43zM677 188q0 -46 -15 -84.5t-42 -65.5
q-30 -30 -68 -46t-82 -16q-43 0 -78 14t-61 37q-28 26 -42.5 62t-15.5 80h53q3 -70 44.5 -108t100.5 -38q35 0 64 14t48 39q18 22 29.5 53.5t11.5 65.5q0 36 -12 66.5t-29 51.5q-20 23 -49.5 34t-63.5 11q-42 0 -76 -16.5t-56 -56.5h-48l54 330h307v-54h-265l-37 -213
q22 27 57 42.5t70 15.5q49 0 85.5 -15.5t63.5 -44.5q27 -30 39.5 -69.5t12.5 -88.5zM910 298q0 -68 -8.5 -133t-23.5 -124q-13 -61 -35 -113t-51 -94h-42q31 59 50.5 117t30.5 115q9 59 13.5 116.5t4.5 115.5q0 59 -4.5 116.5t-13.5 116.5q-11 57 -30.5 115t-50.5 117h42
q29 -42 51 -94t35 -113q15 -59 23.5 -124t8.5 -134z" />
    <glyph glyph-name="uni2479" unicode="&#x2479;" horiz-adv-x="940" 
d="M624 186q0 75 -40 118t-104 43q-66 0 -106 -43.5t-40 -118.5q0 -35 10.5 -63.5t29.5 -49.5q16 -24 43.5 -37.5t62.5 -13.5q32 0 60 13.5t45 37.5q20 22 29.5 52t9.5 62zM147 -166q-28 42 -50 94t-39 113q-15 59 -21.5 124t-6.5 133q0 69 6.5 134t21.5 124q17 61 39 113
t50 94h43q-31 -59 -50.5 -117t-30.5 -115q-14 -59 -18 -116.5t-4 -116.5q0 -58 4 -115.5t18 -116.5q11 -57 30.5 -115t50.5 -117h-43zM677 186q0 -47 -13 -86t-39 -66q-28 -29 -64 -44.5t-81 -15.5q-52 0 -91.5 17.5t-64.5 56.5q-29 40 -43.5 102.5t-14.5 153.5q0 73 16 131
t47 99q29 41 67 63t87 22q43 0 74.5 -12.5t56.5 -32.5q20 -23 34 -52t18 -64h-53q-6 48 -39.5 81t-90.5 33q-40 0 -70.5 -23.5t-48.5 -58.5q-22 -38 -31 -90t-9 -111q15 45 56 74.5t100 29.5q45 0 80.5 -14t64.5 -41q26 -27 39 -66t13 -86zM910 298q0 -68 -8.5 -133
t-23.5 -124q-13 -61 -35 -113t-51 -94h-42q31 59 50.5 117t30.5 115q9 59 13.5 116.5t4.5 115.5q0 59 -4.5 116.5t-13.5 116.5q-11 57 -30.5 115t-50.5 117h42q29 -42 51 -94t35 -113q15 -59 23.5 -124t8.5 -134z" />
    <glyph glyph-name="uni247A" unicode="&#x247a;" horiz-adv-x="940" 
d="M147 -166q-28 42 -50 94t-39 113q-15 59 -21.5 124t-6.5 133q0 69 6.5 134t21.5 124q17 61 39 113t50 94h43q-31 -59 -50.5 -117t-30.5 -115q-14 -59 -18 -116.5t-4 -116.5q0 -58 4 -115.5t18 -116.5q11 -57 30.5 -115t50.5 -117h-43zM678 524q-53 -50 -94.5 -114
t-71.5 -137q-27 -72 -44.5 -152t-22.5 -162h-65q6 95 29 180t56 157q35 72 75.5 129t81.5 98h-329v55h385v-54zM910 298q0 -68 -8.5 -133t-23.5 -124q-13 -61 -35 -113t-51 -94h-42q31 59 50.5 117t30.5 115q9 59 13.5 116.5t4.5 115.5q0 59 -4.5 116.5t-13.5 116.5
q-11 57 -30.5 115t-50.5 117h42q29 -42 51 -94t35 -113q15 -59 23.5 -124t8.5 -134z" />
    <glyph glyph-name="uni247B" unicode="&#x247b;" horiz-adv-x="940" 
d="M623 156q0 33 -13.5 59t-32.5 43q-23 16 -50 25.5t-59 9.5q-29 0 -57.5 -9.5t-47.5 -25.5q-23 -17 -34.5 -43t-11.5 -59q0 -34 11 -61t34 -44q18 -17 47 -26.5t59 -9.5q32 0 60 9.5t51 26.5q18 17 31 44t13 61zM596 458q0 47 -33 77.5t-95 30.5q-58 0 -93 -30.5
t-35 -77.5q0 -29 11.5 -50.5t27.5 -34.5q19 -16 42 -23.5t47 -7.5q27 0 50.5 7.5t39.5 23.5q19 13 28.5 34.5t9.5 50.5zM147 -166q-28 42 -50 94t-39 113q-15 59 -21.5 124t-6.5 133q0 69 6.5 134t21.5 124q17 61 39 113t50 94h43q-31 -59 -50.5 -117t-30.5 -115
q-14 -59 -18 -116.5t-4 -116.5q0 -58 4 -115.5t18 -116.5q11 -57 30.5 -115t50.5 -117h-43zM676 156q0 -48 -15 -81.5t-42 -58.5q-30 -23 -68 -36t-83 -13t-83 13t-63 36q-30 25 -46 58.5t-16 81.5q0 28 10 55.5t25 48.5q18 23 40.5 38t46.5 20q-42 15 -68.5 52t-26.5 88
q0 33 11.5 61t35.5 49q25 22 58 34.5t76 12.5t78 -12.5t59 -34.5q21 -21 34.5 -49t13.5 -61q0 -51 -28.5 -86.5t-70.5 -53.5q28 -5 49.5 -20t38.5 -38q18 -21 26 -48.5t8 -55.5zM910 298q0 -68 -8.5 -133t-23.5 -124q-13 -61 -35 -113t-51 -94h-42q31 59 50.5 117t30.5 115
q9 59 13.5 116.5t4.5 115.5q0 59 -4.5 116.5t-13.5 116.5q-11 57 -30.5 115t-50.5 117h42q29 -42 51 -94t35 -113q15 -59 23.5 -124t8.5 -134z" />
    <glyph glyph-name="uni247C" unicode="&#x247c;" horiz-adv-x="940" 
d="M616 415q0 33 -11 62t-27 52q-21 22 -48.5 35.5t-61.5 13.5t-60.5 -14t-42.5 -37q-21 -22 -29.5 -52t-8.5 -62q0 -75 38.5 -120t102.5 -45q33 0 59.5 12t48.5 35q17 20 28.5 51.5t11.5 68.5zM147 -166q-28 42 -50 94t-39 113q-15 59 -21.5 124t-6.5 133q0 69 6.5 134
t21.5 124q17 61 39 113t50 94h43q-31 -59 -50.5 -117t-30.5 -115q-14 -59 -18 -116.5t-4 -116.5q0 -58 4 -115.5t18 -116.5q11 -57 30.5 -115t50.5 -117h-43zM681 302q0 -153 -53 -237.5t-159 -84.5q-84 0 -130.5 42.5t-53.5 116.5h52q5 -48 41 -81t91 -33q41 0 71.5 20.5
t47.5 58.5q21 37 29 89.5t8 116.5q-12 -45 -53.5 -76.5t-103.5 -31.5q-91 0 -143 55t-52 156q0 46 13 85t41 67q23 28 59.5 44t81.5 16q50 0 89.5 -17.5t67.5 -55.5q29 -38 42.5 -99.5t13.5 -150.5zM910 298q0 -68 -8.5 -133t-23.5 -124q-13 -61 -35 -113t-51 -94h-42
q31 59 50.5 117t30.5 115q9 59 13.5 116.5t4.5 115.5q0 59 -4.5 116.5t-13.5 116.5q-11 57 -30.5 115t-50.5 117h42q29 -42 51 -94t35 -113q15 -59 23.5 -124t8.5 -134z" />
    <glyph glyph-name="uni247D" unicode="&#x247d;" horiz-adv-x="940" 
d="M723 294q0 54 -7 103.5t-20 84.5q-18 38 -42 59t-57 21q-31 0 -55.5 -21t-39.5 -59q-13 -35 -21 -84.5t-8 -103.5q0 -57 8 -106t21 -85q15 -38 39.5 -59t55.5 -21q33 0 57 21t42 59q13 36 20 85t7 106zM147 -166q-28 42 -50 94t-39 113q-15 59 -21.5 124t-6.5 133
q0 69 6.5 134t21.5 124q17 61 39 113t50 94h43q-31 -59 -50.5 -117t-30.5 -115q-14 -59 -18 -116.5t-4 -116.5q0 -58 4 -115.5t18 -116.5q11 -57 30.5 -115t50.5 -117h-43zM285 -18v461h-125v36q65 3 97 32t38 86h43v-615h-53zM777 294q0 -73 -11 -131.5t-30 -99.5
q-24 -42 -57 -64.5t-82 -22.5q-47 0 -79.5 22.5t-56.5 64.5q-20 41 -31 99t-11 131q0 72 11 130t31 100q24 41 56.5 62.5t79.5 21.5q49 0 82 -21.5t57 -62.5q19 -42 30 -99.5t11 -129.5zM910 298q0 -68 -8.5 -133t-23.5 -124q-13 -61 -35 -113t-51 -94h-42q31 59 50.5 117
t30.5 115q9 59 13.5 116.5t4.5 115.5q0 59 -4.5 116.5t-13.5 116.5q-11 57 -30.5 115t-50.5 117h42q29 -42 51 -94t35 -113q15 -59 23.5 -124t8.5 -134z" />
    <glyph glyph-name="uni247E" unicode="&#x247e;" horiz-adv-x="940" 
d="M147 -166q-28 42 -50 94t-39 113q-15 59 -21.5 124t-6.5 133q0 69 6.5 134t21.5 124q17 61 39 113t50 94h43q-31 -59 -50.5 -117t-30.5 -115q-14 -59 -18 -116.5t-4 -116.5q0 -58 4 -115.5t18 -116.5q11 -57 30.5 -115t50.5 -117h-43zM327 -21v461h-130v36
q65 3 99.5 31.5t40.5 84.5h43v-613h-53zM629 -21v461h-129v36q68 3 100.5 31.5t41.5 84.5h42v-613h-55zM910 298q0 -68 -8.5 -133t-23.5 -124q-13 -61 -35 -113t-51 -94h-42q31 59 50.5 117t30.5 115q9 59 13.5 116.5t4.5 115.5q0 59 -4.5 116.5t-13.5 116.5
q-11 57 -30.5 115t-50.5 117h42q29 -42 51 -94t35 -113q15 -59 23.5 -124t8.5 -134z" />
    <glyph glyph-name="uni247F" unicode="&#x247f;" horiz-adv-x="940" 
d="M147 -166q-28 42 -50 94t-39 113q-15 59 -21.5 124t-6.5 133q0 69 6.5 134t21.5 124q17 61 39 113t50 94h43q-31 -59 -50.5 -117t-30.5 -115q-14 -59 -18 -116.5t-4 -116.5q0 -58 4 -115.5t18 -116.5q11 -57 30.5 -115t50.5 -117h-43zM262 -13v461h-115v35q60 4 89.5 33
t39.5 85h39v-614h-53zM399 -7q5 52 20 91t41 72q28 31 62 60.5t77 58.5q51 40 78.5 77t27.5 93q0 60 -33 91.5t-89 31.5q-33 0 -55.5 -13t-34.5 -37q-17 -22 -24 -53t-7 -66h-49q-1 49 9 87t34 69q20 29 53 45t76 16q39 0 69 -12t54 -32q23 -23 34.5 -56t11.5 -73
q0 -36 -10 -67.5t-30 -57.5q-17 -24 -41 -45.5t-51 -42.5q-65 -48 -109 -93.5t-52 -92.5h295v-51h-357zM910 298q0 -68 -8.5 -133t-23.5 -124q-13 -61 -35 -113t-51 -94h-42q31 59 50.5 117t30.5 115q9 59 13.5 116.5t4.5 115.5q0 59 -4.5 116.5t-13.5 116.5
q-11 57 -30.5 115t-50.5 117h42q29 -42 51 -94t35 -113q15 -59 23.5 -124t8.5 -134z" />
    <glyph glyph-name="uni2480" unicode="&#x2480;" horiz-adv-x="940" 
d="M147 -166q-28 42 -50 94t-39 113q-15 59 -21.5 124t-6.5 133q0 69 6.5 134t21.5 124q17 61 39 113t50 94h43q-31 -59 -50.5 -117t-30.5 -115q-14 -59 -18 -116.5t-4 -116.5q0 -58 4 -115.5t18 -116.5q11 -57 30.5 -115t50.5 -117h-43zM271 -10v461h-110v32q58 7 86 35
t36 85h41v-613h-53zM777 169q0 -46 -15.5 -81t-43.5 -56q-24 -24 -58.5 -36.5t-72.5 -12.5q-41 0 -75.5 14t-57.5 42q-27 25 -39.5 63.5t-11.5 88.5h52q0 -74 37 -115.5t94 -41.5q62 0 99.5 34t37.5 101q0 31 -9 54.5t-26 38.5q-19 15 -41 24.5t-51 9.5h-42v52h42
q21 0 40.5 7t33.5 22q15 13 25.5 33.5t10.5 48.5q0 50 -29 80.5t-89 30.5q-56 0 -89 -44t-35 -108h-48q0 44 12 81t33 63q24 26 55 41.5t71 15.5q80 0 123.5 -42.5t43.5 -117.5q0 -51 -25.5 -86t-63.5 -48q52 -13 82 -52.5t30 -103.5zM910 298q0 -68 -8.5 -133t-23.5 -124
q-13 -61 -35 -113t-51 -94h-42q31 59 50.5 117t30.5 115q9 59 13.5 116.5t4.5 115.5q0 59 -4.5 116.5t-13.5 116.5q-11 57 -30.5 115t-50.5 117h42q29 -42 51 -94t35 -113q15 -59 23.5 -124t8.5 -134z" />
    <glyph glyph-name="uni2481" unicode="&#x2481;" horiz-adv-x="940" 
d="M654 521l-199 -326h199v326zM147 -166q-28 42 -50 94t-39 113q-15 59 -21.5 124t-6.5 133q0 69 6.5 134t21.5 124q17 61 39 113t50 94h43q-31 -59 -50.5 -117t-30.5 -115q-14 -59 -18 -116.5t-4 -116.5q0 -58 4 -115.5t18 -116.5q11 -57 30.5 -115t50.5 -117h-43zM284 -4
v461h-113v35q62 4 89 31.5t33 84.5h41v-612h-50zM702 144v-147h-48v147h-252v51l252 413h48v-413h77v-51h-77zM910 298q0 -68 -8.5 -133t-23.5 -124q-13 -61 -35 -113t-51 -94h-42q31 59 50.5 117t30.5 115q9 59 13.5 116.5t4.5 115.5q0 59 -4.5 116.5t-13.5 116.5
q-11 57 -30.5 115t-50.5 117h42q29 -42 51 -94t35 -113q15 -59 23.5 -124t8.5 -134z" />
    <glyph glyph-name="uni2482" unicode="&#x2482;" horiz-adv-x="940" 
d="M147 -166q-28 42 -50 94t-39 113q-15 59 -21.5 124t-6.5 133q0 69 6.5 134t21.5 124q17 61 39 113t50 94h43q-31 -59 -50.5 -117t-30.5 -115q-14 -59 -18 -116.5t-4 -116.5q0 -58 4 -115.5t18 -116.5q11 -57 30.5 -115t50.5 -117h-43zM273 -15v463h-111v34q58 1 86 31
t36 87h41v-615h-52zM774 184q0 -45 -14.5 -83.5t-41.5 -64.5q-24 -29 -58.5 -45t-74.5 -16q-39 0 -71 13.5t-56 35.5q-26 26 -39 61t-14 79h52q1 -67 38 -104t90 -37q33 0 57.5 13.5t41.5 37.5q19 21 27.5 52t8.5 64q0 71 -35 115.5t-100 44.5q-39 0 -68.5 -17t-49.5 -54
h-47l51 321h276v-50h-236l-34 -209q20 26 49 41.5t63 15.5q42 0 77 -14.5t57 -43.5q26 -28 38.5 -68t12.5 -88zM910 298q0 -68 -8.5 -133t-23.5 -124q-13 -61 -35 -113t-51 -94h-42q31 59 50.5 117t30.5 115q9 59 13.5 116.5t4.5 115.5q0 59 -4.5 116.5t-13.5 116.5
q-11 57 -30.5 115t-50.5 117h42q29 -42 51 -94t35 -113q15 -59 23.5 -124t8.5 -134z" />
    <glyph glyph-name="uni249C" unicode="&#x249c;" horiz-adv-x="940" 
d="M593 338q-6 -8 -20 -16t-29 -11q-50 -9 -89.5 -17.5t-67.5 -22.5q-25 -13 -39 -32t-14 -49q0 -42 27.5 -62t77.5 -20q32 0 61.5 11t48.5 30q23 21 33.5 48t10.5 62v79zM147 -166q-28 42 -50 94t-39 113q-15 59 -21.5 124t-6.5 133q0 69 6.5 134t21.5 124q17 61 39 113
t50 94h43q-31 -59 -50.5 -117t-30.5 -115q-14 -59 -18 -116.5t-4 -116.5q0 -58 4 -115.5t18 -116.5q11 -57 30.5 -115t50.5 -117h-43zM702 81q-10 -2 -18.5 -3t-18.5 -1q-39 0 -52.5 22.5t-13.5 59.5q-14 -42 -56.5 -69t-112.5 -27q-30 0 -59.5 7.5t-48.5 22.5
q-23 14 -34 39t-11 58q0 43 19 72t51 45q33 18 78.5 27.5t101.5 19.5q32 4 49 19.5t17 42.5q0 52 -33 74.5t-87 22.5q-48 0 -82 -25.5t-40 -85.5h-56q1 39 16.5 70.5t38.5 50.5q25 21 59 30t73 9q32 0 63.5 -6.5t53.5 -22.5q25 -18 38.5 -47t13.5 -75v-251q0 -35 30 -35
q7 0 12.5 1t8.5 2v-47zM910 298q0 -68 -8.5 -133t-23.5 -124q-13 -61 -35 -113t-51 -94h-42q31 59 50.5 117t30.5 115q9 59 13.5 116.5t4.5 115.5q0 59 -4.5 116.5t-13.5 116.5q-11 57 -30.5 115t-50.5 117h42q29 -42 51 -94t35 -113q15 -59 23.5 -124t8.5 -134z" />
    <glyph glyph-name="uni249D" unicode="&#x249d;" horiz-adv-x="940" 
d="M648 213q0 38 -9.5 74t-25.5 64q-21 28 -48.5 46t-66.5 18q-43 0 -74.5 -18t-48.5 -46q-19 -28 -29 -64t-10 -74q0 -36 9.5 -72t28.5 -63q17 -30 48.5 -48t75.5 -18q39 0 66.5 18t48.5 48q16 27 25.5 63t9.5 72zM147 -166q-28 42 -50 94t-39 113q-15 59 -21.5 124
t-6.5 133q0 69 6.5 134t21.5 124q17 61 39 113t50 94h43q-31 -59 -50.5 -117t-30.5 -115q-14 -59 -18 -116.5t-4 -116.5q0 -58 4 -115.5t18 -116.5q11 -57 30.5 -115t50.5 -117h-43zM704 213q0 -49 -13.5 -93.5t-36.5 -78.5q-28 -36 -67 -56t-89 -20q-55 0 -100.5 26
t-61.5 75v-88h-55v654h55v-274q22 49 66 77.5t96 28.5q50 0 89 -20t67 -54q23 -35 36.5 -80.5t13.5 -96.5zM910 298q0 -68 -8.5 -133t-23.5 -124q-13 -61 -35 -113t-51 -94h-42q31 59 50.5 117t30.5 115q9 59 13.5 116.5t4.5 115.5q0 59 -4.5 116.5t-13.5 116.5
q-11 57 -30.5 115t-50.5 117h42q29 -42 51 -94t35 -113q15 -59 23.5 -124t8.5 -134z" />
    <glyph glyph-name="uni249E" unicode="&#x249e;" horiz-adv-x="940" 
d="M147 -166q-28 42 -50 94t-39 113q-15 59 -21.5 124t-6.5 133q0 69 6.5 134t21.5 124q17 61 39 113t50 94h43q-31 -59 -50.5 -117t-30.5 -115q-14 -59 -18 -116.5t-4 -116.5q0 -58 4 -115.5t18 -116.5q11 -57 30.5 -115t50.5 -117h-43zM670 223q-10 -84 -61 -128.5
t-132 -44.5q-51 0 -90.5 18.5t-64.5 51.5q-29 29 -43 76.5t-14 102.5q0 53 14 98.5t43 80.5q25 33 64.5 52t90.5 19q37 0 70.5 -12.5t58.5 -31.5q23 -22 40 -52.5t21 -69.5h-54q-11 52 -45.5 85t-90.5 33q-37 0 -67.5 -16.5t-47.5 -44.5q-22 -26 -30.5 -63t-8.5 -78
q0 -44 9.5 -81t31.5 -62q18 -27 48 -42.5t65 -15.5q56 0 93.5 34.5t46.5 90.5h53zM910 298q0 -68 -8.5 -133t-23.5 -124q-13 -61 -35 -113t-51 -94h-42q31 59 50.5 117t30.5 115q9 59 13.5 116.5t4.5 115.5q0 59 -4.5 116.5t-13.5 116.5q-11 57 -30.5 115t-50.5 117h42
q29 -42 51 -94t35 -113q15 -59 23.5 -124t8.5 -134z" />
    <glyph glyph-name="uni249F" unicode="&#x249f;" horiz-adv-x="940" 
d="M599 219q0 37 -8 73.5t-27 64.5q-22 28 -51 46t-72 18q-40 0 -69.5 -18t-45.5 -46q-21 -28 -28.5 -64.5t-7.5 -73.5q0 -36 7.5 -72.5t28.5 -62.5q16 -30 45.5 -48t69.5 -18q44 0 73.5 18t50.5 48q18 26 26 62.5t8 72.5zM147 -166q-28 42 -50 94t-39 113q-15 59 -21.5 124
t-6.5 133q0 69 6.5 134t21.5 124q17 61 39 113t50 94h43q-31 -59 -50.5 -117t-30.5 -115q-14 -59 -18 -116.5t-4 -116.5q0 -58 4 -115.5t18 -116.5q11 -57 30.5 -115t50.5 -117h-43zM599 -17v91q-16 -52 -60 -78t-98 -26q-55 0 -94 20.5t-62 55.5q-28 34 -39.5 79t-11.5 94
q0 51 11.5 96t39.5 81q23 34 62 54t94 20q23 0 47.5 -7t47.5 -23q19 -13 36 -32t27 -41v271h58v-655h-58zM910 298q0 -68 -8.5 -133t-23.5 -124q-13 -61 -35 -113t-51 -94h-42q31 59 50.5 117t30.5 115q9 59 13.5 116.5t4.5 115.5q0 59 -4.5 116.5t-13.5 116.5
q-11 57 -30.5 115t-50.5 117h42q29 -42 51 -94t35 -113q15 -59 23.5 -124t8.5 -134z" />
    <glyph glyph-name="uni24A0" unicode="&#x24a0;" horiz-adv-x="940" 
d="M620 337q-1 31 -12.5 60.5t-28.5 54.5q-21 23 -48 37.5t-61 14.5q-32 0 -59.5 -14t-43.5 -36q-21 -25 -31 -54.5t-13 -62.5h297zM147 -166q-28 42 -50 94t-39 113q-15 59 -21.5 124t-6.5 133q0 69 6.5 134t21.5 124q17 61 39 113t50 94h43q-31 -59 -50.5 -117t-30.5 -115
q-14 -59 -18 -116.5t-4 -116.5q0 -58 4 -115.5t18 -116.5q11 -57 30.5 -115t50.5 -117h-43zM323 288q0 -39 9.5 -73.5t30.5 -58.5q17 -26 44.5 -40t62.5 -14q65 0 101 35t47 86h53q-15 -81 -66 -125.5t-135 -44.5q-46 0 -83.5 17.5t-62.5 49.5q-29 29 -43.5 77t-14.5 106
q0 51 13 95.5t40 79.5q23 34 61.5 54t89.5 20q57 0 94.5 -21t62.5 -57q26 -37 36 -85t10 -101h-350zM910 298q0 -68 -8.5 -133t-23.5 -124q-13 -61 -35 -113t-51 -94h-42q31 59 50.5 117t30.5 115q9 59 13.5 116.5t4.5 115.5q0 59 -4.5 116.5t-13.5 116.5q-11 57 -30.5 115
t-50.5 117h42q29 -42 51 -94t35 -113q15 -59 23.5 -124t8.5 -134z" />
    <glyph glyph-name="uni24A1" unicode="&#x24a1;" horiz-adv-x="940" 
d="M147 -166q-28 42 -50 94t-39 113q-15 59 -21.5 124t-6.5 133q0 69 6.5 134t21.5 124q17 61 39 113t50 94h43q-31 -59 -50.5 -117t-30.5 -115q-14 -59 -18 -116.5t-4 -116.5q0 -58 4 -115.5t18 -116.5q11 -57 30.5 -115t50.5 -117h-43zM583 555q-12 2 -22.5 3.5t-18.5 1.5
q-36 0 -44.5 -22t-8.5 -60v-50h86v-47h-86v-423h-57v423h-80v47h80v53q0 64 21 95.5t82 31.5q11 0 22.5 -0.5t25.5 -1.5v-51zM910 298q0 -68 -8.5 -133t-23.5 -124q-13 -61 -35 -113t-51 -94h-42q31 59 50.5 117t30.5 115q9 59 13.5 116.5t4.5 115.5q0 59 -4.5 116.5
t-13.5 116.5q-11 57 -30.5 115t-50.5 117h42q29 -42 51 -94t35 -113q15 -59 23.5 -124t8.5 -134z" />
    <glyph glyph-name="uni24A2" unicode="&#x24a2;" horiz-adv-x="940" 
d="M620 360q0 37 -9.5 70.5t-27.5 61.5q-16 25 -45 41t-68 16q-36 0 -64 -14.5t-45 -38.5q-22 -27 -31 -61.5t-9 -69.5q0 -84 38 -134t111 -50q36 0 65 14.5t48 37.5q16 25 26.5 58t10.5 69zM147 -166q-28 42 -50 94t-39 113q-15 59 -21.5 124t-6.5 133q0 69 6.5 134
t21.5 124q17 61 39 113t50 94h43q-31 -59 -50.5 -117t-30.5 -115q-14 -59 -18 -116.5t-4 -116.5q0 -58 4 -115.5t18 -116.5q11 -57 30.5 -115t50.5 -117h-43zM674 178q0 -97 -46.5 -154t-156.5 -57q-36 0 -67.5 7.5t-58.5 26.5q-24 16 -41 43.5t-21 63.5h55q7 -51 44 -72
t89 -21q79 0 114 41.5t35 128.5v37q-6 -18 -21 -34.5t-32 -28.5q-22 -13 -45.5 -20t-51.5 -7q-95 0 -150.5 61.5t-55.5 171.5q0 50 14.5 93t43.5 75q25 30 63 47.5t85 17.5q29 0 52 -6.5t45 -18.5q17 -13 32 -30.5t21 -33.5v76h54v-407zM910 298q0 -68 -8.5 -133t-23.5 -124
q-13 -61 -35 -113t-51 -94h-42q31 59 50.5 117t30.5 115q9 59 13.5 116.5t4.5 115.5q0 59 -4.5 116.5t-13.5 116.5q-11 57 -30.5 115t-50.5 117h42q29 -42 51 -94t35 -113q15 -59 23.5 -124t8.5 -134z" />
    <glyph glyph-name="uni24A3" unicode="&#x24a3;" horiz-adv-x="940" 
d="M147 -166q-28 42 -50 94t-39 113q-15 59 -21.5 124t-6.5 133q0 69 6.5 134t21.5 124q17 61 39 113t50 94h43q-31 -59 -50.5 -117t-30.5 -115q-14 -59 -18 -116.5t-4 -116.5q0 -58 4 -115.5t18 -116.5q11 -57 30.5 -115t50.5 -117h-43zM616 -27v294q0 30 -7.5 56t-21.5 47
q-12 18 -34.5 29.5t-53.5 11.5q-35 0 -61 -12.5t-46 -32.5q-17 -23 -27 -52.5t-10 -64.5v-276h-58v655h58v-263q7 19 21 37t37 30q18 11 41 19.5t47 8.5q47 0 80 -13.5t51 -36.5q22 -25 29.5 -59.5t7.5 -75.5v-302h-53zM910 298q0 -68 -8.5 -133t-23.5 -124
q-13 -61 -35 -113t-51 -94h-42q31 59 50.5 117t30.5 115q9 59 13.5 116.5t4.5 115.5q0 59 -4.5 116.5t-13.5 116.5q-11 57 -30.5 115t-50.5 117h42q29 -42 51 -94t35 -113q15 -59 23.5 -124t8.5 -134z" />
    <glyph glyph-name="uni24A4" unicode="&#x24a4;" horiz-adv-x="940" 
d="M147 -166q-28 42 -50 94t-39 113q-15 59 -21.5 124t-6.5 133q0 69 6.5 134t21.5 124q17 61 39 113t50 94h43q-31 -59 -50.5 -117t-30.5 -115q-14 -59 -18 -116.5t-4 -116.5q0 -58 4 -115.5t18 -116.5q11 -57 30.5 -115t50.5 -117h-43zM443 -32v472h56v-472h-56zM442 529
v94h58v-94h-58zM910 298q0 -68 -8.5 -133t-23.5 -124q-13 -61 -35 -113t-51 -94h-42q31 59 50.5 117t30.5 115q9 59 13.5 116.5t4.5 115.5q0 59 -4.5 116.5t-13.5 116.5q-11 57 -30.5 115t-50.5 117h42q29 -42 51 -94t35 -113q15 -59 23.5 -124t8.5 -134z" />
    <glyph glyph-name="uni24A5" unicode="&#x24a5;" horiz-adv-x="940" 
d="M147 -166q-28 42 -50 94t-39 113q-15 59 -21.5 124t-6.5 133q0 69 6.5 134t21.5 124q17 61 39 113t50 94h43q-31 -59 -50.5 -117t-30.5 -115q-14 -59 -18 -116.5t-4 -116.5q0 -58 4 -115.5t18 -116.5q11 -57 30.5 -115t50.5 -117h-43zM511 13q0 -56 -20.5 -85.5
t-72.5 -29.5h-16.5t-13.5 1v50q3 -1 10.5 -1h12.5q24 0 34.5 13t10.5 45v510h55v-503zM910 298q0 -68 -8.5 -133t-23.5 -124q-13 -61 -35 -113t-51 -94h-42q31 59 50.5 117t30.5 115q9 59 13.5 116.5t4.5 115.5q0 59 -4.5 116.5t-13.5 116.5q-11 57 -30.5 115t-50.5 117h42
q29 -42 51 -94t35 -113q15 -59 23.5 -124t8.5 -134zM455 604v94h57v-94h-57z" />
    <glyph glyph-name="uni24A6" unicode="&#x24a6;" horiz-adv-x="940" 
d="M147 -166q-28 42 -50 94t-39 113q-15 59 -21.5 124t-6.5 133q0 69 6.5 134t21.5 124q17 61 39 113t50 94h43q-31 -59 -50.5 -117t-30.5 -115q-14 -59 -18 -116.5t-4 -116.5q0 -58 4 -115.5t18 -116.5q11 -57 30.5 -115t50.5 -117h-43zM634 -25l-179 257l-92 -84v-173h-59
v654h59v-409l247 228h78l-190 -176l204 -297h-68zM910 298q0 -68 -8.5 -133t-23.5 -124q-13 -61 -35 -113t-51 -94h-42q31 59 50.5 117t30.5 115q9 59 13.5 116.5t4.5 115.5q0 59 -4.5 116.5t-13.5 116.5q-11 57 -30.5 115t-50.5 117h42q29 -42 51 -94t35 -113
q15 -59 23.5 -124t8.5 -134z" />
    <glyph glyph-name="uni24A7" unicode="&#x24a7;" horiz-adv-x="940" 
d="M147 -166q-28 42 -50 94t-39 113q-15 59 -21.5 124t-6.5 133q0 69 6.5 134t21.5 124q17 61 39 113t50 94h43q-31 -59 -50.5 -117t-30.5 -115q-14 -59 -18 -116.5t-4 -116.5q0 -58 4 -115.5t18 -116.5q11 -57 30.5 -115t50.5 -117h-43zM441 -27v654h55v-654h-55zM910 298
q0 -68 -8.5 -133t-23.5 -124q-13 -61 -35 -113t-51 -94h-42q31 59 50.5 117t30.5 115q9 59 13.5 116.5t4.5 115.5q0 59 -4.5 116.5t-13.5 116.5q-11 57 -30.5 115t-50.5 117h42q29 -42 51 -94t35 -113q15 -59 23.5 -124t8.5 -134z" />
    <glyph glyph-name="uni24A8" unicode="&#x24a8;" horiz-adv-x="940" 
d="M147 -166q-28 42 -50 94t-39 113q-15 59 -21.5 124t-6.5 133q0 69 6.5 134t21.5 124q17 61 39 113t50 94h43q-31 -59 -50.5 -117t-30.5 -115q-14 -59 -18 -116.5t-4 -116.5q0 -58 4 -115.5t18 -116.5q11 -57 30.5 -115t50.5 -117h-43zM739 60v317q0 56 -25 88t-87 32
q-32 0 -55 -13.5t-36 -35.5q-18 -24 -25.5 -54t-7.5 -66v-268h-53v315q0 23 -5.5 44.5t-19.5 40.5q-10 16 -29.5 26.5t-46.5 10.5q-68 0 -101.5 -49t-33.5 -121v-267h-53v473h53v-81q18 42 54.5 68t92.5 26q51 0 88.5 -24t47.5 -69q15 42 50.5 67.5t92.5 25.5
q75 0 113.5 -40.5t38.5 -125.5v-320h-53zM910 298q0 -68 -8.5 -133t-23.5 -124q-13 -61 -35 -113t-51 -94h-42q31 59 50.5 117t30.5 115q9 59 13.5 116.5t4.5 115.5q0 59 -4.5 116.5t-13.5 116.5q-11 57 -30.5 115t-50.5 117h42q29 -42 51 -94t35 -113q15 -59 23.5 -124
t8.5 -134z" />
    <glyph glyph-name="uni24A9" unicode="&#x24a9;" horiz-adv-x="940" 
d="M147 -166q-28 42 -50 94t-39 113q-15 59 -21.5 124t-6.5 133q0 69 6.5 134t21.5 124q17 61 39 113t50 94h43q-31 -59 -50.5 -117t-30.5 -115q-14 -59 -18 -116.5t-4 -116.5q0 -58 4 -115.5t18 -116.5q11 -57 30.5 -115t50.5 -117h-43zM600 65v293q0 68 -29 106.5
t-88 38.5q-32 0 -58 -12.5t-47 -32.5q-17 -23 -28.5 -52.5t-11.5 -65.5v-275h-54v473h54v-81q6 19 21.5 36.5t37.5 29.5q20 14 42.5 21t48.5 7q47 0 78.5 -13.5t53.5 -35.5q18 -25 28 -58t10 -74v-305h-58zM910 298q0 -68 -8.5 -133t-23.5 -124q-13 -61 -35 -113t-51 -94
h-42q31 59 50.5 117t30.5 115q9 59 13.5 116.5t4.5 115.5q0 59 -4.5 116.5t-13.5 116.5q-11 57 -30.5 115t-50.5 117h42q29 -42 51 -94t35 -113q15 -59 23.5 -124t8.5 -134z" />
    <glyph glyph-name="uni24AA" unicode="&#x24aa;" horiz-adv-x="940" 
d="M627 301q0 45 -10.5 82.5t-33.5 64.5q-19 25 -49 40t-66 15t-65 -15t-52 -40q-19 -27 -31.5 -64.5t-12.5 -82.5t12.5 -82t31.5 -62q23 -28 52 -42.5t65 -14.5t66 14.5t49 42.5q23 25 33.5 62t10.5 82zM147 -166q-28 42 -50 94t-39 113q-15 59 -21.5 124t-6.5 133
q0 69 6.5 134t21.5 124q17 61 39 113t50 94h43q-31 -59 -50.5 -117t-30.5 -115q-14 -59 -18 -116.5t-4 -116.5q0 -58 4 -115.5t18 -116.5q11 -57 30.5 -115t50.5 -117h-43zM683 301q0 -55 -14 -101t-44 -78q-28 -34 -68 -52t-89 -18q-50 0 -90.5 18t-68.5 52q-26 32 -42 78
t-16 101t16 101.5t42 78.5q28 33 68.5 51.5t90.5 18.5q49 0 89 -18.5t68 -51.5q30 -32 44 -78.5t14 -101.5zM910 298q0 -68 -8.5 -133t-23.5 -124q-13 -61 -35 -113t-51 -94h-42q31 59 50.5 117t30.5 115q9 59 13.5 116.5t4.5 115.5q0 59 -4.5 116.5t-13.5 116.5
q-11 57 -30.5 115t-50.5 117h42q29 -42 51 -94t35 -113q15 -59 23.5 -124t8.5 -134z" />
    <glyph glyph-name="uni24AB" unicode="&#x24ab;" horiz-adv-x="940" 
d="M643 343q0 42 -9.5 79t-31.5 63q-19 28 -46.5 44.5t-61.5 16.5q-38 0 -67.5 -16t-51.5 -43q-19 -27 -30.5 -64.5t-11.5 -79.5q0 -38 8.5 -74.5t30.5 -62.5q17 -30 48 -47t74 -17q34 0 61.5 16t46.5 45q22 26 31.5 62.5t9.5 77.5zM147 -166q-28 42 -50 94t-39 113
q-15 59 -21.5 124t-6.5 133q0 69 6.5 134t21.5 124q17 61 39 113t50 94h43q-31 -59 -50.5 -117t-30.5 -115q-14 -59 -18 -116.5t-4 -116.5q0 -58 4 -115.5t18 -116.5q11 -57 30.5 -115t50.5 -117h-43zM701 343q0 -118 -56.5 -183t-150.5 -65q-29 0 -53.5 7.5t-47.5 23.5
q-20 12 -36.5 31t-23.5 42v-236h-55v618h55v-90q14 45 55 74t106 29q47 0 85.5 -17t63.5 -50q27 -31 42.5 -79t15.5 -105zM910 298q0 -68 -8.5 -133t-23.5 -124q-13 -61 -35 -113t-51 -94h-42q31 59 50.5 117t30.5 115q9 59 13.5 116.5t4.5 115.5q0 59 -4.5 116.5
t-13.5 116.5q-11 57 -30.5 115t-50.5 117h42q29 -42 51 -94t35 -113q15 -59 23.5 -124t8.5 -134z" />
    <glyph glyph-name="uni24AC" unicode="&#x24ac;" horiz-adv-x="940" 
d="M611 342q0 42 -12 79.5t-30 63.5q-23 28 -52 44t-67 16q-34 0 -61.5 -16.5t-48.5 -45.5q-18 -25 -29.5 -62t-11.5 -79q0 -41 11.5 -77.5t29.5 -62.5q21 -29 48.5 -45t61.5 -16q43 0 73 17t51 47q17 27 27 63t10 74zM147 -166q-28 42 -50 94t-39 113q-15 59 -21.5 124
t-6.5 133q0 69 6.5 134t21.5 124q17 61 39 113t50 94h43q-31 -59 -50.5 -117t-30.5 -115q-14 -59 -18 -116.5t-4 -116.5q0 -58 4 -115.5t18 -116.5q11 -57 30.5 -115t50.5 -117h-43zM611 -37v235q-17 -48 -61.5 -76t-99.5 -28q-47 0 -84.5 17.5t-66.5 49.5q-25 30 -39.5 77
t-14.5 104t14.5 105t39.5 78q29 34 66.5 51t84.5 17q61 0 102.5 -29t58.5 -74v90h56v-617h-56zM910 298q0 -68 -8.5 -133t-23.5 -124q-13 -61 -35 -113t-51 -94h-42q31 59 50.5 117t30.5 115q9 59 13.5 116.5t4.5 115.5q0 59 -4.5 116.5t-13.5 116.5q-11 57 -30.5 115
t-50.5 117h42q29 -42 51 -94t35 -113q15 -59 23.5 -124t8.5 -134z" />
    <glyph glyph-name="uni24AD" unicode="&#x24ad;" horiz-adv-x="940" 
d="M147 -166q-28 42 -50 94t-39 113q-15 59 -21.5 124t-6.5 133q0 69 6.5 134t21.5 124q17 61 39 113t50 94h43q-31 -59 -50.5 -117t-30.5 -115q-14 -59 -18 -116.5t-4 -116.5q0 -58 4 -115.5t18 -116.5q11 -57 30.5 -115t50.5 -117h-43zM600 463q-32 3 -63 -9.5t-51 -33.5
q-24 -24 -36 -55.5t-12 -68.5v-251h-57v471h57v-107q14 51 57.5 82.5t104.5 29.5v-58zM910 298q0 -68 -8.5 -133t-23.5 -124q-13 -61 -35 -113t-51 -94h-42q31 59 50.5 117t30.5 115q9 59 13.5 116.5t4.5 115.5q0 59 -4.5 116.5t-13.5 116.5q-11 57 -30.5 115t-50.5 117h42
q29 -42 51 -94t35 -113q15 -59 23.5 -124t8.5 -134z" />
    <glyph glyph-name="uni24AE" unicode="&#x24ae;" horiz-adv-x="940" 
d="M147 -166q-28 42 -50 94t-39 113q-15 59 -21.5 124t-6.5 133q0 69 6.5 134t21.5 124q17 61 39 113t50 94h43q-31 -59 -50.5 -117t-30.5 -115q-14 -59 -18 -116.5t-4 -116.5q0 -58 4 -115.5t18 -116.5q11 -57 30.5 -115t50.5 -117h-43zM660 200q0 -38 -14.5 -65.5
t-36.5 -44.5q-26 -17 -60 -25.5t-74 -8.5q-37 0 -70 10.5t-59 30.5q-23 21 -38.5 51.5t-18.5 73.5h53q5 -56 42 -86.5t96 -30.5q57 0 89.5 21.5t32.5 66.5q0 39 -27 57t-73 31l-72 18q-22 6 -45 16t-43 24q-16 14 -27.5 35t-11.5 50q0 59 42.5 95.5t124.5 36.5q35 0 67 -9.5
t54 -29.5q25 -18 38 -47.5t14 -67.5h-57q-2 53 -32 79t-86 26q-52 0 -79 -22t-27 -57q0 -19 6.5 -32.5t19.5 -21.5q14 -9 30 -15.5t38 -11.5l75 -19q25 -8 49.5 -17.5t42.5 -22.5q15 -15 26 -36.5t11 -51.5zM910 298q0 -68 -8.5 -133t-23.5 -124q-13 -61 -35 -113t-51 -94
h-42q31 59 50.5 117t30.5 115q9 59 13.5 116.5t4.5 115.5q0 59 -4.5 116.5t-13.5 116.5q-11 57 -30.5 115t-50.5 117h42q29 -42 51 -94t35 -113q15 -59 23.5 -124t8.5 -134z" />
    <glyph glyph-name="uni24AF" unicode="&#x24af;" horiz-adv-x="940" 
d="M147 -166q-28 42 -50 94t-39 113q-15 59 -21.5 124t-6.5 133q0 69 6.5 134t21.5 124q17 61 39 113t50 94h43q-31 -59 -50.5 -117t-30.5 -115q-14 -59 -18 -116.5t-4 -116.5q0 -58 4 -115.5t18 -116.5q11 -57 30.5 -115t50.5 -117h-43zM572 -11q-14 -2 -25 -3t-24 -1
q-28 0 -47 5.5t-30 16.5q-14 12 -19 32t-5 50v329h-82v46h82v142h55v-142h95v-46h-95v-328q0 -30 11 -42.5t37 -12.5h23.5t23.5 2v-48zM910 298q0 -68 -8.5 -133t-23.5 -124q-13 -61 -35 -113t-51 -94h-42q31 59 50.5 117t30.5 115q9 59 13.5 116.5t4.5 115.5
q0 59 -4.5 116.5t-13.5 116.5q-11 57 -30.5 115t-50.5 117h42q29 -42 51 -94t35 -113q15 -59 23.5 -124t8.5 -134z" />
    <glyph glyph-name="uni24B0" unicode="&#x24b0;" horiz-adv-x="940" 
d="M147 -166q-28 42 -50 94t-39 113q-15 59 -21.5 124t-6.5 133q0 69 6.5 134t21.5 124q17 61 39 113t50 94h43q-31 -59 -50.5 -117t-30.5 -115q-14 -59 -18 -116.5t-4 -116.5q0 -58 4 -115.5t18 -116.5q11 -57 30.5 -115t50.5 -117h-43zM606 59v84q-14 -43 -54 -70t-98 -27
q-85 0 -124 45t-39 133v308h53v-308q0 -131 122 -131q34 0 59.5 14.5t45.5 38.5q15 25 25 56t10 70v260h57v-473h-57zM910 298q0 -68 -8.5 -133t-23.5 -124q-13 -61 -35 -113t-51 -94h-42q31 59 50.5 117t30.5 115q9 59 13.5 116.5t4.5 115.5q0 59 -4.5 116.5t-13.5 116.5
q-11 57 -30.5 115t-50.5 117h42q29 -42 51 -94t35 -113q15 -59 23.5 -124t8.5 -134z" />
    <glyph glyph-name="uni24B1" unicode="&#x24b1;" horiz-adv-x="940" 
d="M147 -166q-28 42 -50 94t-39 113q-15 59 -21.5 124t-6.5 133q0 69 6.5 134t21.5 124q17 61 39 113t50 94h43q-31 -59 -50.5 -117t-30.5 -115q-14 -59 -18 -116.5t-4 -116.5q0 -58 4 -115.5t18 -116.5q11 -57 30.5 -115t50.5 -117h-43zM502 39h-61l-170 471h60l139 -412
l143 412h59zM910 298q0 -68 -8.5 -133t-23.5 -124q-13 -61 -35 -113t-51 -94h-42q31 59 50.5 117t30.5 115q9 59 13.5 116.5t4.5 115.5q0 59 -4.5 116.5t-13.5 116.5q-11 57 -30.5 115t-50.5 117h42q29 -42 51 -94t35 -113q15 -59 23.5 -124t8.5 -134z" />
    <glyph glyph-name="uni24B2" unicode="&#x24b2;" horiz-adv-x="940" 
d="M147 -166q-28 42 -50 94t-39 113q-15 59 -21.5 124t-6.5 133q0 69 6.5 134t21.5 124q17 61 39 113t50 94h43q-31 -59 -50.5 -117t-30.5 -115q-14 -59 -18 -116.5t-4 -116.5q0 -58 4 -115.5t18 -116.5q11 -57 30.5 -115t50.5 -117h-43zM649 45h-66l-113 395l-110 -395h-65
l-143 470h57l120 -403l111 403h62l114 -403l118 403h58zM910 298q0 -68 -8.5 -133t-23.5 -124q-13 -61 -35 -113t-51 -94h-42q31 59 50.5 117t30.5 115q9 59 13.5 116.5t4.5 115.5q0 59 -4.5 116.5t-13.5 116.5q-11 57 -30.5 115t-50.5 117h42q29 -42 51 -94t35 -113
q15 -59 23.5 -124t8.5 -134z" />
    <glyph glyph-name="uni24B3" unicode="&#x24b3;" horiz-adv-x="940" 
d="M147 -166q-28 42 -50 94t-39 113q-15 59 -21.5 124t-6.5 133q0 69 6.5 134t21.5 124q17 61 39 113t50 94h43q-31 -59 -50.5 -117t-30.5 -115q-14 -59 -18 -116.5t-4 -116.5q0 -58 4 -115.5t18 -116.5q11 -57 30.5 -115t50.5 -117h-43zM617 60l-147 204l-143 -204h-67
l180 248l-164 224h66l127 -182l127 182h69l-164 -224l178 -248h-62zM910 298q0 -68 -8.5 -133t-23.5 -124q-13 -61 -35 -113t-51 -94h-42q31 59 50.5 117t30.5 115q9 59 13.5 116.5t4.5 115.5q0 59 -4.5 116.5t-13.5 116.5q-11 57 -30.5 115t-50.5 117h42q29 -42 51 -94
t35 -113q15 -59 23.5 -124t8.5 -134z" />
    <glyph glyph-name="uni24B4" unicode="&#x24b4;" horiz-adv-x="940" 
d="M147 -166q-28 42 -50 94t-39 113q-15 59 -21.5 124t-6.5 133q0 69 6.5 134t21.5 124q17 61 39 113t50 94h43q-31 -59 -50.5 -117t-30.5 -115q-14 -59 -18 -116.5t-4 -116.5q0 -58 4 -115.5t18 -116.5q11 -57 30.5 -115t50.5 -117h-43zM490 43q-16 -39 -40.5 -61
t-69.5 -22q-30 0 -42 3v48q21 -3 38 -3q12 0 22 2.5t18 9.5q5 4 12 16.5t17 29.5l17 49l-181 462h57l152 -397l135 397h57zM910 298q0 -68 -8.5 -133t-23.5 -124q-13 -61 -35 -113t-51 -94h-42q31 59 50.5 117t30.5 115q9 59 13.5 116.5t4.5 115.5q0 59 -4.5 116.5
t-13.5 116.5q-11 57 -30.5 115t-50.5 117h42q29 -42 51 -94t35 -113q15 -59 23.5 -124t8.5 -134z" />
    <glyph glyph-name="uni24B5" unicode="&#x24b5;" horiz-adv-x="940" 
d="M147 -166q-28 42 -50 94t-39 113q-15 59 -21.5 124t-6.5 133q0 69 6.5 134t21.5 124q17 61 39 113t50 94h43q-31 -59 -50.5 -117t-30.5 -115q-14 -59 -18 -116.5t-4 -116.5q0 -58 4 -115.5t18 -116.5q11 -57 30.5 -115t50.5 -117h-43zM288 65v45l291 379h-277v47h348v-43
l-299 -379h308v-49h-371zM910 298q0 -68 -8.5 -133t-23.5 -124q-13 -61 -35 -113t-51 -94h-42q31 59 50.5 117t30.5 115q9 59 13.5 116.5t4.5 115.5q0 59 -4.5 116.5t-13.5 116.5q-11 57 -30.5 115t-50.5 117h42q29 -42 51 -94t35 -113q15 -59 23.5 -124t8.5 -134z" />
    <glyph glyph-name="uni24D0" unicode="&#x24d0;" horiz-adv-x="940" 
d="M585 330q-4 -8 -18 -16t-26 -10q-48 -8 -86 -17.5t-63 -20.5q-23 -12 -36.5 -29.5t-13.5 -45.5q0 -37 27 -56t72 -19q29 0 57 9.5t46 26.5q21 19 31 45t10 58v75zM685 88q-9 -1 -15.5 -2t-17.5 -1q-35 0 -48.5 21t-13.5 56q-11 -39 -50.5 -64t-107.5 -25q-28 0 -55.5 7
t-44.5 20q-22 15 -32 37.5t-10 52.5q0 42 17.5 69t49.5 42q29 15 71.5 25t94.5 18q30 6 46 19.5t16 35.5q0 53 -30.5 74t-81.5 21q-45 0 -77 -25.5t-35 -78.5h-55q1 38 15 65.5t39 47.5q21 17 53 26.5t68 9.5q30 0 59.5 -7.5t49.5 -21.5q24 -15 35.5 -43t11.5 -71v-233
q0 -34 30 -34q5 0 10 1t8 2v-44zM875 299q0 84 -31 159t-88 130q-53 54 -128.5 86.5t-159.5 32.5t-157.5 -32.5t-130.5 -86.5q-55 -55 -86 -130t-31 -159t31 -159t86 -129q57 -54 130.5 -86.5t157.5 -32.5t159.5 32.5t128.5 86.5q57 54 88 129t31 159zM913 299
q0 -91 -36 -172t-94 -142q-62 -59 -143 -94t-172 -35q-92 0 -172.5 35t-138.5 94q-62 61 -96 142t-34 172t34 172t96 141q58 60 138.5 95.5t172.5 35.5q91 0 172 -35.5t143 -95.5q58 -60 94 -141t36 -172z" />
    <glyph glyph-name="uni24D1" unicode="&#x24d1;" horiz-adv-x="940" 
d="M639 217q0 35 -7 68t-24 61q-19 27 -44.5 43.5t-63.5 16.5q-42 0 -69.5 -16.5t-47.5 -43.5q-16 -28 -25 -61t-9 -68q0 -34 9 -67t25 -61q19 -27 47 -43.5t70 -16.5q38 0 63.5 16.5t44.5 43.5q17 28 24 61t7 67zM693 217q0 -46 -12.5 -88t-34.5 -74q-24 -32 -61 -52
t-85 -20q-51 0 -92.5 25.5t-58.5 73.5v-84h-53v609h53v-253q20 43 61.5 70.5t89.5 27.5t85 -19t61 -52q22 -32 34.5 -74.5t12.5 -89.5zM875 299q0 84 -31 159t-88 130q-53 54 -128.5 86.5t-159.5 32.5t-157.5 -32.5t-130.5 -86.5q-55 -55 -86 -130t-31 -159t31 -159t86 -129
q57 -54 130.5 -86.5t157.5 -32.5t159.5 32.5t128.5 86.5q57 54 88 129t31 159zM913 299q0 -91 -36 -172t-94 -142q-62 -59 -143 -94t-172 -35q-92 0 -172.5 35t-138.5 94q-62 61 -96 142t-34 172t34 172t96 141q58 60 138.5 95.5t172.5 35.5q91 0 172 -35.5t143 -95.5
q58 -60 94 -141t36 -172z" />
    <glyph glyph-name="uni24D2" unicode="&#x24d2;" horiz-adv-x="940" 
d="M652 232q-13 -78 -59.5 -120t-122.5 -42q-48 0 -84.5 17t-59.5 48q-28 31 -40 74t-12 94q0 49 12 92t39 75q23 32 60 50t85 18q34 0 65.5 -11t52.5 -30q25 -22 39.5 -50t21.5 -65h-54q-8 48 -40 79t-85 31q-36 0 -63.5 -15t-43.5 -41q-21 -25 -29 -60t-8 -73
q0 -41 9 -76.5t30 -57.5q16 -26 43 -39.5t62 -13.5q53 0 87 31t42 85h53zM875 299q0 84 -31 159t-88 130q-53 54 -128.5 86.5t-159.5 32.5t-157.5 -32.5t-130.5 -86.5q-55 -55 -86 -130t-31 -159t31 -159t86 -129q57 -54 130.5 -86.5t157.5 -32.5t159.5 32.5t128.5 86.5
q57 54 88 129t31 159zM913 299q0 -91 -36 -172t-94 -142q-62 -59 -143 -94t-172 -35q-92 0 -172.5 35t-138.5 94q-62 61 -96 142t-34 172t34 172t96 141q58 60 138.5 95.5t172.5 35.5q91 0 172 -35.5t143 -95.5q58 -60 94 -141t36 -172z" />
    <glyph glyph-name="uni24D3" unicode="&#x24d3;" horiz-adv-x="940" 
d="M588 221q0 34 -7.5 68t-27.5 60q-16 28 -44.5 44.5t-68.5 16.5q-38 0 -65.5 -16.5t-42.5 -44.5q-17 -26 -26 -60t-9 -68t9 -67t26 -61q15 -28 42.5 -43.5t65.5 -15.5q42 0 70.5 15.5t44.5 43.5q19 28 26 61t7 67zM588 2v83q-14 -46 -55.5 -71t-92.5 -25q-52 0 -87 17.5
t-61 51.5q-24 32 -34.5 74t-10.5 89t10.5 89.5t34.5 74.5q26 33 61 52t87 19q48 0 89.5 -28.5t58.5 -70.5v255h52v-610h-52zM875 299q0 84 -31 159t-88 130q-53 54 -128.5 86.5t-159.5 32.5t-157.5 -32.5t-130.5 -86.5q-55 -55 -86 -130t-31 -159t31 -159t86 -129
q57 -54 130.5 -86.5t157.5 -32.5t159.5 32.5t128.5 86.5q57 54 88 129t31 159zM913 299q0 -91 -36 -172t-94 -142q-62 -59 -143 -94t-172 -35q-92 0 -172.5 35t-138.5 94q-62 61 -96 142t-34 172t34 172t96 141q58 60 138.5 95.5t172.5 35.5q91 0 172 -35.5t143 -95.5
q58 -60 94 -141t36 -172z" />
    <glyph glyph-name="uni24D4" unicode="&#x24d4;" horiz-adv-x="940" 
d="M599 337q0 29 -9 57t-27 49q-20 23 -44.5 37t-57.5 14q-32 0 -56.5 -13.5t-39.5 -35.5q-20 -22 -29 -50t-12 -58h275zM324 291q0 -37 8.5 -69t28.5 -54q16 -25 41.5 -37.5t58.5 -12.5q60 0 93 32t44 80h53q-18 -74 -64 -115.5t-126 -41.5q-86 0 -137.5 59t-51.5 173
q0 47 11 89.5t37 74.5q21 33 58 51.5t83 18.5q51 0 87.5 -20t61.5 -54q20 -34 31.5 -79t11.5 -95h-329zM875 299q0 84 -31 159t-88 130q-53 54 -128.5 86.5t-159.5 32.5t-157.5 -32.5t-130.5 -86.5q-55 -55 -86 -130t-31 -159t31 -159t86 -129q57 -54 130.5 -86.5
t157.5 -32.5t159.5 32.5t128.5 86.5q57 54 88 129t31 159zM913 299q0 -91 -36 -172t-94 -142q-62 -59 -143 -94t-172 -35q-92 0 -172.5 35t-138.5 94q-62 61 -96 142t-34 172t34 172t96 141q58 60 138.5 95.5t172.5 35.5q91 0 172 -35.5t143 -95.5q58 -60 94 -141t36 -172z
" />
    <glyph glyph-name="uni24D5" unicode="&#x24d5;" horiz-adv-x="940" 
d="M564 541q-13 2 -21 3.5t-18 1.5q-32 0 -41.5 -21t-9.5 -57v-47h80v-43h-80v-397h-52v397h-74v43h74v50q0 60 19.5 90t75.5 30q14 0 23 -0.5t24 -2.5v-47zM875 299q0 84 -31 159t-88 130q-53 54 -128.5 86.5t-159.5 32.5t-157.5 -32.5t-130.5 -86.5q-55 -55 -86 -130
t-31 -159t31 -159t86 -129q57 -54 130.5 -86.5t157.5 -32.5t159.5 32.5t128.5 86.5q57 54 88 129t31 159zM913 299q0 -91 -36 -172t-94 -142q-62 -59 -143 -94t-172 -35q-92 0 -172.5 35t-138.5 94q-62 61 -96 142t-34 172t34 172t96 141q58 60 138.5 95.5t172.5 35.5
q91 0 172 -35.5t143 -95.5q58 -60 94 -141t36 -172z" />
    <glyph glyph-name="uni24D6" unicode="&#x24d6;" horiz-adv-x="940" 
d="M601 366q0 32 -8 64t-23 55q-19 25 -44.5 40.5t-62.5 15.5q-34 0 -60 -14t-42 -36q-20 -25 -28.5 -57t-8.5 -66q0 -78 36 -124.5t103 -46.5q36 0 60.5 13t44.5 37q15 22 24 53t9 66zM655 193q0 -92 -44.5 -144t-146.5 -52q-34 0 -63.5 7t-55.5 21q-22 19 -37.5 44
t-19.5 60h51q7 -47 42.5 -67t82.5 -20q77 0 107 39t30 120v32q-6 -16 -18 -31t-32 -26q-17 -11 -39.5 -19t-48.5 -8q-89 0 -140 59t-51 160q0 47 13 87t40 68q23 30 58.5 47t79.5 17q51 0 88.5 -24.5t49.5 -58.5v70h54v-381zM875 299q0 84 -31 159t-88 130
q-53 54 -128.5 86.5t-159.5 32.5t-157.5 -32.5t-130.5 -86.5q-55 -55 -86 -130t-31 -159t31 -159t86 -129q57 -54 130.5 -86.5t157.5 -32.5t159.5 32.5t128.5 86.5q57 54 88 129t31 159zM913 299q0 -91 -36 -172t-94 -142q-62 -59 -143 -94t-172 -35q-92 0 -172.5 35
t-138.5 94q-62 61 -96 142t-34 172t34 172t96 141q58 60 138.5 95.5t172.5 35.5q91 0 172 -35.5t143 -95.5q58 -60 94 -141t36 -172z" />
    <glyph glyph-name="uni24D7" unicode="&#x24d7;" horiz-adv-x="940" 
d="M598 -2v274q0 58 -25 96t-82 38q-33 0 -57 -11.5t-43 -30.5q-16 -22 -25.5 -49t-9.5 -61v-256h-54v609h54v-245q7 19 20 35.5t34 27.5q16 12 38 19.5t47 7.5q43 0 72 -12.5t50 -33.5q17 -24 26 -55t9 -69v-284h-54zM875 299q0 84 -31 159t-88 130q-53 54 -128.5 86.5
t-159.5 32.5t-157.5 -32.5t-130.5 -86.5q-55 -55 -86 -130t-31 -159t31 -159t86 -129q57 -54 130.5 -86.5t157.5 -32.5t159.5 32.5t128.5 86.5q57 54 88 129t31 159zM913 299q0 -91 -36 -172t-94 -142q-62 -59 -143 -94t-172 -35q-92 0 -172.5 35t-138.5 94q-62 61 -96 142
t-34 172t34 172t96 141q58 60 138.5 95.5t172.5 35.5q91 0 172 -35.5t143 -95.5q58 -60 94 -141t36 -172z" />
    <glyph glyph-name="uni24D8" unicode="&#x24d8;" horiz-adv-x="940" 
d="M443 -13v441h52v-441h-52zM442 511v87h54v-87h-54zM875 299q0 84 -31 159t-88 130q-53 54 -128.5 86.5t-159.5 32.5t-157.5 -32.5t-130.5 -86.5q-55 -55 -86 -130t-31 -159t31 -159t86 -129q57 -54 130.5 -86.5t157.5 -32.5t159.5 32.5t128.5 86.5q57 54 88 129t31 159z
M913 299q0 -91 -36 -172t-94 -142q-62 -59 -143 -94t-172 -35q-92 0 -172.5 35t-138.5 94q-62 61 -96 142t-34 172t34 172t96 141q58 60 138.5 95.5t172.5 35.5q91 0 172 -35.5t143 -95.5q58 -60 94 -141t36 -172z" />
    <glyph glyph-name="uni24D9" unicode="&#x24d9;" horiz-adv-x="940" 
d="M509 32q0 -53 -19 -80.5t-68 -27.5q-7 0 -14 0.5t-12 1.5v45q3 -1 9 -1h11q24 0 33 13t9 41v478h51v-470zM457 585v86h53v-86h-53zM875 299q0 84 -31 159t-88 130q-53 54 -128.5 86.5t-159.5 32.5t-157.5 -32.5t-130.5 -86.5q-55 -55 -86 -130t-31 -159t31 -159t86 -129
q57 -54 130.5 -86.5t157.5 -32.5t159.5 32.5t128.5 86.5q57 54 88 129t31 159zM913 299q0 -91 -36 -172t-94 -142q-62 -59 -143 -94t-172 -35q-92 0 -172.5 35t-138.5 94q-62 61 -96 142t-34 172t34 172t96 141q58 60 138.5 95.5t172.5 35.5q91 0 172 -35.5t143 -95.5
q58 -60 94 -141t36 -172z" />
    <glyph glyph-name="uni24DA" unicode="&#x24da;" horiz-adv-x="940" 
d="M622 1l-169 241l-86 -79v-162h-53v609h53v-381l229 211h73l-176 -165l189 -274h-60zM875 299q0 84 -31 159t-88 130q-53 54 -128.5 86.5t-159.5 32.5t-157.5 -32.5t-130.5 -86.5q-55 -55 -86 -130t-31 -159t31 -159t86 -129q57 -54 130.5 -86.5t157.5 -32.5t159.5 32.5
t128.5 86.5q57 54 88 129t31 159zM913 299q0 -91 -36 -172t-94 -142q-62 -59 -143 -94t-172 -35q-92 0 -172.5 35t-138.5 94q-62 61 -96 142t-34 172t34 172t96 141q58 60 138.5 95.5t172.5 35.5q91 0 172 -35.5t143 -95.5q58 -60 94 -141t36 -172z" />
    <glyph glyph-name="uni24DB" unicode="&#x24db;" horiz-adv-x="940" 
d="M442 -6v610h51v-610h-51zM875 299q0 84 -31 159t-88 130q-53 54 -128.5 86.5t-159.5 32.5t-157.5 -32.5t-130.5 -86.5q-55 -55 -86 -130t-31 -159t31 -159t86 -129q57 -54 130.5 -86.5t157.5 -32.5t159.5 32.5t128.5 86.5q57 54 88 129t31 159zM913 299q0 -91 -36 -172
t-94 -142q-62 -59 -143 -94t-172 -35q-92 0 -172.5 35t-138.5 94q-62 61 -96 142t-34 172t34 172t96 141q58 60 138.5 95.5t172.5 35.5q91 0 172 -35.5t143 -95.5q58 -60 94 -141t36 -172z" />
    <glyph glyph-name="uni24DC" unicode="&#x24dc;" horiz-adv-x="940" 
d="M718 79v296q0 53 -24 81.5t-76 28.5q-31 0 -53 -11t-34 -34q-17 -20 -24 -50t-7 -61v-250h-50v294q0 21 -5 42t-18 38q-10 14 -28 23t-41 9q-66 0 -96 -44.5t-30 -112.5v-249h-54v440h54v-76q14 39 49 64.5t86 25.5q48 0 83 -23t44 -65q14 38 49 63t85 25q71 0 107.5 -37
t36.5 -118v-299h-54zM875 299q0 84 -31 159t-88 130q-53 54 -128.5 86.5t-159.5 32.5t-157.5 -32.5t-130.5 -86.5q-55 -55 -86 -130t-31 -159t31 -159t86 -129q57 -54 130.5 -86.5t157.5 -32.5t159.5 32.5t128.5 86.5q57 54 88 129t31 159zM913 299q0 -91 -36 -172t-94 -142
q-62 -59 -143 -94t-172 -35q-92 0 -172.5 35t-138.5 94q-62 61 -96 142t-34 172t34 172t96 141q58 60 138.5 95.5t172.5 35.5q91 0 172 -35.5t143 -95.5q58 -60 94 -141t36 -172z" />
    <glyph glyph-name="uni24DD" unicode="&#x24dd;" horiz-adv-x="940" 
d="M590 86v274q0 62 -26 98t-83 36q-30 0 -54.5 -11.5t-43.5 -30.5q-16 -22 -27 -49t-11 -61v-256h-52v438h52v-73q6 18 20 35t35 28q17 10 39 18t47 8q43 0 72.5 -12.5t50.5 -33.5q16 -24 24.5 -54.5t8.5 -69.5v-284h-52zM875 299q0 84 -31 159t-88 130q-53 54 -128.5 86.5
t-159.5 32.5t-157.5 -32.5t-130.5 -86.5q-55 -55 -86 -130t-31 -159t31 -159t86 -129q57 -54 130.5 -86.5t157.5 -32.5t159.5 32.5t128.5 86.5q57 54 88 129t31 159zM913 299q0 -91 -36 -172t-94 -142q-62 -59 -143 -94t-172 -35q-92 0 -172.5 35t-138.5 94q-62 61 -96 142
t-34 172t34 172t96 141q58 60 138.5 95.5t172.5 35.5q91 0 172 -35.5t143 -95.5q58 -60 94 -141t36 -172z" />
    <glyph glyph-name="uni24DE" unicode="&#x24de;" horiz-adv-x="940" 
d="M618 301q0 42 -12 77t-29 59q-22 25 -49.5 39t-60.5 14q-34 0 -62 -14t-45 -39q-22 -24 -32 -59t-10 -77t10 -76.5t32 -57.5q17 -26 45 -39.5t62 -13.5q33 0 60.5 13.5t49.5 39.5q17 23 29 57.5t12 76.5zM668 301q0 -50 -14 -93t-38 -75q-29 -31 -66 -49t-83 -18
q-47 0 -84.5 18t-61.5 49q-29 32 -43 75t-14 93q0 51 14 94t43 74q24 32 61.5 49.5t84.5 17.5q46 0 83 -17.5t66 -49.5q24 -31 38 -74t14 -94zM875 299q0 84 -31 159t-88 130q-53 54 -128.5 86.5t-159.5 32.5t-157.5 -32.5t-130.5 -86.5q-55 -55 -86 -130t-31 -159t31 -159
t86 -129q57 -54 130.5 -86.5t157.5 -32.5t159.5 32.5t128.5 86.5q57 54 88 129t31 159zM913 299q0 -91 -36 -172t-94 -142q-62 -59 -143 -94t-172 -35q-92 0 -172.5 35t-138.5 94q-62 61 -96 142t-34 172t34 172t96 141q58 60 138.5 95.5t172.5 35.5q91 0 172 -35.5
t143 -95.5q58 -60 94 -141t36 -172z" />
    <glyph glyph-name="uni24DF" unicode="&#x24df;" horiz-adv-x="940" 
d="M631 345q0 39 -9 73.5t-29 59.5q-17 26 -43 41t-58 15q-36 0 -63.5 -15t-48.5 -40q-18 -25 -29 -60t-11 -74q0 -36 9.5 -69t25.5 -60q18 -27 47.5 -42.5t69.5 -15.5q32 0 58 14.5t43 40.5q20 26 29 60t9 72zM683 345q0 -110 -51.5 -170.5t-139.5 -60.5q-52 0 -93.5 27
t-58.5 69v-220h-50v575h50v-83q16 41 54 69.5t98 28.5q88 0 139.5 -61.5t51.5 -173.5zM875 299q0 84 -31 159t-88 130q-53 54 -128.5 86.5t-159.5 32.5t-157.5 -32.5t-130.5 -86.5q-55 -55 -86 -130t-31 -159t31 -159t86 -129q57 -54 130.5 -86.5t157.5 -32.5t159.5 32.5
t128.5 86.5q57 54 88 129t31 159zM913 299q0 -91 -36 -172t-94 -142q-62 -59 -143 -94t-172 -35q-92 0 -172.5 35t-138.5 94q-62 61 -96 142t-34 172t34 172t96 141q58 60 138.5 95.5t172.5 35.5q91 0 172 -35.5t143 -95.5q58 -60 94 -141t36 -172z" />
    <glyph glyph-name="uni24E0" unicode="&#x24e0;" horiz-adv-x="940" 
d="M587 347q0 39 -9 74t-30 60q-18 25 -47 40t-63 15q-32 0 -57.5 -15.5t-45.5 -40.5q-16 -25 -27 -59.5t-11 -73.5q0 -38 11 -72t27 -60q20 -26 45.5 -40.5t57.5 -14.5q38 0 68 15t46 43q20 27 27.5 60t7.5 69zM587 -8v220q-12 -42 -53.5 -69t-95.5 -27q-90 0 -140.5 61.5
t-50.5 169.5q0 112 50.5 173.5t140.5 61.5q58 0 97.5 -29t51.5 -70v83h53v-574h-53zM875 299q0 84 -31 159t-88 130q-53 54 -128.5 86.5t-159.5 32.5t-157.5 -32.5t-130.5 -86.5q-55 -55 -86 -130t-31 -159t31 -159t86 -129q57 -54 130.5 -86.5t157.5 -32.5t159.5 32.5
t128.5 86.5q57 54 88 129t31 159zM913 299q0 -91 -36 -172t-94 -142q-62 -59 -143 -94t-172 -35q-92 0 -172.5 35t-138.5 94q-62 61 -96 142t-34 172t34 172t96 141q58 60 138.5 95.5t172.5 35.5q91 0 172 -35.5t143 -95.5q58 -60 94 -141t36 -172z" />
    <glyph glyph-name="uni24E1" unicode="&#x24e1;" horiz-adv-x="940" 
d="M583 456q-33 1 -60 -10.5t-49 -31.5q-19 -22 -32 -51t-13 -65v-235h-52v441h52v-104q15 51 55 80.5t99 27.5v-52zM875 299q0 84 -31 159t-88 130q-53 54 -128.5 86.5t-159.5 32.5t-157.5 -32.5t-130.5 -86.5q-55 -55 -86 -130t-31 -159t31 -159t86 -129
q57 -54 130.5 -86.5t157.5 -32.5t159.5 32.5t128.5 86.5q57 54 88 129t31 159zM913 299q0 -91 -36 -172t-94 -142q-62 -59 -143 -94t-172 -35q-92 0 -172.5 35t-138.5 94q-62 61 -96 142t-34 172t34 172t96 141q58 60 138.5 95.5t172.5 35.5q91 0 172 -35.5t143 -95.5
q58 -60 94 -141t36 -172z" />
    <glyph glyph-name="uni24E2" unicode="&#x24e2;" horiz-adv-x="940" 
d="M642 208q0 -36 -12 -61t-36 -42q-21 -16 -53.5 -23t-69.5 -7q-70 0 -120 36.5t-56 117.5h52q4 -54 38.5 -81.5t88.5 -27.5t85 21t31 63q0 36 -24.5 52t-67.5 28l-69 17q-21 6 -42.5 15.5t-39.5 22.5q-15 13 -26 32.5t-11 47.5q0 56 39 89.5t117 33.5q34 0 62.5 -10
t52.5 -28q19 -19 32.5 -45.5t14.5 -60.5h-51q-2 49 -32 73.5t-81 24.5q-47 0 -73 -20.5t-26 -54.5q0 -19 6 -30.5t18 -18.5q14 -10 29 -15.5t35 -10.5l70 -18q23 -8 45.5 -16.5t40.5 -20.5q16 -17 24.5 -35.5t8.5 -47.5zM875 299q0 84 -31 159t-88 130q-53 54 -128.5 86.5
t-159.5 32.5t-157.5 -32.5t-130.5 -86.5q-55 -55 -86 -130t-31 -159t31 -159t86 -129q57 -54 130.5 -86.5t157.5 -32.5t159.5 32.5t128.5 86.5q57 54 88 129t31 159zM913 299q0 -91 -36 -172t-94 -142q-62 -59 -143 -94t-172 -35q-92 0 -172.5 35t-138.5 94q-62 61 -96 142
t-34 172t34 172t96 141q58 60 138.5 95.5t172.5 35.5q91 0 172 -35.5t143 -95.5q58 -60 94 -141t36 -172z" />
    <glyph glyph-name="uni24E3" unicode="&#x24e3;" horiz-adv-x="940" 
d="M554 6q-11 -1 -21.5 -1.5t-24.5 -0.5q-24 0 -42 4.5t-31 14.5q-11 13 -14.5 31.5t-3.5 45.5v308h-78v44h78v133h50v-133h87v-44h-87v-307q0 -27 10.5 -39.5t32.5 -12.5h24t20 2v-45zM875 299q0 84 -31 159t-88 130q-53 54 -128.5 86.5t-159.5 32.5t-157.5 -32.5
t-130.5 -86.5q-55 -55 -86 -130t-31 -159t31 -159t86 -129q57 -54 130.5 -86.5t157.5 -32.5t159.5 32.5t128.5 86.5q57 54 88 129t31 159zM913 299q0 -91 -36 -172t-94 -142q-62 -59 -143 -94t-172 -35q-92 0 -172.5 35t-138.5 94q-62 61 -96 142t-34 172t34 172t96 141
q58 60 138.5 95.5t172.5 35.5q91 0 172 -35.5t143 -95.5q58 -60 94 -141t36 -172z" />
    <glyph glyph-name="uni24E4" unicode="&#x24e4;" horiz-adv-x="940" 
d="M584 72v76q-9 -40 -46.5 -64.5t-93.5 -24.5q-79 0 -116 42.5t-37 123.5v287h50v-287q0 -62 28 -92t88 -30q31 0 55 13t39 34q18 25 25.5 54t7.5 66v242h53v-440h-53zM875 299q0 84 -31 159t-88 130q-53 54 -128.5 86.5t-159.5 32.5t-157.5 -32.5t-130.5 -86.5
q-55 -55 -86 -130t-31 -159t31 -159t86 -129q57 -54 130.5 -86.5t157.5 -32.5t159.5 32.5t128.5 86.5q57 54 88 129t31 159zM913 299q0 -91 -36 -172t-94 -142q-62 -59 -143 -94t-172 -35q-92 0 -172.5 35t-138.5 94q-62 61 -96 142t-34 172t34 172t96 141q58 60 138.5 95.5
t172.5 35.5q91 0 172 -35.5t143 -95.5q58 -60 94 -141t36 -172z" />
    <glyph glyph-name="uni24E5" unicode="&#x24e5;" horiz-adv-x="940" 
d="M498 49h-59l-159 442h54l132 -386l132 386h59zM875 299q0 84 -31 159t-88 130q-53 54 -128.5 86.5t-159.5 32.5t-157.5 -32.5t-130.5 -86.5q-55 -55 -86 -130t-31 -159t31 -159t86 -129q57 -54 130.5 -86.5t157.5 -32.5t159.5 32.5t128.5 86.5q57 54 88 129t31 159z
M913 299q0 -91 -36 -172t-94 -142q-62 -59 -143 -94t-172 -35q-92 0 -172.5 35t-138.5 94q-62 61 -96 142t-34 172t34 172t96 141q58 60 138.5 95.5t172.5 35.5q91 0 172 -35.5t143 -95.5q58 -60 94 -141t36 -172z" />
    <glyph glyph-name="uni24E6" unicode="&#x24e6;" horiz-adv-x="940" 
d="M638 61h-58l-107 371l-103 -371h-61l-135 441h57l108 -377l106 377h58l107 -377l108 377h58zM875 299q0 84 -31 159t-88 130q-53 54 -128.5 86.5t-159.5 32.5t-157.5 -32.5t-130.5 -86.5q-55 -55 -86 -130t-31 -159t31 -159t86 -129q57 -54 130.5 -86.5t157.5 -32.5
t159.5 32.5t128.5 86.5q57 54 88 129t31 159zM913 299q0 -91 -36 -172t-94 -142q-62 -59 -143 -94t-172 -35q-92 0 -172.5 35t-138.5 94q-62 61 -96 142t-34 172t34 172t96 141q58 60 138.5 95.5t172.5 35.5q91 0 172 -35.5t143 -95.5q58 -60 94 -141t36 -172z" />
    <glyph glyph-name="uni24E7" unicode="&#x24e7;" horiz-adv-x="940" 
d="M605 77l-137 189l-135 -189h-59l166 230l-153 209h61l119 -169l119 169h64l-151 -209l166 -230h-60zM875 299q0 84 -31 159t-88 130q-53 54 -128.5 86.5t-159.5 32.5t-157.5 -32.5t-130.5 -86.5q-55 -55 -86 -130t-31 -159t31 -159t86 -129q57 -54 130.5 -86.5
t157.5 -32.5t159.5 32.5t128.5 86.5q57 54 88 129t31 159zM913 299q0 -91 -36 -172t-94 -142q-62 -59 -143 -94t-172 -35q-92 0 -172.5 35t-138.5 94q-62 61 -96 142t-34 172t34 172t96 141q58 60 138.5 95.5t172.5 35.5q91 0 172 -35.5t143 -95.5q58 -60 94 -141t36 -172z
" />
    <glyph glyph-name="uni24E8" unicode="&#x24e8;" horiz-adv-x="940" 
d="M480 54q-16 -37 -38.5 -57.5t-64.5 -20.5q-28 0 -40 4v44q21 -2 38 -2q23 0 35 10.5t28 46.5l17 43l-171 431h53l143 -370l128 370h53zM875 299q0 84 -31 159t-88 130q-53 54 -128.5 86.5t-159.5 32.5t-157.5 -32.5t-130.5 -86.5q-55 -55 -86 -130t-31 -159t31 -159
t86 -129q57 -54 130.5 -86.5t157.5 -32.5t159.5 32.5t128.5 86.5q57 54 88 129t31 159zM913 299q0 -91 -36 -172t-94 -142q-62 -59 -143 -94t-172 -35q-92 0 -172.5 35t-138.5 94q-62 61 -96 142t-34 172t34 172t96 141q58 60 138.5 95.5t172.5 35.5q91 0 172 -35.5
t143 -95.5q58 -60 94 -141t36 -172z" />
    <glyph glyph-name="uni24E9" unicode="&#x24e9;" horiz-adv-x="940" 
d="M296 81v43l274 352h-257v44h321v-41l-275 -353h284v-45h-347zM875 299q0 84 -31 159t-88 130q-53 54 -128.5 86.5t-159.5 32.5t-157.5 -32.5t-130.5 -86.5q-55 -55 -86 -130t-31 -159t31 -159t86 -129q57 -54 130.5 -86.5t157.5 -32.5t159.5 32.5t128.5 86.5
q57 54 88 129t31 159zM913 299q0 -91 -36 -172t-94 -142q-62 -59 -143 -94t-172 -35q-92 0 -172.5 35t-138.5 94q-62 61 -96 142t-34 172t34 172t96 141q58 60 138.5 95.5t172.5 35.5q91 0 172 -35.5t143 -95.5q58 -60 94 -141t36 -172z" />
    <glyph glyph-name="SF100000" unicode="&#x2500;" horiz-adv-x="940" 
d="M0 285v28h940v-28h-940z" />
    <glyph glyph-name="uni2501" unicode="&#x2501;" horiz-adv-x="940" 
d="M0 269v54h940v-54h-940z" />
    <glyph glyph-name="SF110000" unicode="&#x2502;" horiz-adv-x="940" 
d="M455 -200v998h29v-998h-29z" />
    <glyph glyph-name="uni2503" unicode="&#x2503;" horiz-adv-x="940" 
d="M443 -200v998h54v-998h-54z" />
    <glyph glyph-name="SF010000" unicode="&#x250c;" horiz-adv-x="940" 
d="M484 285v-485h-29v513h484v-28h-455z" />
    <glyph glyph-name="uni250D" unicode="&#x250d;" horiz-adv-x="940" 
d="M488 262v-462h-38v535h489v-73h-451z" />
    <glyph glyph-name="uni250E" unicode="&#x250e;" horiz-adv-x="940" 
d="M505 281v-481h-76v515h510v-34h-434z" />
    <glyph glyph-name="uni250F" unicode="&#x250f;" horiz-adv-x="940" 
d="M496 269v-469h-54v523h497v-54h-443z" />
    <glyph glyph-name="SF030000" unicode="&#x2510;" horiz-adv-x="940" 
d="M456 -200v485h-456v28h485v-513h-29z" />
    <glyph glyph-name="uni2511" unicode="&#x2511;" horiz-adv-x="940" 
d="M451 -200v462h-451v73h489v-535h-38z" />
    <glyph glyph-name="uni2512" unicode="&#x2512;" horiz-adv-x="940" 
d="M430 -200v481h-430v34h506v-515h-76z" />
    <glyph glyph-name="uni2513" unicode="&#x2513;" horiz-adv-x="940" 
d="M443 -200v469h-443v54h497v-523h-54z" />
    <glyph glyph-name="SF020000" unicode="&#x2514;" horiz-adv-x="940" 
d="M455 285v513h29v-485h455v-28h-484z" />
    <glyph glyph-name="uni2515" unicode="&#x2515;" horiz-adv-x="940" 
d="M450 262v536h38v-463h451v-73h-489z" />
    <glyph glyph-name="uni2516" unicode="&#x2516;" horiz-adv-x="940" 
d="M429 281v517h76v-483h434v-34h-510z" />
    <glyph glyph-name="uni2517" unicode="&#x2517;" horiz-adv-x="940" 
d="M442 269v529h54v-475h443v-54h-497z" />
    <glyph glyph-name="SF040000" unicode="&#x2518;" horiz-adv-x="940" 
d="M0 285v28h456v485h29v-513h-485z" />
    <glyph glyph-name="uni2519" unicode="&#x2519;" horiz-adv-x="940" 
d="M0 262v73h451v463h38v-536h-489z" />
    <glyph glyph-name="uni251A" unicode="&#x251a;" horiz-adv-x="940" 
d="M0 281v34h430v483h76v-517h-506z" />
    <glyph glyph-name="uni251B" unicode="&#x251b;" horiz-adv-x="940" 
d="M0 269v54h443v475h54v-529h-497z" />
    <glyph glyph-name="SF080000" unicode="&#x251c;" horiz-adv-x="940" 
d="M484 285v-485h-29v998h29v-485h455v-28h-455z" />
    <glyph glyph-name="uni251D" unicode="&#x251d;" horiz-adv-x="940" 
d="M488 262v-462h-38v998h38v-463h451v-73h-451z" />
    <glyph glyph-name="uni251E" unicode="&#x251e;" horiz-adv-x="940" 
d="M488 281l1 -481h-38v498h-21v500h76v-483h434v-34h-452z" />
    <glyph glyph-name="uni251F" unicode="&#x251f;" horiz-adv-x="940" 
d="M505 281v-481h-76v498h21v500h38v-483h451v-34h-434z" />
    <glyph glyph-name="uni2520" unicode="&#x2520;" horiz-adv-x="940" 
d="M505 281v-481h-76v998h76v-483h434v-34h-434z" />
    <glyph glyph-name="uni2521" unicode="&#x2521;" horiz-adv-x="940" 
d="M489 262v-462h-38v498h-21v500h76v-463h434v-73h-451z" />
    <glyph glyph-name="uni2522" unicode="&#x2522;" horiz-adv-x="940" 
d="M505 262v-462h-76v498h21v500h38v-463h451v-73h-434z" />
    <glyph glyph-name="uni2523" unicode="&#x2523;" horiz-adv-x="940" 
d="M497 269v-469h-54v998h54v-475h443v-54h-443z" />
    <glyph glyph-name="SF090000" unicode="&#x2524;" horiz-adv-x="940" 
d="M456 -200v485h-456v28h456v485h29v-998h-29z" />
    <glyph glyph-name="uni2525" unicode="&#x2525;" horiz-adv-x="940" 
d="M451 -200v462h-451v73h451v463h38v-998h-38z" />
    <glyph glyph-name="uni2526" unicode="&#x2526;" horiz-adv-x="940" 
d="M489 298v-498h-38v481h-451v34h430v483h76v-500h-17z" />
    <glyph glyph-name="uni2527" unicode="&#x2527;" horiz-adv-x="940" 
d="M430 -200v481h-430v34h451v483h38v-500h17v-498h-76z" />
    <glyph glyph-name="uni2528" unicode="&#x2528;" horiz-adv-x="940" 
d="M430 -200v481h-430v34h430v483h76v-998h-76z" />
    <glyph glyph-name="uni2529" unicode="&#x2529;" horiz-adv-x="940" 
d="M489 298v-498h-38v462h-451v73h430v463h76v-500h-17z" />
    <glyph glyph-name="uni252A" unicode="&#x252a;" horiz-adv-x="940" 
d="M430 -200v462h-430v73h451v463h38v-500h17v-498h-76z" />
    <glyph glyph-name="uni252B" unicode="&#x252b;" horiz-adv-x="940" 
d="M443 -200v469h-443v54h443v475h54v-998h-54z" />
    <glyph glyph-name="SF060000" unicode="&#x252c;" horiz-adv-x="940" 
d="M485 285v-485h-29v485h-456v28h940v-28h-455z" />
    <glyph glyph-name="uni252D" unicode="&#x252d;" horiz-adv-x="940" 
d="M489 281v-481h-38v462h-451v73h468v-20h472v-34h-451z" />
    <glyph glyph-name="uni252E" unicode="&#x252e;" horiz-adv-x="940" 
d="M489 262v-462h-38v481h-451v34h468v20h472v-73h-451z" />
    <glyph glyph-name="uni252F" unicode="&#x252f;" horiz-adv-x="940" 
d="M489 262v-462h-38v462h-451v73h940v-73h-451z" />
    <glyph glyph-name="uni2530" unicode="&#x2530;" horiz-adv-x="940" 
d="M506 281v-481h-76v481h-430v34h940v-34h-434z" />
    <glyph glyph-name="uni2531" unicode="&#x2531;" horiz-adv-x="940" 
d="M506 281v-481h-76v462h-430v73h468v-20h472v-34h-434z" />
    <glyph glyph-name="uni2532" unicode="&#x2532;" horiz-adv-x="940" 
d="M506 262v-462h-76v481h-430v34h468v20h472v-73h-434z" />
    <glyph glyph-name="uni2533" unicode="&#x2533;" horiz-adv-x="940" 
d="M497 269v-469h-54v469h-443v54h940v-54h-443z" />
    <glyph glyph-name="SF070000" unicode="&#x2534;" horiz-adv-x="940" 
d="M0 285v28h456v485h29v-485h455v-28h-940z" />
    <glyph glyph-name="uni2535" unicode="&#x2535;" horiz-adv-x="940" 
d="M468 281v-19h-468v73h451v463h38v-483h451v-34h-472z" />
    <glyph glyph-name="uni2536" unicode="&#x2536;" horiz-adv-x="940" 
d="M468 262v19h-468v34h451v483h38v-463h451v-73h-472z" />
    <glyph glyph-name="uni2537" unicode="&#x2537;" horiz-adv-x="940" 
d="M0 262v73h451v463h38v-463h451v-73h-940z" />
    <glyph glyph-name="uni2538" unicode="&#x2538;" horiz-adv-x="940" 
d="M0 281v34h430v483h76v-483h434v-34h-940z" />
    <glyph glyph-name="uni2539" unicode="&#x2539;" horiz-adv-x="940" 
d="M468 281v-19h-468v73h430v463h76v-483h434v-34h-472z" />
    <glyph glyph-name="uni253A" unicode="&#x253a;" horiz-adv-x="940" 
d="M468 262v19h-468v34h430v483h76v-463h434v-73h-472z" />
    <glyph glyph-name="uni253B" unicode="&#x253b;" horiz-adv-x="940" 
d="M0 269v54h443v475h54v-475h443v-54h-940z" />
    <glyph glyph-name="SF050000" unicode="&#x253c;" horiz-adv-x="940" 
d="M485 284v-484h-29v484h-456v28h456v486h29v-486h455v-28h-455z" />
    <glyph glyph-name="uni253D" unicode="&#x253d;" horiz-adv-x="940" 
d="M489 281v-481h-38v462h-451v76h451v460h38v-483h451v-34h-451z" />
    <glyph glyph-name="uni253E" unicode="&#x253e;" horiz-adv-x="940" 
d="M489 262v-462h-38v481h-451v34h451v483h38v-463h451v-73h-451z" />
    <glyph glyph-name="uni253F" unicode="&#x253f;" horiz-adv-x="940" 
d="M489 262v-462h-38v462h-451v73h451v463h38v-463h451v-73h-451z" />
    <glyph glyph-name="uni2540" unicode="&#x2540;" horiz-adv-x="940" 
d="M489 281v-481h-38v481h-451v34h430v483h76v-483h434v-34h-451z" />
    <glyph glyph-name="uni2541" unicode="&#x2541;" horiz-adv-x="940" 
d="M506 281v-481h-76v481h-430v34h451v483h38v-483h451v-34h-434z" />
    <glyph glyph-name="uni2542" unicode="&#x2542;" horiz-adv-x="940" 
d="M506 281v-481h-76v481h-430v34h430v483h76v-483h434v-34h-434z" />
    <glyph glyph-name="uni2543" unicode="&#x2543;" horiz-adv-x="940" 
d="M489 281v-481h-38v462h-451v73h430v463h76v-483h434v-34h-451z" />
    <glyph glyph-name="uni2544" unicode="&#x2544;" horiz-adv-x="940" 
d="M489 262v-462h-38v481h-451v34h430v483h76v-463h434v-73h-451z" />
    <glyph glyph-name="uni2545" unicode="&#x2545;" horiz-adv-x="940" 
d="M506 281v-481h-76v462h-430v73h451v463h38v-483h451v-34h-434z" />
    <glyph glyph-name="uni2546" unicode="&#x2546;" horiz-adv-x="940" 
d="M506 262v-462h-76v481h-430v34h451v483h38v-463h451v-73h-434z" />
    <glyph glyph-name="uni2547" unicode="&#x2547;" horiz-adv-x="940" 
d="M489 262v-462h-38v462h-451v73h430v463h76v-463h434v-73h-451z" />
    <glyph glyph-name="uni2548" unicode="&#x2548;" horiz-adv-x="940" 
d="M506 262v-462h-76v462h-430v73h451v463h38v-463h451v-73h-434z" />
    <glyph glyph-name="uni2549" unicode="&#x2549;" horiz-adv-x="940" 
d="M506 281v-481h-76v462h-430v73h430v463h76v-483h434v-34h-434z" />
    <glyph glyph-name="uni254A" unicode="&#x254a;" horiz-adv-x="940" 
d="M506 262v-462h-76v481h-430v34h430v483h76v-463h434v-73h-434z" />
    <glyph glyph-name="uni254B" unicode="&#x254b;" horiz-adv-x="940" 
d="M497 269v-469h-54v469h-443v54h443v475h54v-475h443v-54h-443z" />
    <glyph glyph-name="shade" unicode="&#x2592;" horiz-adv-x="940" 
d="M214 19q0 -11 -6.5 -18.5t-17.5 -7.5t-18.5 7.5t-7.5 18.5t7.5 18t18.5 7q24 0 24 -25zM308 19q0 -11 -7.5 -18.5t-17.5 -7.5q-11 0 -18.5 7.5t-7.5 18.5t7.5 18t18.5 7q10 0 17.5 -7t7.5 -18zM214 113q0 -11 -6.5 -18.5t-17.5 -7.5t-18.5 7.5t-7.5 18.5q0 10 7.5 17
t18.5 7t17.5 -7t6.5 -17zM308 113q0 -11 -7.5 -18.5t-17.5 -7.5q-11 0 -18.5 7.5t-7.5 18.5q0 10 7.5 17t18.5 7q10 0 17.5 -7t7.5 -17zM402 19q0 -11 -7.5 -18.5t-18.5 -7.5t-18 7.5t-7 18.5q0 25 25 25q11 0 18.5 -7t7.5 -18zM214 206q0 -11 -6.5 -18.5t-17.5 -7.5
t-18.5 7.5t-7.5 18.5t7.5 18.5t18.5 7.5t17.5 -7.5t6.5 -18.5zM402 113q0 -11 -7.5 -18.5t-18.5 -7.5t-18 7.5t-7 18.5q0 10 7 17t18 7t18.5 -7t7.5 -17zM308 206q0 -11 -7.5 -18.5t-17.5 -7.5q-11 0 -18.5 7.5t-7.5 18.5t7.5 18.5t18.5 7.5q10 0 17.5 -7.5t7.5 -18.5z
M495 19q0 -11 -7 -18.5t-18 -7.5q-10 0 -17.5 7.5t-7.5 18.5t7.5 18t17.5 7q25 0 25 -25zM214 300q0 -10 -6.5 -17.5t-17.5 -7.5t-18.5 7.5t-7.5 17.5q0 11 7.5 18t18.5 7q24 0 24 -25zM495 113q0 -11 -7 -18.5t-18 -7.5q-10 0 -17.5 7.5t-7.5 18.5q0 10 7.5 17t17.5 7
q11 0 18 -7t7 -17zM402 206q0 -11 -7.5 -18.5t-18.5 -7.5t-18 7.5t-7 18.5t7 18.5t18 7.5t18.5 -7.5t7.5 -18.5zM308 300q0 -10 -7.5 -17.5t-17.5 -7.5q-11 0 -18.5 7.5t-7.5 17.5q0 11 7.5 18t18.5 7q10 0 17.5 -7t7.5 -18zM590 19q0 -11 -7.5 -18.5t-18.5 -7.5t-18.5 7.5
t-7.5 18.5t7.5 18t18.5 7t18.5 -7t7.5 -18zM214 394q0 -11 -6.5 -18.5t-17.5 -7.5t-18.5 7.5t-7.5 18.5t7.5 18.5t18.5 7.5t17.5 -7.5t6.5 -18.5zM590 113q0 -11 -7.5 -18.5t-18.5 -7.5t-18.5 7.5t-7.5 18.5q0 10 7.5 17t18.5 7t18.5 -7t7.5 -17zM495 206q0 -11 -7 -18.5
t-18 -7.5q-10 0 -17.5 7.5t-7.5 18.5t7.5 18.5t17.5 7.5q11 0 18 -7.5t7 -18.5zM402 300q0 -10 -7.5 -17.5t-18.5 -7.5t-18 7.5t-7 17.5q0 25 25 25q11 0 18.5 -7t7.5 -18zM308 394q0 -11 -7.5 -18.5t-17.5 -7.5q-11 0 -18.5 7.5t-7.5 18.5t7.5 18.5t18.5 7.5
q10 0 17.5 -7.5t7.5 -18.5zM683 19q0 -11 -7 -18.5t-18 -7.5t-18 7.5t-7 18.5q0 25 25 25t25 -25zM214 487q0 -10 -6.5 -17t-17.5 -7t-18.5 7t-7.5 17q0 11 7.5 18.5t18.5 7.5t17.5 -7.5t6.5 -18.5zM777 19q0 -11 -7.5 -18.5t-18.5 -7.5t-18 7.5t-7 18.5q0 25 25 25
q11 0 18.5 -7t7.5 -18zM683 113q0 -11 -7 -18.5t-18 -7.5t-18 7.5t-7 18.5q0 10 7 17t18 7t18 -7t7 -17zM590 206q0 -11 -7.5 -18.5t-18.5 -7.5t-18.5 7.5t-7.5 18.5t7.5 18.5t18.5 7.5t18.5 -7.5t7.5 -18.5zM495 300q0 -10 -7 -17.5t-18 -7.5q-10 0 -17.5 7.5t-7.5 17.5
q0 11 7.5 18t17.5 7q25 0 25 -25zM402 394q0 -11 -7.5 -18.5t-18.5 -7.5t-18 7.5t-7 18.5t7 18.5t18 7.5t18.5 -7.5t7.5 -18.5zM308 487q0 -10 -7.5 -17t-17.5 -7q-11 0 -18.5 7t-7.5 17q0 11 7.5 18.5t18.5 7.5q10 0 17.5 -7.5t7.5 -18.5zM214 581q0 -25 -24 -25
q-11 0 -18.5 7t-7.5 18t7.5 18.5t18.5 7.5t17.5 -7.5t6.5 -18.5zM777 113q0 -11 -7.5 -18.5t-18.5 -7.5t-18 7.5t-7 18.5q0 10 7 17t18 7t18.5 -7t7.5 -17zM308 581q0 -11 -7.5 -18t-17.5 -7q-11 0 -18.5 7t-7.5 18t7.5 18.5t18.5 7.5q10 0 17.5 -7.5t7.5 -18.5zM683 206
q0 -11 -7 -18.5t-18 -7.5t-18 7.5t-7 18.5t7 18.5t18 7.5t18 -7.5t7 -18.5zM590 300q0 -10 -7.5 -17.5t-18.5 -7.5t-18.5 7.5t-7.5 17.5q0 11 7.5 18t18.5 7t18.5 -7t7.5 -18zM495 394q0 -11 -7 -18.5t-18 -7.5q-10 0 -17.5 7.5t-7.5 18.5t7.5 18.5t17.5 7.5q11 0 18 -7.5
t7 -18.5zM402 487q0 -10 -7.5 -17t-18.5 -7t-18 7t-7 17q0 11 7 18.5t18 7.5t18.5 -7.5t7.5 -18.5zM777 206q0 -11 -7.5 -18.5t-18.5 -7.5t-18 7.5t-7 18.5t7 18.5t18 7.5t18.5 -7.5t7.5 -18.5zM402 581q0 -11 -7.5 -18t-18.5 -7q-25 0 -25 25q0 11 7 18.5t18 7.5t18.5 -7.5
t7.5 -18.5zM683 300q0 -10 -7 -17.5t-18 -7.5t-18 7.5t-7 17.5q0 25 25 25t25 -25zM590 394q0 -11 -7.5 -18.5t-18.5 -7.5t-18.5 7.5t-7.5 18.5t7.5 18.5t18.5 7.5t18.5 -7.5t7.5 -18.5zM495 487q0 -10 -7 -17t-18 -7q-10 0 -17.5 7t-7.5 17q0 11 7.5 18.5t17.5 7.5
q11 0 18 -7.5t7 -18.5zM777 300q0 -10 -7.5 -17.5t-18.5 -7.5t-18 7.5t-7 17.5q0 25 25 25q11 0 18.5 -7t7.5 -18zM495 581q0 -25 -25 -25q-10 0 -17.5 7t-7.5 18t7.5 18.5t17.5 7.5q11 0 18 -7.5t7 -18.5zM683 394q0 -11 -7 -18.5t-18 -7.5t-18 7.5t-7 18.5t7 18.5t18 7.5
t18 -7.5t7 -18.5zM590 487q0 -10 -7.5 -17t-18.5 -7t-18.5 7t-7.5 17q0 11 7.5 18.5t18.5 7.5t18.5 -7.5t7.5 -18.5zM777 394q0 -11 -7.5 -18.5t-18.5 -7.5t-18 7.5t-7 18.5t7 18.5t18 7.5t18.5 -7.5t7.5 -18.5zM590 581q0 -11 -7.5 -18t-18.5 -7t-18.5 7t-7.5 18t7.5 18.5
t18.5 7.5t18.5 -7.5t7.5 -18.5zM683 487q0 -10 -7 -17t-18 -7t-18 7t-7 17q0 11 7 18.5t18 7.5t18 -7.5t7 -18.5zM777 487q0 -10 -7.5 -17t-18.5 -7t-18 7t-7 17q0 11 7 18.5t18 7.5t18.5 -7.5t7.5 -18.5zM683 581q0 -25 -25 -25t-25 25q0 11 7 18.5t18 7.5t18 -7.5t7 -18.5
zM777 581q0 -11 -7.5 -18t-18.5 -7q-25 0 -25 25q0 11 7 18.5t18 7.5t18.5 -7.5t7.5 -18.5zM809 636h-678v-677h678v677zM98 -74v743h744v-743h-744z" />
    <glyph glyph-name="filledbox" unicode="&#x25a0;" horiz-adv-x="940" 
d="M130 -38v680h680v-680h-680z" />
    <glyph glyph-name="H22073" unicode="&#x25a1;" horiz-adv-x="940" 
d="M772 603h-604v-604h604v604zM130 -39v680h680v-680h-680z" />
    <glyph glyph-name="uni25A3" unicode="&#x25a3;" horiz-adv-x="940" 
d="M240 67v460h460v-460h-460zM804 631h-668v-667h668v667zM98 -74v743h744v-743h-744z" />
    <glyph glyph-name="uni25A4" unicode="&#x25a4;" horiz-adv-x="940" 
d="M809 26h-678v-67h678v67zM809 126h-678v-68h678v68zM809 230h-678v-72h678v72zM809 333h-678v-71h678v71zM809 431h-678v-66h678v66zM809 536h-678v-73h678v73zM809 636h-678v-68h678v68zM98 -74v743h744v-743h-744z" />
    <glyph glyph-name="uni25A5" unicode="&#x25a5;" horiz-adv-x="940" 
d="M199 636h-68v-677h68v677zM304 636h-73v-677h73v677zM402 636h-66v-677h66v677zM505 636h-71v-677h71v677zM609 636h-72v-677h72v677zM709 636h-68v-677h68v677zM809 636h-68v-677h68v677zM98 -74v743h744v-743h-744z" />
    <glyph glyph-name="uni25A6" unicode="&#x25a6;" horiz-adv-x="940" 
d="M202 30h-71v-71h71v71zM202 131h-71v-71h71v71zM303 30h-71v-71h71v71zM303 131h-71v-71h71v71zM202 232h-71v-71h71v71zM404 30h-71v-71h71v71zM404 131h-71v-71h71v71zM303 232h-71v-71h71v71zM202 333h-71v-71h71v71zM505 30h-71v-71h71v71zM505 131h-71v-71h71v71z
M404 232h-71v-71h71v71zM303 333h-71v-71h71v71zM202 434h-71v-71h71v71zM606 30h-71v-71h71v71zM606 131h-71v-71h71v71zM505 232h-71v-71h71v71zM404 333h-71v-71h71v71zM303 434h-71v-71h71v71zM202 535h-71v-71h71v71zM707 30h-71v-71h71v71zM707 131h-71v-71h71v71z
M606 232h-71v-71h71v71zM505 333h-71v-71h71v71zM404 434h-71v-71h71v71zM303 535h-71v-71h71v71zM202 636h-71v-71h71v71zM809 30h-71v-71h71v71zM707 232h-71v-71h71v71zM606 333h-71v-71h71v71zM505 434h-71v-71h71v71zM404 535h-71v-71h71v71zM303 636h-71v-71h71v71z
M809 131h-71v-71h71v71zM707 333h-71v-71h71v71zM606 434h-71v-71h71v71zM505 535h-71v-71h71v71zM404 636h-71v-71h71v71zM809 232h-71v-71h71v71zM707 434h-71v-71h71v71zM606 535h-71v-71h71v71zM505 636h-71v-71h71v71zM809 333h-71v-71h71v71zM707 535h-71v-71h71v71z
M606 636h-71v-71h71v71zM809 434h-71v-71h71v71zM707 636h-71v-71h71v71zM809 535h-71v-71h71v71zM809 636h-71v-71h71v71zM98 -74v743h744v-743h-744z" />
    <glyph glyph-name="uni25A7" unicode="&#x25a7;" horiz-adv-x="940" 
d="M131 115v-156h156zM131 281v-118l204 -204h118zM131 447v-118l370 -370h118zM131 613v-118l536 -536h118zM809 101l-536 535h-117l653 -653v118zM809 267l-370 369h-118l488 -487v118zM809 434l-203 202h-119l322 -321v119zM809 636h-155l155 -154v154zM98 -74v743h744
v-743h-744z" />
    <glyph glyph-name="uni25A8" unicode="&#x25a8;" horiz-adv-x="940" 
d="M667 636l-536 -535v-118l653 653h-117zM501 636l-370 -369v-118l488 487h-118zM334 636l-203 -202v-119l322 321h-119zM131 636v-154l155 154h-155zM809 115l-156 -156h156v156zM809 281l-322 -322h118l204 204v118zM809 447l-488 -488h118l370 370v118zM809 613
l-654 -654h118l536 536v118zM98 -74v743h744v-743h-744z" />
    <glyph glyph-name="uni25A9" unicode="&#x25a9;" horiz-adv-x="940" 
d="M219 27l-67 -68h135zM131 115v-128l64 64zM302 110l-59 -59l68 -68l58 60zM214 198l-59 -59l64 -64l59 59zM394 18l-60 -59h119zM131 281v-117l59 58zM477 101l-59 -59l59 -59l59 59zM386 193l-60 -59l67 -68l60 59zM297 281l-59 -59l64 -64l59 59zM214 364l-59 -59
l59 -59l59 59zM131 447v-118l59 59zM560 18l-59 -59h118zM643 101l-59 -59l59 -59l59 59zM560 184l-59 -59l59 -59l59 59zM380 364l-59 -59l65 -64l58 58zM297 447l-59 -59l59 -59l59 59zM214 530l-59 -59l59 -59l59 59zM469 276l-59 -60l66 -66l60 58zM131 613v-118l59 59z
M726 18l-59 -59h118zM809 101l-59 -59l59 -59v118zM156 636l58 -58l59 58h-117zM379 529l-58 -58l60 -60l58 59zM726 184l-59 -59l59 -59l59 59zM642 267l-58 -58l59 -60l59 59zM463 446l-58 -59l64 -64l58 59zM296 613l-58 -59l59 -59l59 58zM551 358l-58 -59l66 -66l60 58
zM809 267l-59 -59l59 -59v118zM321 636l59 -59l59 59h-118zM725 350l-59 -59l60 -59l59 59zM635 441l-59 -59l66 -67l59 60zM546 528l-59 -58l65 -64l59 59zM463 612l-59 -59l59 -59l60 59zM809 434l-60 -60l60 -60v120zM487 636l60 -60l60 60h-120zM630 612l-60 -59l65 -65
l59 60zM719 525l-61 -60l67 -67l60 60zM654 636l64 -64l65 64h-129zM809 615l-67 -67l67 -66v133zM98 -74v743h744v-743h-744z" />
    <glyph glyph-name="triagup" unicode="&#x25b2;" horiz-adv-x="940" 
d="M81 0l388 618l390 -618h-778z" />
    <glyph glyph-name="uni25B3" unicode="&#x25b3;" horiz-adv-x="940" 
d="M469 554l-327 -523h656zM81 0l388 618l390 -618h-778z" />
    <glyph glyph-name="uni25B6" unicode="&#x25b6;" horiz-adv-x="940" 
d="M161 -88v778l618 -390z" />
    <glyph glyph-name="uni25B7" unicode="&#x25b7;" horiz-adv-x="940" 
d="M193 629v-656l523 327zM161 -88v778l618 -390z" />
    <glyph glyph-name="triagdn" unicode="&#x25bc;" horiz-adv-x="940" 
d="M469 -22l-388 618h778z" />
    <glyph glyph-name="uni25BD" unicode="&#x25bd;" horiz-adv-x="940" 
d="M142 565l327 -523l329 523h-656zM469 -22l-388 618h778z" />
    <glyph glyph-name="uni25C0" unicode="&#x25c0;" horiz-adv-x="940" 
d="M161 300l618 390v-778z" />
    <glyph glyph-name="uni25C1" unicode="&#x25c1;" horiz-adv-x="940" 
d="M747 629l-523 -329l523 -327v656zM161 300l618 390v-778z" />
    <glyph glyph-name="uni25C6" unicode="&#x25c6;" horiz-adv-x="940" 
d="M470 -143l-442 442l442 442l442 -442z" />
    <glyph glyph-name="uni25C7" unicode="&#x25c7;" horiz-adv-x="940" 
d="M470 683l-385 -384l385 -385l384 385zM470 -143l-442 442l442 442l442 -442z" />
    <glyph glyph-name="uni25C8" unicode="&#x25c8;" horiz-adv-x="940" 
d="M470 29l-269 268l269 268l268 -268zM470 681l-385 -384l384 -384l385 385zM469 -136l-433 433l434 435l434 -434z" />
    <glyph glyph-name="circle" unicode="&#x25cb;" horiz-adv-x="940" 
d="M843 300q0 -77 -29.5 -144.5t-80 -118t-118.5 -80t-145 -29.5t-145 29.5t-119 80t-80.5 118t-29.5 144.5q1 78 30.5 145.5t80 118t118 80t145.5 30.5q77 -1 145 -30.5t118.5 -80t80 -118t29.5 -145.5zM807 300q0 70 -26.5 131.5t-72.5 107.5t-107 72t-131 26
q-71 0 -132.5 -26t-107 -72t-71.5 -107.5t-26 -131.5q0 -69 26 -131t71.5 -108t107 -73t132.5 -27q70 0 131 27t107 73t72.5 108t26.5 131z" />
    <glyph glyph-name="uni25CE" unicode="&#x25ce;" horiz-adv-x="940" 
d="M690 300q0 46 -17 86t-47 70t-70 47t-86 17q-45 0 -85 -17t-70 -47t-47.5 -70t-17.5 -86t17.5 -86t47.5 -70t70 -47.5t85 -17.5q46 0 86 17.5t70 47.5t47 70t17 86zM724 300q0 -52 -20 -98t-54.5 -80.5t-81 -54.5t-98.5 -20t-98 20t-80.5 54.5t-54.5 80.5t-20 98t20 98.5
t54.5 81t80.5 54.5t98 20t98.5 -20t81 -54.5t54.5 -81t20 -98.5zM832 300q0 74 -29 139.5t-78.5 115t-115 78.5t-139.5 29q-75 0 -140.5 -29t-114.5 -78.5t-77 -115t-28 -139.5q0 -75 28 -140.5t77 -114.5t114.5 -77t140.5 -28q74 0 139.5 28t115 77t78.5 114.5t29 140.5z
M864 300q0 -81 -31 -153t-84.5 -125.5t-125.5 -84.5t-153 -31t-153 31t-125.5 84.5t-84.5 125.5t-31 153t31 153t84.5 125.5t125.5 84.5t153 31t153 -31t125.5 -84.5t84.5 -125.5t31 -153z" />
    <glyph glyph-name="H18533" unicode="&#x25cf;" horiz-adv-x="940" 
d="M843 300q0 -77 -29.5 -144.5t-80 -118t-118.5 -80t-145 -29.5t-145 29.5t-119 80t-80.5 118t-29.5 144.5q1 78 30.5 145.5t80 118t118 80t145.5 30.5q77 -1 145 -30.5t118.5 -80t80 -118t29.5 -145.5z" />
    <glyph glyph-name="uni25D0" unicode="&#x25d0;" horiz-adv-x="940" 
d="M821 299q0 72 -28 136t-75.5 111.5t-111.5 75.5t-136 28v-701q72 0 136 27.5t111.5 75.5t75.5 111.5t28 135.5zM860 299q0 -81 -30.5 -152t-83.5 -124t-124 -83.5t-152 -30.5q-80 0 -151 30.5t-124 83.5t-84 124t-31 152t31 152t84 124t124 83.5t151 30.5q81 0 152 -30.5
t124 -83.5t83.5 -124t30.5 -152z" />
    <glyph glyph-name="uni25D1" unicode="&#x25d1;" horiz-adv-x="940" 
d="M470 650q-72 0 -136 -28t-111.5 -75.5t-75.5 -111.5t-28 -136t28 -135.5t75.5 -111.5t111.5 -75.5t136 -27.5v701zM860 299q0 -81 -31 -152t-84 -124t-124 -83.5t-151 -30.5q-81 0 -152 30.5t-124 83.5t-83.5 124t-30.5 152t30.5 152t83.5 124t124 83.5t152 30.5
q80 0 151 -30.5t124 -83.5t84 -124t31 -152z" />
    <glyph glyph-name="uni2605" unicode="&#x2605;" horiz-adv-x="940" 
d="M630 225l103 -298l-263 184l-263 -184l103 298l-249 186h311l98 283l98 -283h311z" />
    <glyph glyph-name="uni2606" unicode="&#x2606;" horiz-adv-x="940" 
d="M541 380l-71 217l-71 -217h-245l194 -146l-80 -223l202 139l202 -139l-80 223l194 146h-245zM630 225l103 -298l-263 184l-263 -184l103 298l-249 186h311l98 283l98 -283h311z" />
    <glyph glyph-name="uni260E" unicode="&#x260e;" horiz-adv-x="940" 
d="M617 208q0 30 -11.5 57t-31.5 47t-47 31.5t-57 11.5t-57 -11.5t-47 -31.5t-31.5 -47t-11.5 -57t11.5 -57t31.5 -46.5t47 -31t57 -11.5t57 11.5t47 31t31.5 46.5t11.5 57zM548 504q-14 -4 -35 -7t-43 -3t-43 3t-35 7v-65h156v65zM893 328q-6 -10 -20 -13t-32.5 -1t-39 7
t-39.5 10q-31 9 -56 22.5t-29 31.5q-2 7 0.5 18t6.5 22t7 21.5t2 17.5q-4 20 -20 27t-35 10q-3 -23 -3 -51.5t14 -75.5q7 -26 16 -44.5t21 -33.5t25.5 -27t29.5 -25q25 -21 39 -44.5t21 -46.5t8.5 -43t1.5 -35q8 -3 12.5 -12t7 -21t2.5 -24.5t-1 -22.5q-1 -9 -10 -12.5
t-24 -3.5h-656q-15 0 -24 3.5t-10 12.5q-1 10 -1 22.5t2.5 24.5t7 21t12.5 12q0 15 1.5 35t8.5 43t21 46.5t39 44.5q16 13 29.5 25t25.5 27t21 33.5t16 44.5q13 47 13.5 75.5t-2.5 51.5q-19 -3 -35 -10t-20 -27q-2 -7 1 -17.5t7 -21.5t7 -22t1 -18q-4 -18 -29 -31.5
t-56 -22.5q-19 -5 -39.5 -10t-39 -7t-32.5 1t-20 13t-7.5 29t1.5 41.5t11.5 45t22.5 40.5q24 31 66.5 54t95.5 38t113 22t120 7t120 -7t113 -22t95.5 -38t66.5 -54q14 -18 22.5 -40.5t11.5 -45t1.5 -41.5t-7.5 -29z" />
    <glyph glyph-name="uni260F" unicode="&#x260f;" horiz-adv-x="940" 
d="M617 208q0 30 -11.5 57t-31.5 47t-47 31.5t-57 11.5t-57 -11.5t-47 -31.5t-31.5 -47t-11.5 -57t11.5 -57t31.5 -46.5t47 -31t57 -11.5t57 11.5t47 31t31.5 46.5t11.5 57zM640 208q0 -35 -13.5 -66t-36.5 -54t-54 -36.5t-66 -13.5t-66 13.5t-54 36.5t-36.5 54t-13.5 66
t13.5 66t36.5 54t54 36.5t66 13.5t66 -13.5t54 -36.5t36.5 -54t13.5 -66zM803 0q3 0 5 8t1 19t-4.5 21.5t-12.5 15.5q0 12 -2 31t-7 39t-13.5 38.5t-22.5 31.5q-23 22 -40 38t-29 30t-21 28.5t-16 32.5q-19 51 -24 95t-2 76h-47v-84h-196v84h-47q3 -32 -2 -76t-24 -95
q-7 -18 -16 -32.5t-21 -28.5t-29 -30t-40 -38q-14 -13 -22.5 -31.5t-13.5 -38.5t-7 -39t-2 -31q-9 -5 -12.5 -15.5t-4.5 -21.5t1 -19t5 -8h666zM867 338q6 1 9.5 18.5t-0.5 42.5t-18 53.5t-42 51.5q-22 18 -64 33t-91.5 26t-100.5 17t-90 6q-52 0 -104 -6t-98.5 -17t-84 -26
t-59.5 -33q-29 -23 -42.5 -51.5t-17.5 -53.5t-0.5 -42.5t9.5 -18.5q19 -2 41.5 1t45 9t42 14.5t33.5 16.5q6 4 3.5 15t-6.5 25.5t-6.5 30.5t3.5 30q8 21 36.5 33t95.5 12q21 0 46 -5q17 -4 31.5 -6t31.5 -2t31.5 2t31.5 6q25 5 46 5q34 0 56.5 -3t37.5 -9t24 -14.5t14 -18.5
q6 -14 3.5 -30t-6.5 -30.5t-6.5 -25.5t3.5 -15q13 -8 33 -16.5t42.5 -14.5t45 -9t41.5 -1zM548 504q-14 -4 -35 -7t-43 -3t-43 3t-35 7v-65h156v65zM893 328q-6 -10 -20 -13t-32.5 -1t-39 7t-39.5 10q-31 9 -56 22.5t-29 31.5q-2 7 0.5 18t6.5 22t7 21.5t2 17.5
q-4 20 -20 27t-35 10q-3 -23 -3 -51.5t14 -75.5q7 -26 16 -44.5t21 -33.5t25.5 -27t29.5 -25q25 -21 39 -44.5t21 -46.5t8.5 -43t1.5 -35q8 -3 12.5 -12t7 -21t2.5 -24.5t-1 -22.5q-1 -9 -10 -12.5t-24 -3.5h-656q-15 0 -24 3.5t-10 12.5q-1 10 -1 22.5t2.5 24.5t7 21
t12.5 12q0 15 1.5 35t8.5 43t21 46.5t39 44.5q16 13 29.5 25t25.5 27t21 33.5t16 44.5q13 47 13.5 75.5t-2.5 51.5q-19 -3 -35 -10t-20 -27q-2 -7 1 -17.5t7 -21.5t7 -22t1 -18q-4 -18 -29 -31.5t-56 -22.5q-19 -5 -39.5 -10t-39 -7t-32.5 1t-20 13t-7.5 29t1.5 41.5
t11.5 45t22.5 40.5q24 31 66.5 54t95.5 38t113 22t120 7t120 -7t113 -22t95.5 -38t66.5 -54q14 -18 22.5 -40.5t11.5 -45t1.5 -41.5t-7.5 -29z" />
    <glyph glyph-name="uni261C" unicode="&#x261c;" horiz-adv-x="940" 
d="M517 204q-1 9 -10.5 12.5t-17.5 3.5q-25 1 -54 1t-49 -2q-9 -1 -13.5 -7.5t-2.5 -14.5q1 -13 16 -16q24 -5 52.5 -5.5t51.5 1.5q30 1 27 27zM502 252q1 14 -5.5 18.5t-20.5 6.5q-6 1 -20.5 1h-31t-32.5 -0.5t-24 -0.5q-9 -1 -15 -7.5t-6 -14.5q0 -14 23 -19
q5 -1 21.5 -1.5t34.5 -0.5h32.5h15.5q8 0 17.5 4t10.5 14zM446 425q-45 0 -103.5 -1t-121.5 -3q-45 -2 -69 -5t-24 -17t21 -17.5t72 -6.5q56 -4 94.5 -6t75.5 -2q2 5 7 12t12 17q14 22 36 29zM481 315q0 5 -4 9.5t-14 5.5q-34 2 -63.5 3t-58.5 -3q-19 -5 -17 -20
q0 -6 4.5 -11.5t13.5 -5.5q29 -2 64.5 -1t57.5 3q8 1 12.5 5t4.5 15zM758 365q-7 -1 -19.5 -0.5t-20.5 2.5q1 -2 1 -3.5t1 -3.5q2 -9 0.5 -9.5t-6.5 4.5q-8 9 -21 20.5t-32 24.5q-15 9 -38.5 14.5t-48 8.5t-47 3t-34.5 -1q-14 -2 -30.5 -8t-29.5 -14q-10 -7 -20 -25
q-7 -16 -18 -22q-3 -5 3 -8.5t26 4.5q9 3 16 8.5t12 11t9 8.5t6 1q5 -5 -3 -14q7 -2 18.5 -3.5t18.5 0.5q18 5 27 11.5t11 2.5t-2 -10t-11 -11q6 -8 24.5 -22.5t47.5 -24.5q18 -6 33.5 -8.5t26.5 -3.5t17.5 -2.5t6.5 -5.5q0 -3 -8.5 -4t-20.5 0t-26 3.5t-24 5.5
q-38 12 -60.5 31t-30.5 29q-5 -2 -10.5 -2.5t-10.5 -0.5q-28 2 -38 6l-14 -12q24 0 40 -5.5t19 -16.5q4 -13 0.5 -22.5t-10.5 -15.5q25 -6 28 -25q2 -12 -2 -18t-11 -11q26 -8 29 -26q1 -8 -1 -13t-4 -9q-2 -3 -7 -8q13 -1 32 0q71 7 112.5 22.5t70.5 34.5q3 2 5.5 2t1.5 -3
q-1 -2 -1 -3.5t-1 -3.5h18v140zM812 394h-40v-185h40v185zM757 195v19h-26q-24 -14 -59 -27.5t-94 -22.5q-17 -3 -41 -4t-48.5 -1t-47.5 1.5t-38 3.5q-17 2 -32 8.5t-18 21.5q-2 11 1.5 17.5t11.5 11.5q-12 0 -22.5 8t-11.5 22q-1 16 10 27q-13 2 -23 8t-10 22q0 20 17.5 28
t57.5 8l-3 8h-38.5t-35.5 1t-37.5 2t-44.5 3q-19 1 -39 2t-36 4.5t-26.5 11t-10.5 21.5q0 12 8.5 18.5t22.5 10t33.5 4.5t42.5 3q13 1 41 2t64.5 1.5t77 0.5h78.5q29 0 58.5 -0.5t58 -5t55.5 -15.5t51 -33q16 -4 29.5 -5t24.5 0v29h68v-214h-69z" />
    <glyph glyph-name="uni261E" unicode="&#x261e;" horiz-adv-x="940" 
d="M167 394h-40v-185h40v185zM544 356q-11 6 -18 22q-10 18 -20 25q-13 8 -29.5 14t-30.5 8q-12 1 -34.5 1t-47.5 -3t-48 -8.5t-38 -14.5q-19 -13 -32 -24.5t-21 -20.5q-5 -5 -6.5 -4.5t0.5 9.5q1 2 1 3.5t1 3.5q-8 -2 -20.5 -2.5t-19.5 0.5v-140h18q-1 2 -1 3.5t-1 3.5
q-1 3 1.5 3t5.5 -2q29 -19 70.5 -34.5t112.5 -22.5q19 -1 32 0q-5 5 -7 8l-4.5 9t-0.5 13q3 18 29 26q-7 5 -11 11t-2 18q3 19 28 25q-7 6 -10.5 15.5t0.5 22.5q3 11 19 16.5t40 5.5l-14 12q-10 -4 -38 -6q-5 0 -10.5 0.5t-10.5 2.5q-8 -10 -30.5 -29t-60.5 -31
q-11 -3 -24.5 -5.5t-25.5 -3.5t-20.5 0t-8.5 4q0 4 6.5 5.5t17.5 2.5t26.5 3.5t33.5 8.5q29 10 47.5 24.5t24.5 22.5q-7 5 -11 11t-2 10t11 -2.5t27 -11.5q7 -2 18.5 -0.5t18.5 3.5q-8 9 -3 14q2 2 5.5 -1t9 -8.5t12.5 -11t16 -8.5q20 -8 26 -4.5t3 8.5zM569 197
q2 8 -2.5 14.5t-13.5 7.5q-20 2 -49 2t-54 -1q-8 0 -17.5 -3.5t-10.5 -12.5q-3 -26 27 -27q23 -2 51.5 -1.5t52.5 5.5q15 3 16 16zM592 255q0 8 -6 14.5t-15 7.5q-8 0 -24 0.5t-32.5 0.5h-31t-20.5 -1q-14 -2 -20.5 -6.5t-5.5 -18.5q1 -10 10.5 -14t17.5 -4h15.5h32.5
t34.5 0.5t21.5 1.5q23 5 23 19zM615 310q2 15 -17 20q-29 4 -58.5 3t-63.5 -3q-10 -1 -14 -5.5t-4 -9.5q0 -11 4.5 -15t12.5 -5q10 -1 25.5 -2t32 -1.5t33.5 0t31 1.5q9 0 13.5 5.5t4.5 11.5zM811 399q0 14 -24 17t-69 5q-63 2 -121.5 3t-103.5 1q22 -7 36 -29q7 -10 12 -17
t7 -12q37 1 75.5 3t94.5 5q51 3 72 6.5t21 17.5zM826 399q0 -14 -10.5 -21.5t-26.5 -11t-36 -4.5t-39 -2q-26 -2 -45.5 -3t-37 -2t-35 -1h-38.5l-3 -8q40 0 57.5 -8t17.5 -28q0 -16 -10 -22t-23 -8q11 -11 10 -27q-1 -14 -11.5 -22t-22.5 -8q8 -5 11.5 -11.5t1.5 -17.5
q-3 -15 -18 -21.5t-32 -8.5q-15 -2 -38 -3.5t-48 -1.5t-49 1t-40 4q-59 9 -94 22.5t-59 27.5h-26v-19h-69v214h68v-29q11 -1 24.5 0t29.5 5q24 22 51 33t55.5 15.5t58 5t58.5 0.5h78.5t77 -0.5t64.5 -1.5t41 -2q22 -2 42 -3t34 -4.5t22.5 -10t8.5 -18.5z" />
    <glyph glyph-name="female" unicode="&#x2640;" horiz-adv-x="940" 
d="M606 554q0 28 -10.5 53t-29 44t-43.5 30t-53 11q-29 0 -53.5 -11t-43 -30t-29 -44t-10.5 -53t10.5 -53t29 -44t43 -30t53.5 -11q28 0 53 11t43.5 30t29 44t10.5 53zM488 214v-332h-36v332h-272v38h272v132q-32 3 -60 17.5t-48.5 37.5t-32.5 52.5t-12 62.5q0 35 13.5 66.5
t36.5 55t54.5 37t66.5 13.5t66 -13.5t54.5 -37t37 -55t13.5 -66.5q0 -33 -12 -62.5t-32.5 -52.5t-48.5 -37.5t-60 -17.5v-132h272v-38h-272z" />
    <glyph glyph-name="male" unicode="&#x2642;" horiz-adv-x="940" 
d="M605 52q0 28 -10.5 53t-29 44t-43.5 30t-53 11q-29 0 -53.5 -11t-43 -30t-29 -44t-10.5 -53t10.5 -53t29 -44t43 -30t53.5 -11q28 0 53 11t43.5 30t29 44t10.5 53zM679 399l-192 250v-426q32 -3 60 -18t48.5 -38t32.5 -52.5t12 -62.5q0 -35 -13.5 -66.5t-37 -54.5
t-54.5 -36.5t-66 -13.5t-66.5 13.5t-54.5 36.5t-36.5 54.5t-13.5 66.5q0 33 12 62.5t32.5 52.5t48.5 38t60 18v426l-192 -246l-29 22l239 303l240 -305z" />
    <glyph glyph-name="spade" unicode="&#x2660;" horiz-adv-x="940" 
d="M797 201q0 -33 -10 -60.5t-28 -47.5t-44 -31.5t-57 -11.5q-29 0 -57 12.5t-66 34.5q1 -19 5.5 -43.5t11.5 -50t16 -50.5t19 -44q9 -19 -14 -22q-20 -2 -48.5 -3.5t-54.5 -1.5q-29 0 -55.5 1.5t-47.5 3.5q-23 3 -14 22q10 21 18.5 45.5t15.5 49.5t11.5 49t6.5 44
q-38 -22 -66 -34.5t-57 -12.5q-32 0 -57.5 11.5t-43.5 31.5t-28 47.5t-10 60.5q0 43 29.5 103.5t76.5 129.5t105.5 142.5t115.5 144.5q57 -71 115.5 -144.5t105.5 -142.5t76.5 -129.5t29.5 -103.5z" />
    <glyph glyph-name="uni2661" unicode="&#x2661;" horiz-adv-x="940" 
d="M775 470q0 34 -9.5 63.5t-28 51.5t-47.5 34t-68 12q-24 0 -42.5 -12t-32.5 -30.5t-23.5 -40.5t-15.5 -42q-5 -19 -13 -35.5t-25 -16.5t-25 16.5t-13 35.5q-6 20 -16 42t-24 40.5t-32.5 30.5t-41.5 12q-39 0 -68 -12t-47.5 -34t-28 -51.5t-9.5 -63.5q0 -39 13.5 -82.5
t37 -88.5t54 -90.5t64 -88.5t69 -82.5t67.5 -72.5q32 33 67.5 72.5t69 82.5t64 88.5t54 90.5t37 88.5t13.5 82.5zM820 477q0 -72 -34.5 -150.5t-86.5 -154.5t-113.5 -145t-115.5 -121q-54 52 -115.5 121t-113.5 145t-86.5 154.5t-34.5 150.5q0 42 14 78t38 62t56 41t69 15
q64 0 107.5 -42t65.5 -138q22 96 65.5 138t107.5 42q37 0 69 -15t56 -41t38 -62t14 -78z" />
    <glyph glyph-name="club" unicode="&#x2663;" horiz-adv-x="940" 
d="M869 211q0 -36 -12 -70t-34.5 -59.5t-53.5 -41t-70 -15.5q-26 0 -50 8t-45 20.5t-37.5 27t-27.5 26.5q7 -17 14 -40.5t12.5 -50.5t9 -56t3.5 -56q0 -7 -5.5 -11t-12.5 -5q-12 -1 -20 -1.5l-16 -1t-20.5 -0.5h-33.5q-23 0 -44 0.5t-46 2.5q-7 1 -12.5 5t-5.5 11q0 27 3 56
t8.5 56t12.5 50.5t15 40.5q-11 -12 -27.5 -26.5t-37.5 -27t-45 -20.5t-50 -8q-39 0 -70 15.5t-53.5 41t-34.5 59.5t-12 70q0 35 12.5 67.5t34 57t52 39.5t66.5 15q33 0 63 -11.5t59 -25.5q8 -4 17 -3t12 6q5 8 1 16t-9 13q-24 21 -41 39.5t-28 38t-16 41t-5 48.5q0 37 15 67
t40 51t57.5 32.5t68.5 11.5t68.5 -11.5t57.5 -32.5t40 -51t15 -67q0 -27 -5 -48.5t-16 -41t-28 -38t-41 -39.5q-5 -5 -9 -13t1 -16q3 -5 12 -6t17 3q29 14 59 25.5t63 11.5q36 0 66.5 -15t52 -39.5t34 -57t12.5 -67.5z" />
    </font>
</defs>
</svg>
